<?xml version="1.0" encoding="utf-8" standalone="no"?>
<!DOCTYPE svg PUBLIC "-//W3C//DTD SVG 1.1//EN"
  "http://www.w3.org/Graphics/SVG/1.1/DTD/svg11.dtd">
<svg xmlns:xlink="http://www.w3.org/1999/xlink" width="176.87952pt" height="108.47952pt" viewBox="0 0 176.87952 108.47952" xmlns="http://www.w3.org/2000/svg" version="1.1">
 <metadata>
  <rdf:RDF xmlns:dc="http://purl.org/dc/elements/1.1/" xmlns:cc="http://creativecommons.org/ns#" xmlns:rdf="http://www.w3.org/1999/02/22-rdf-syntax-ns#">
   <cc:Work>
    <dc:type rdf:resource="http://purl.org/dc/dcmitype/StillImage"/>
    <dc:date>2026-09-23T19:03:59.693857</dc:date>
    <dc:format>image/svg+xml</dc:format>
    <dc:creator>
     <cc:Agent>
      <dc:title>Matplotlib v3.10.6, https://matplotlib.org/</dc:title>
     </cc:Agent>
    </dc:creator>
   </cc:Work>
  </rdf:RDF>
 </metadata>
 <defs>
  <style type="text/css">*{stroke-linejoin: round; stroke-linecap: butt}</style>
 </defs>
 <g id="figure_1">
  <g id="patch_1">
   <path d="M 0 108.47952 
L 176.87952 108.47952 
L 176.87952 0 
L 0 0 
z
" style="fill: #ffffff"/>
  </g>
  <g id="axes_1">
   <g id="patch_2">
    <path d="M 45.965281 80.861551 
L 176.87952 80.861551 
L 176.87952 0 
L 45.965281 0 
z
" style="fill: #ffffff"/>
   </g>
   <g id="matplotlib.axis_1">
    <g id="xtick_1">
     <g id="line2d_1">
      <path d="M 53.238295 80.861551 
L 53.238295 0 
" clip-path="url(#p8edd118602)" style="fill: none; stroke-dasharray: 3.7,1.6; stroke-dashoffset: 0; stroke: #cccccc"/>
     </g>
     <g id="line2d_2"/>
     <g id="text_1">
      <!-- 0.2 -->
      <g transform="translate(46.456966 92.171551) scale(0.11 -0.11)">
       <defs>
        <path id="MyriadPro-Regular-30" d="M 1683 4230 
C 838 4230 230 3469 230 2067 
C 243 691 800 -70 1613 -70 
C 2528 -70 3059 710 3059 2125 
C 3059 3450 2554 4230 1683 4230 
z
M 1645 3795 
C 2234 3795 2490 3123 2490 2099 
C 2490 1037 2214 365 1645 365 
C 1133 365 800 979 800 2061 
C 800 3194 1158 3795 1645 3795 
z
" transform="scale(0.015625)"/>
        <path id="MyriadPro-Regular-2e" d="M 704 -70 
C 941 -70 1094 102 1094 333 
C 1094 570 941 736 717 736 
C 493 736 333 563 333 333 
C 333 102 486 -70 704 -70 
z
" transform="scale(0.015625)"/>
        <path id="MyriadPro-Regular-32" d="M 2944 0 
L 2944 467 
L 1082 467 
L 1082 480 
L 1408 787 
C 2285 1632 2842 2253 2842 3021 
C 2842 3616 2464 4230 1568 4230 
C 1094 4230 678 4045 397 3808 
L 576 3411 
C 768 3571 1082 3763 1459 3763 
C 2080 3763 2278 3373 2278 2950 
C 2278 2323 1792 1786 730 774 
L 288 346 
L 288 0 
L 2944 0 
z
" transform="scale(0.015625)"/>
       </defs>
       <use xlink:href="#MyriadPro-Regular-30"/>
       <use xlink:href="#MyriadPro-Regular-2e" transform="translate(51.299988 0)"/>
       <use xlink:href="#MyriadPro-Regular-32" transform="translate(71.999985 0)"/>
      </g>
     </g>
    </g>
    <g id="xtick_2">
     <g id="line2d_3">
      <path d="M 111.422401 80.861551 
L 111.422401 0 
" clip-path="url(#p8edd118602)" style="fill: none; stroke-dasharray: 3.7,1.6; stroke-dashoffset: 0; stroke: #cccccc"/>
     </g>
     <g id="line2d_4"/>
     <g id="text_2">
      <!-- 1.0 -->
      <g transform="translate(104.641072 92.171551) scale(0.11 -0.11)">
       <defs>
        <path id="MyriadPro-Regular-31" d="M 1510 0 
L 2054 0 
L 2054 4160 
L 1574 4160 
L 666 3674 
L 774 3245 
L 1498 3635 
L 1510 3635 
L 1510 0 
z
" transform="scale(0.015625)"/>
       </defs>
       <use xlink:href="#MyriadPro-Regular-31"/>
       <use xlink:href="#MyriadPro-Regular-2e" transform="translate(51.299988 0)"/>
       <use xlink:href="#MyriadPro-Regular-30" transform="translate(71.999985 0)"/>
      </g>
     </g>
    </g>
    <g id="xtick_3">
     <g id="line2d_5">
      <path d="M 169.606507 80.861551 
L 169.606507 0 
" clip-path="url(#p8edd118602)" style="fill: none; stroke-dasharray: 3.7,1.6; stroke-dashoffset: 0; stroke: #cccccc"/>
     </g>
     <g id="line2d_6"/>
     <g id="text_3">
      <!-- 1.8 -->
      <g transform="translate(162.825179 92.171551) scale(0.11 -0.11)">
       <defs>
        <path id="MyriadPro-Regular-38" d="M 1062 2170 
C 550 1952 237 1574 237 1050 
C 237 442 762 -70 1632 -70 
C 2426 -70 3046 410 3046 1139 
C 3046 1638 2726 2010 2208 2214 
L 2208 2234 
C 2720 2470 2899 2854 2899 3206 
C 2899 3731 2490 4230 1683 4230 
C 947 4230 390 3782 390 3123 
C 390 2765 589 2406 1056 2189 
L 1062 2170 
z
M 1645 339 
C 1114 339 794 710 813 1126 
C 813 1523 1075 1850 1562 1990 
C 2125 1830 2477 1581 2477 1082 
C 2477 653 2150 339 1645 339 
z
M 1651 3827 
C 2157 3827 2355 3482 2355 3149 
C 2355 2771 2080 2515 1722 2394 
C 1242 2522 922 2746 928 3162 
C 928 3520 1184 3827 1651 3827 
z
" transform="scale(0.015625)"/>
       </defs>
       <use xlink:href="#MyriadPro-Regular-31"/>
       <use xlink:href="#MyriadPro-Regular-2e" transform="translate(51.299988 0)"/>
       <use xlink:href="#MyriadPro-Regular-38" transform="translate(71.999985 0)"/>
      </g>
     </g>
    </g>
    <g id="xtick_4">
     <g id="line2d_7">
      <path d="M 82.330348 80.861551 
L 82.330348 0 
" clip-path="url(#p8edd118602)" style="fill: none; stroke-dasharray: 3.7,1.6; stroke-dashoffset: 0; stroke: #cccccc"/>
     </g>
     <g id="line2d_8"/>
    </g>
    <g id="xtick_5">
     <g id="line2d_9">
      <path d="M 140.514454 80.861551 
L 140.514454 0 
" clip-path="url(#p8edd118602)" style="fill: none; stroke-dasharray: 3.7,1.6; stroke-dashoffset: 0; stroke: #cccccc"/>
     </g>
     <g id="line2d_10"/>
    </g>
    <g id="text_4">
     <!-- Knee joint angle [rad] -->
     <g transform="translate(62.355526 106.159207) scale(0.11 -0.11)">
      <defs>
       <path id="MyriadPro-Regular-4b" d="M 486 0 
L 1043 0 
L 1043 1645 
L 1459 2118 
L 2874 0 
L 3533 0 
L 1850 2483 
L 3411 4314 
L 2720 4314 
L 1402 2694 
C 1293 2554 1178 2400 1062 2234 
L 1043 2234 
L 1043 4314 
L 486 4314 
L 486 0 
z
" transform="scale(0.015625)"/>
       <path id="MyriadPro-Regular-6e" d="M 467 0 
L 1030 0 
L 1030 1862 
C 1030 1958 1043 2054 1069 2125 
C 1171 2438 1459 2701 1824 2701 
C 2355 2701 2541 2285 2541 1786 
L 2541 0 
L 3104 0 
L 3104 1843 
C 3104 2906 2438 3162 2010 3162 
C 1498 3162 1139 2874 986 2586 
L 973 2586 
L 941 3098 
L 442 3098 
C 461 2842 467 2586 467 2259 
L 467 0 
z
" transform="scale(0.015625)"/>
       <path id="MyriadPro-Regular-65" d="M 2957 1446 
C 2970 1510 2976 1594 2976 1709 
C 2976 2278 2714 3162 1696 3162 
C 794 3162 243 2432 243 1498 
C 243 563 813 -70 1766 -70 
C 2259 -70 2605 38 2803 128 
L 2701 531 
C 2496 442 2246 371 1843 371 
C 1274 371 794 685 781 1446 
L 2957 1446 
z
M 787 1850 
C 832 2240 1075 2758 1651 2758 
C 2285 2758 2438 2202 2432 1850 
L 787 1850 
z
" transform="scale(0.015625)"/>
       <path id="MyriadPro-Regular-20" transform="scale(0.015625)"/>
       <path id="MyriadPro-Regular-6a" d="M -230 -1350 
C 70 -1350 480 -1248 730 -998 
C 1005 -717 1101 -326 1101 275 
L 1101 3098 
L 538 3098 
L 538 493 
C 538 -250 474 -493 320 -666 
C 186 -819 -32 -890 -294 -909 
L -230 -1350 
z
M 819 4320 
C 608 4320 467 4160 467 3968 
C 467 3782 602 3622 806 3622 
C 1037 3622 1165 3782 1165 3968 
C 1165 4160 1030 4320 819 4320 
z
" transform="scale(0.015625)"/>
       <path id="MyriadPro-Regular-6f" d="M 1779 3162 
C 928 3162 243 2554 243 1523 
C 243 544 896 -70 1728 -70 
C 2470 -70 3270 429 3270 1574 
C 3270 2515 2669 3162 1779 3162 
z
M 1766 2739 
C 2432 2739 2694 2080 2694 1555 
C 2694 858 2291 352 1754 352 
C 1203 352 819 864 819 1542 
C 819 2125 1107 2739 1766 2739 
z
" transform="scale(0.015625)"/>
       <path id="MyriadPro-Regular-69" d="M 1030 0 
L 1030 3098 
L 467 3098 
L 467 0 
L 1030 0 
z
M 749 4320 
C 538 4320 397 4160 397 3968 
C 397 3776 531 3622 736 3622 
C 960 3622 1094 3776 1094 3968 
C 1094 4166 954 4320 749 4320 
z
" transform="scale(0.015625)"/>
       <path id="MyriadPro-Regular-74" d="M 595 3674 
L 595 3098 
L 115 3098 
L 115 2669 
L 595 2669 
L 595 979 
C 595 614 659 339 813 166 
C 947 19 1158 -70 1421 -70 
C 1638 -70 1811 -32 1920 6 
L 1894 435 
C 1811 410 1722 397 1568 397 
C 1254 397 1146 614 1146 998 
L 1146 2669 
L 1952 2669 
L 1952 3098 
L 1146 3098 
L 1146 3840 
L 595 3674 
z
" transform="scale(0.015625)"/>
       <path id="MyriadPro-Regular-61" d="M 2643 1901 
C 2643 2515 2413 3162 1466 3162 
C 1075 3162 698 3053 442 2893 
L 570 2515 
C 787 2662 1088 2746 1382 2746 
C 2016 2752 2086 2285 2086 2035 
L 2086 1971 
C 890 1978 224 1568 224 819 
C 224 371 544 -70 1171 -70 
C 1613 -70 1946 147 2118 390 
L 2138 390 
L 2182 0 
L 2688 0 
C 2656 211 2643 474 2643 742 
L 2643 1901 
z
M 2099 1043 
C 2099 992 2093 928 2074 864 
C 1984 602 1722 346 1312 346 
C 1030 346 787 512 787 883 
C 787 1485 1485 1594 2099 1581 
L 2099 1043 
z
" transform="scale(0.015625)"/>
       <path id="MyriadPro-Regular-67" d="M 3117 2253 
C 3117 2624 3123 2880 3142 3098 
L 2643 3098 
L 2624 2630 
L 2611 2630 
C 2470 2886 2182 3162 1645 3162 
C 928 3162 243 2573 243 1523 
C 243 666 794 13 1562 13 
C 2042 13 2381 243 2547 531 
L 2560 531 
L 2560 192 
C 2560 -595 2138 -896 1562 -896 
C 1178 -896 858 -781 653 -646 
L 512 -1082 
C 762 -1248 1171 -1338 1542 -1338 
C 1933 -1338 2368 -1242 2675 -966 
C 2970 -691 3117 -262 3117 454 
L 3117 2253 
z
M 2554 1318 
C 2554 1222 2541 1114 2509 1018 
C 2394 659 2080 442 1728 442 
C 1126 442 813 947 813 1555 
C 813 2272 1197 2726 1734 2726 
C 2150 2726 2419 2458 2522 2125 
C 2547 2054 2554 1971 2554 1875 
L 2554 1318 
z
" transform="scale(0.015625)"/>
       <path id="MyriadPro-Regular-6c" d="M 467 0 
L 1030 0 
L 1030 4544 
L 467 4544 
L 467 0 
z
" transform="scale(0.015625)"/>
       <path id="MyriadPro-Regular-5b" d="M 1690 -717 
L 1690 -365 
L 960 -365 
L 960 4038 
L 1690 4038 
L 1690 4390 
L 518 4390 
L 518 -717 
L 1690 -717 
z
" transform="scale(0.015625)"/>
       <path id="MyriadPro-Regular-72" d="M 467 0 
L 1030 0 
L 1030 1651 
C 1030 1741 1037 1837 1050 1914 
C 1126 2336 1408 2630 1805 2630 
C 1882 2630 1939 2630 1997 2618 
L 1997 3149 
C 1946 3155 1901 3162 1843 3162 
C 1466 3162 1120 2899 979 2483 
L 960 2483 
L 934 3098 
L 442 3098 
C 461 2810 467 2496 467 2131 
L 467 0 
z
" transform="scale(0.015625)"/>
       <path id="MyriadPro-Regular-64" d="M 2579 4544 
L 2579 2694 
L 2566 2694 
C 2426 2938 2112 3162 1632 3162 
C 883 3162 237 2534 243 1504 
C 243 563 826 -70 1574 -70 
C 2080 -70 2451 192 2618 538 
L 2637 538 
L 2662 0 
L 3162 0 
C 3149 211 3136 525 3136 800 
L 3136 4544 
L 2579 4544 
z
M 2579 1299 
C 2579 1210 2573 1133 2554 1056 
C 2451 640 2106 384 1728 384 
C 1126 384 813 902 813 1530 
C 813 2208 1158 2720 1741 2720 
C 2163 2720 2470 2426 2554 2074 
C 2573 2003 2579 1907 2579 1837 
L 2579 1299 
z
" transform="scale(0.015625)"/>
       <path id="MyriadPro-Regular-5d" d="M 128 4390 
L 128 4038 
L 858 4038 
L 858 -365 
L 128 -365 
L 128 -717 
L 1299 -717 
L 1299 4390 
L 128 4390 
z
" transform="scale(0.015625)"/>
      </defs>
      <use xlink:href="#MyriadPro-Regular-4b"/>
      <use xlink:href="#MyriadPro-Regular-6e" transform="translate(54.199997 0)"/>
      <use xlink:href="#MyriadPro-Regular-65" transform="translate(109.699982 0)"/>
      <use xlink:href="#MyriadPro-Regular-65" transform="translate(159.799973 0)"/>
      <use xlink:href="#MyriadPro-Regular-20" transform="translate(209.899963 0)"/>
      <use xlink:href="#MyriadPro-Regular-6a" transform="translate(231.09996 0)"/>
      <use xlink:href="#MyriadPro-Regular-6f" transform="translate(255.399948 0)"/>
      <use xlink:href="#MyriadPro-Regular-69" transform="translate(310.299942 0)"/>
      <use xlink:href="#MyriadPro-Regular-6e" transform="translate(333.699936 0)"/>
      <use xlink:href="#MyriadPro-Regular-74" transform="translate(389.199921 0)"/>
      <use xlink:href="#MyriadPro-Regular-20" transform="translate(422.299911 0)"/>
      <use xlink:href="#MyriadPro-Regular-61" transform="translate(443.499908 0)"/>
      <use xlink:href="#MyriadPro-Regular-6e" transform="translate(491.699905 0)"/>
      <use xlink:href="#MyriadPro-Regular-67" transform="translate(547.19989 0)"/>
      <use xlink:href="#MyriadPro-Regular-6c" transform="translate(603.099884 0)"/>
      <use xlink:href="#MyriadPro-Regular-65" transform="translate(626.699875 0)"/>
      <use xlink:href="#MyriadPro-Regular-20" transform="translate(676.799866 0)"/>
      <use xlink:href="#MyriadPro-Regular-5b" transform="translate(697.999863 0)"/>
      <use xlink:href="#MyriadPro-Regular-72" transform="translate(726.399857 0)"/>
      <use xlink:href="#MyriadPro-Regular-61" transform="translate(759.099854 0)"/>
      <use xlink:href="#MyriadPro-Regular-64" transform="translate(807.29985 0)"/>
      <use xlink:href="#MyriadPro-Regular-5d" transform="translate(863.699844 0)"/>
     </g>
    </g>
   </g>
   <g id="matplotlib.axis_2">
    <g id="ytick_1">
     <g id="line2d_11">
      <path d="M 45.965281 80.861551 
L 176.87952 80.861551 
" clip-path="url(#p8edd118602)" style="fill: none; stroke-dasharray: 3.7,1.6; stroke-dashoffset: 0; stroke: #cccccc"/>
     </g>
     <g id="line2d_12"/>
     <g id="text_5">
      <!-- 0 -->
      <g transform="translate(36.822625 84.766551) scale(0.11 -0.11)">
       <use xlink:href="#MyriadPro-Regular-30"/>
      </g>
     </g>
    </g>
    <g id="ytick_2">
     <g id="line2d_13">
      <path d="M 45.965281 42.809057 
L 176.87952 42.809057 
" clip-path="url(#p8edd118602)" style="fill: none; stroke-dasharray: 3.7,1.6; stroke-dashoffset: 0; stroke: #cccccc"/>
     </g>
     <g id="line2d_14"/>
     <g id="text_6">
      <!-- 200 -->
      <g transform="translate(25.537313 46.714057) scale(0.11 -0.11)">
       <use xlink:href="#MyriadPro-Regular-32"/>
       <use xlink:href="#MyriadPro-Regular-30" transform="translate(51.299988 0)"/>
       <use xlink:href="#MyriadPro-Regular-30" transform="translate(102.599976 0)"/>
      </g>
     </g>
    </g>
    <g id="ytick_3">
     <g id="line2d_15">
      <path d="M 45.965281 4.756562 
L 176.87952 4.756562 
" clip-path="url(#p8edd118602)" style="fill: none; stroke-dasharray: 3.7,1.6; stroke-dashoffset: 0; stroke: #cccccc"/>
     </g>
     <g id="line2d_16"/>
     <g id="text_7">
      <!-- 400 -->
      <g transform="translate(25.537313 8.661562) scale(0.11 -0.11)">
       <defs>
        <path id="MyriadPro-Regular-34" d="M 2560 0 
L 2560 1139 
L 3142 1139 
L 3142 1574 
L 2560 1574 
L 2560 4160 
L 1952 4160 
L 96 1504 
L 96 1139 
L 2029 1139 
L 2029 0 
L 2560 0 
z
M 666 1574 
L 666 1587 
L 1683 3002 
C 1798 3194 1901 3373 2029 3616 
L 2048 3616 
C 2035 3398 2029 3181 2029 2963 
L 2029 1574 
L 666 1574 
z
" transform="scale(0.015625)"/>
       </defs>
       <use xlink:href="#MyriadPro-Regular-34"/>
       <use xlink:href="#MyriadPro-Regular-30" transform="translate(51.299988 0)"/>
       <use xlink:href="#MyriadPro-Regular-30" transform="translate(102.599976 0)"/>
      </g>
     </g>
    </g>
    <g id="ytick_4">
     <g id="line2d_17">
      <path d="M 45.965281 61.835304 
L 176.87952 61.835304 
" clip-path="url(#p8edd118602)" style="fill: none; stroke-dasharray: 3.7,1.6; stroke-dashoffset: 0; stroke: #cccccc"/>
     </g>
     <g id="line2d_18"/>
    </g>
    <g id="ytick_5">
     <g id="line2d_19">
      <path d="M 45.965281 23.782809 
L 176.87952 23.782809 
" clip-path="url(#p8edd118602)" style="fill: none; stroke-dasharray: 3.7,1.6; stroke-dashoffset: 0; stroke: #cccccc"/>
     </g>
     <g id="line2d_20"/>
    </g>
    <g id="text_8">
     <!-- Knee joint  -->
     <g transform="translate(7.667344 64.823276) rotate(-90) scale(0.11 -0.11)">
      <use xlink:href="#MyriadPro-Regular-4b"/>
      <use xlink:href="#MyriadPro-Regular-6e" transform="translate(54.199997 0)"/>
      <use xlink:href="#MyriadPro-Regular-65" transform="translate(109.699982 0)"/>
      <use xlink:href="#MyriadPro-Regular-65" transform="translate(159.799973 0)"/>
      <use xlink:href="#MyriadPro-Regular-20" transform="translate(209.899963 0)"/>
      <use xlink:href="#MyriadPro-Regular-6a" transform="translate(231.09996 0)"/>
      <use xlink:href="#MyriadPro-Regular-6f" transform="translate(255.399948 0)"/>
      <use xlink:href="#MyriadPro-Regular-69" transform="translate(310.299942 0)"/>
      <use xlink:href="#MyriadPro-Regular-6e" transform="translate(333.699936 0)"/>
      <use xlink:href="#MyriadPro-Regular-74" transform="translate(389.199921 0)"/>
      <use xlink:href="#MyriadPro-Regular-20" transform="translate(422.299911 0)"/>
     </g>
     <!--  moment [Nm] -->
     <g transform="translate(19.359656 73.916322) rotate(-90) scale(0.11 -0.11)">
      <defs>
       <path id="MyriadPro-Regular-6d" d="M 467 0 
L 1018 0 
L 1018 1862 
C 1018 1958 1030 2061 1062 2138 
C 1152 2419 1414 2701 1760 2701 
C 2189 2701 2406 2349 2406 1856 
L 2406 0 
L 2957 0 
L 2957 1914 
C 2957 2016 2976 2112 3002 2195 
C 3104 2464 3347 2701 3674 2701 
C 4122 2701 4346 2349 4346 1747 
L 4346 0 
L 4896 0 
L 4896 1818 
C 4896 2893 4288 3162 3872 3162 
C 3578 3162 3379 3085 3194 2944 
C 3066 2848 2938 2720 2842 2541 
L 2829 2541 
C 2694 2906 2374 3162 1958 3162 
C 1440 3162 1152 2886 979 2592 
L 960 2592 
L 934 3098 
L 442 3098 
C 454 2842 467 2586 467 2259 
L 467 0 
z
" transform="scale(0.015625)"/>
       <path id="MyriadPro-Regular-4e" d="M 1011 0 
L 1011 1843 
C 1011 2560 1005 3078 973 3622 
L 992 3629 
C 1203 3162 1491 2669 1792 2189 
L 3162 0 
L 3725 0 
L 3725 4314 
L 3200 4314 
L 3200 2509 
C 3200 1837 3213 1312 3264 736 
L 3245 730 
C 3046 1171 2790 1626 2477 2131 
L 1101 4314 
L 486 4314 
L 486 0 
L 1011 0 
z
" transform="scale(0.015625)"/>
      </defs>
      <use xlink:href="#MyriadPro-Regular-20"/>
      <use xlink:href="#MyriadPro-Regular-6d" transform="translate(21.199997 0)"/>
      <use xlink:href="#MyriadPro-Regular-6f" transform="translate(104.599991 0)"/>
      <use xlink:href="#MyriadPro-Regular-6d" transform="translate(159.499985 0)"/>
      <use xlink:href="#MyriadPro-Regular-65" transform="translate(242.899979 0)"/>
      <use xlink:href="#MyriadPro-Regular-6e" transform="translate(292.999969 0)"/>
      <use xlink:href="#MyriadPro-Regular-74" transform="translate(348.499954 0)"/>
      <use xlink:href="#MyriadPro-Regular-20" transform="translate(381.599945 0)"/>
      <use xlink:href="#MyriadPro-Regular-5b" transform="translate(402.799942 0)"/>
      <use xlink:href="#MyriadPro-Regular-4e" transform="translate(431.199936 0)"/>
      <use xlink:href="#MyriadPro-Regular-6d" transform="translate(496.999924 0)"/>
      <use xlink:href="#MyriadPro-Regular-5d" transform="translate(580.399918 0)"/>
     </g>
    </g>
   </g>
   <g id="line2d_21">
    <path d="M 53.207385 69.369568 
L 54.381829 67.93757 
L 55.556274 66.491684 
L 56.730719 65.0356 
L 57.905163 63.572494 
L 59.079608 62.105135 
L 60.254053 60.635971 
L 61.428497 59.167184 
L 62.602942 57.700745 
L 63.777387 56.238442 
L 64.951831 54.781912 
L 66.126276 53.332666 
L 67.300721 51.892101 
L 68.475166 50.461518 
L 69.64961 49.042136 
L 70.824055 47.635099 
L 71.9985 46.241483 
L 73.172944 44.862309 
L 74.347389 43.498541 
L 75.521834 42.1511 
L 76.696278 40.82086 
L 77.870723 39.508657 
L 79.045168 38.215291 
L 80.219612 36.941528 
L 81.394057 35.688106 
L 82.568502 34.455733 
L 83.742946 33.245089 
L 84.917391 32.056835 
L 86.091836 30.891604 
L 87.26628 29.750012 
L 88.440725 28.632654 
L 89.61517 27.540107 
L 90.789614 26.47293 
L 91.964059 25.431667 
L 93.138504 24.416848 
L 94.312948 23.428988 
L 95.487393 22.468589 
L 96.661838 21.536142 
L 97.836282 20.632124 
L 99.010727 19.757005 
L 100.185172 18.911243 
L 101.359616 18.095287 
L 102.534061 17.309578 
L 103.708506 16.55455 
L 104.882951 15.830628 
L 106.057395 15.138231 
L 107.23184 14.477774 
L 108.406285 13.849663 
L 109.580729 13.254303 
L 110.755174 12.692092 
L 111.929619 12.163424 
L 113.104063 11.668693 
L 114.278508 11.208286 
L 115.452953 10.782591 
L 116.627397 10.391993 
L 117.801842 10.036876 
L 118.976287 9.717624 
L 120.150731 9.434619 
L 121.325176 9.188247 
L 122.499621 8.978892 
L 123.674065 8.806941 
L 124.84851 8.672783 
L 126.022955 8.576809 
L 127.197399 8.519416 
L 128.371844 8.501001 
L 129.546289 8.52197 
L 130.720733 8.582732 
L 131.895178 8.683703 
L 133.069623 8.825308 
L 134.244067 9.007976 
L 135.418512 9.23215 
L 136.592957 9.498278 
L 137.767401 9.806822 
L 138.941846 10.158257 
L 140.116291 10.553069 
L 141.290736 10.991761 
L 142.46518 11.474852 
L 143.639625 12.002878 
L 144.81407 12.576396 
L 145.988514 13.195986 
L 147.162959 13.86225 
L 148.337404 14.575821 
L 149.511848 15.337358 
L 150.686293 16.147556 
L 151.860738 17.007145 
L 153.035182 17.916899 
L 154.209627 18.877635 
L 155.384072 19.890226 
L 156.558516 20.955599 
L 157.732961 22.07475 
L 158.907406 23.248751 
L 160.08185 24.478758 
L 161.256295 25.766027 
L 162.43074 27.111928 
L 163.605184 28.517962 
L 164.779629 29.985788 
L 165.954074 31.517247 
L 167.128518 33.114398 
L 168.302963 34.779563 
L 169.477408 36.515387 
" clip-path="url(#p8edd118602)" style="fill: none; stroke: #ff7f0e; stroke-linecap: square"/>
   </g>
   <g id="line2d_22">
    <path d="M 53.207385 63.556232 
" clip-path="url(#p8edd118602)" style="fill: none"/>
    <defs>
     <path id="m5d370e630d" d="M 0 1.5 
C 0.397805 1.5 0.77937 1.341951 1.06066 1.06066 
C 1.341951 0.77937 1.5 0.397805 1.5 0 
C 1.5 -0.397805 1.341951 -0.77937 1.06066 -1.06066 
C 0.77937 -1.341951 0.397805 -1.5 0 -1.5 
C -0.397805 -1.5 -0.77937 -1.341951 -1.06066 -1.06066 
C -1.341951 -0.77937 -1.5 -0.397805 -1.5 0 
C -1.5 0.397805 -1.341951 0.77937 -1.06066 1.06066 
C -0.77937 1.341951 -0.397805 1.5 0 1.5 
z
" style="stroke: #000000"/>
    </defs>
    <g clip-path="url(#p8edd118602)">
     <use xlink:href="#m5d370e630d" x="53.207385" y="63.556232" style="stroke: #000000"/>
    </g>
   </g>
   <g id="line2d_23">
    <path d="M 67.723231 53.907487 
" clip-path="url(#p8edd118602)" style="fill: none"/>
    <g clip-path="url(#p8edd118602)">
     <use xlink:href="#m5d370e630d" x="67.723231" y="53.907487" style="stroke: #000000"/>
    </g>
   </g>
   <g id="line2d_24">
    <path d="M 82.227294 38.83791 
" clip-path="url(#p8edd118602)" style="fill: none"/>
    <g clip-path="url(#p8edd118602)">
     <use xlink:href="#m5d370e630d" x="82.227294" y="38.83791" style="stroke: #000000"/>
    </g>
   </g>
   <g id="line2d_25">
    <path d="M 96.739455 25.77856 
" clip-path="url(#p8edd118602)" style="fill: none"/>
    <g clip-path="url(#p8edd118602)">
     <use xlink:href="#m5d370e630d" x="96.739455" y="25.77856" style="stroke: #000000"/>
    </g>
   </g>
   <g id="line2d_26">
    <path d="M 111.233734 8.42191 
" clip-path="url(#p8edd118602)" style="fill: none"/>
    <g clip-path="url(#p8edd118602)">
     <use xlink:href="#m5d370e630d" x="111.233734" y="8.42191" style="stroke: #000000"/>
    </g>
   </g>
   <g id="line2d_27">
    <path d="M 125.760977 5.458049 
" clip-path="url(#p8edd118602)" style="fill: none"/>
    <g clip-path="url(#p8edd118602)">
     <use xlink:href="#m5d370e630d" x="125.760977" y="5.458049" style="stroke: #000000"/>
    </g>
   </g>
   <g id="line2d_28">
    <path d="M 140.309834 9.514522 
" clip-path="url(#p8edd118602)" style="fill: none"/>
    <g clip-path="url(#p8edd118602)">
     <use xlink:href="#m5d370e630d" x="140.309834" y="9.514522" style="stroke: #000000"/>
    </g>
   </g>
   <g id="line2d_29">
    <path d="M 154.896634 21.995319 
" clip-path="url(#p8edd118602)" style="fill: none"/>
    <g clip-path="url(#p8edd118602)">
     <use xlink:href="#m5d370e630d" x="154.896634" y="21.995319" style="stroke: #000000"/>
    </g>
   </g>
   <g id="line2d_30">
    <path d="M 169.477408 36.351289 
" clip-path="url(#p8edd118602)" style="fill: none"/>
    <g clip-path="url(#p8edd118602)">
     <use xlink:href="#m5d370e630d" x="169.477408" y="36.351289" style="stroke: #000000"/>
    </g>
   </g>
   <g id="patch_3">
    <path d="M 45.965281 80.861551 
L 45.965281 0 
" style="fill: none; stroke: #000000; stroke-width: 0.8; stroke-linejoin: miter; stroke-linecap: square"/>
   </g>
   <g id="patch_4">
    <path d="M 45.965281 80.861551 
L 176.87952 80.861551 
" style="fill: none; stroke: #000000; stroke-width: 0.8; stroke-linejoin: miter; stroke-linecap: square"/>
   </g>
  </g>
 </g>
 <defs>
  <clipPath id="p8edd118602">
   <rect x="45.965281" y="0" width="130.914239" height="80.861551"/>
  </clipPath>
 </defs>
</svg>
