<?xml version="1.0" encoding="utf-8" standalone="no"?>
<!DOCTYPE svg PUBLIC "-//W3C//DTD SVG 1.1//EN"
  "http://www.w3.org/Graphics/SVG/1.1/DTD/svg11.dtd">
<svg xmlns:xlink="http://www.w3.org/1999/xlink" width="150.544717pt" height="142.421132pt" viewBox="0 0 150.544717 142.421132" xmlns="http://www.w3.org/2000/svg" version="1.1">
 <metadata>
  <rdf:RDF xmlns:dc="http://purl.org/dc/elements/1.1/" xmlns:cc="http://creativecommons.org/ns#" xmlns:rdf="http://www.w3.org/1999/02/22-rdf-syntax-ns#">
   <cc:Work>
    <dc:type rdf:resource="http://purl.org/dc/dcmitype/StillImage"/>
    <dc:date>2026-02-25T13:38:12.925454</dc:date>
    <dc:format>image/svg+xml</dc:format>
    <dc:creator>
     <cc:Agent>
      <dc:title>Matplotlib v3.10.6, https://matplotlib.org/</dc:title>
     </cc:Agent>
    </dc:creator>
   </cc:Work>
  </rdf:RDF>
 </metadata>
 <defs>
  <style type="text/css">*{stroke-linejoin: round; stroke-linecap: butt}</style>
 </defs>
 <g id="figure_1">
  <g id="patch_1">
   <path d="M 0 142.421132 
L 150.544717 142.421132 
L 150.544717 0 
L 0 0 
z
" style="fill: #ffffff"/>
  </g>
  <g id="axes_1">
   <g id="patch_2">
    <path d="M 24.18 126.601132 
L 150.544717 126.601132 
L 150.544717 0.463986 
L 24.18 0.463986 
z
" style="fill: #ffffff"/>
   </g>
   <g id="matplotlib.axis_1">
    <g id="xtick_1">
     <g id="line2d_1">
      <path d="M 96.207889 126.601132 
L 96.207889 0.463986 
" clip-path="url(#p9e7fdf2e03)" style="fill: none; stroke-dasharray: 3.7,1.6; stroke-dashoffset: 0; stroke: #eeeeee"/>
     </g>
     <g id="line2d_2"/>
     <g id="text_1">
      <!-- $v_{CE}^{data}$ -->
      <g transform="translate(86.472889 139.781132) scale(0.11 -0.11)">
       <defs>
        <path id="MinionPro-It-76" d="M 1402 557 
C 1382 1082 1350 1600 1318 2163 
C 1286 2630 1210 2874 1043 2874 
C 838 2874 506 2541 275 2208 
L 384 2067 
C 582 2304 704 2406 755 2406 
C 806 2406 845 2291 870 1914 
C 902 1523 973 518 992 -77 
L 1165 -77 
C 1549 397 2118 1133 2496 1651 
C 2784 2054 2886 2310 2886 2509 
C 2880 2720 2765 2874 2611 2874 
C 2496 2874 2381 2790 2342 2682 
C 2317 2630 2317 2573 2342 2528 
C 2387 2458 2406 2355 2406 2246 
C 2406 1818 1677 883 1414 557 
L 1402 557 
z
" transform="scale(0.015625)"/>
        <path id="MinionPro-It-64" d="M 3008 717 
C 2835 544 2630 403 2554 403 
C 2509 403 2502 461 2528 608 
C 2752 1856 3021 3098 3322 4378 
C 3347 4506 3334 4557 3277 4557 
C 3181 4557 2835 4390 2298 4333 
L 2278 4173 
L 2483 4173 
C 2765 4173 2784 4147 2726 3853 
L 2515 2803 
C 2362 2867 2227 2874 2138 2874 
C 1837 2874 1306 2643 1005 2381 
C 538 1978 262 1293 262 691 
C 262 179 467 -77 678 -77 
C 858 -77 1062 26 1299 218 
C 1523 390 1856 672 2144 1056 
L 2157 1062 
L 2042 518 
C 1939 26 2029 -77 2157 -77 
C 2342 -77 2758 166 3098 570 
L 3008 717 
z
M 992 339 
C 883 339 794 486 794 813 
C 794 1350 1050 2157 1478 2464 
C 1587 2547 1728 2598 1920 2598 
C 2112 2598 2342 2522 2438 2432 
L 2234 1517 
C 2022 1133 1318 339 992 339 
z
" transform="scale(0.015625)"/>
        <path id="MinionPro-It-61" d="M 2906 742 
C 2714 557 2496 403 2438 403 
C 2406 403 2387 461 2426 678 
C 2573 1491 2765 2362 2867 2758 
L 2854 2784 
C 2784 2784 2694 2803 2611 2822 
C 2470 2854 2342 2874 2214 2874 
C 1811 2874 1344 2650 1018 2381 
C 550 1990 250 1286 250 640 
C 250 134 454 -77 621 -77 
C 794 -77 1005 38 1216 211 
C 1491 435 1798 742 2042 1094 
L 2061 1094 
L 1933 486 
C 1837 19 1920 -77 2042 -77 
C 2202 -77 2630 160 2982 589 
L 2906 742 
z
M 954 333 
C 858 333 781 467 781 755 
C 781 1389 1037 2138 1472 2458 
C 1587 2541 1760 2592 1933 2592 
C 2099 2592 2266 2547 2355 2502 
C 2317 2298 2221 1837 2144 1587 
C 1933 1139 1203 333 954 333 
z
" transform="scale(0.015625)"/>
        <path id="MinionPro-It-74" d="M 2163 2758 
L 1414 2758 
L 1645 3725 
L 1581 3763 
L 1101 3360 
L 954 2758 
L 563 2758 
L 403 2560 
L 422 2502 
L 896 2502 
L 525 768 
C 378 109 506 -77 653 -77 
C 992 -77 1478 352 1690 608 
L 1594 742 
C 1440 582 1133 371 1024 371 
C 954 371 915 442 986 755 
L 1357 2509 
L 1997 2534 
L 2163 2758 
z
" transform="scale(0.015625)"/>
        <path id="MinionPro-It-43" d="M 3725 1114 
C 3366 557 2995 122 2349 122 
C 1491 122 1043 851 1043 1766 
C 1043 2950 1805 4032 2925 4032 
C 3565 4032 3898 3808 3930 3046 
L 4122 3066 
C 4147 3373 4154 3718 4173 4045 
C 3994 4115 3590 4250 3072 4250 
C 1600 4250 422 3264 422 1747 
C 422 550 1216 -96 2285 -96 
C 2733 -96 3187 13 3386 58 
C 3526 262 3789 774 3891 1024 
L 3725 1114 
z
" transform="scale(0.015625)"/>
        <path id="MinionPro-It-45" d="M 826 4154 
L 774 3981 
C 1299 3936 1331 3904 1235 3392 
L 723 768 
C 627 250 576 218 51 173 
L 13 0 
L 3008 0 
C 3104 198 3347 813 3418 986 
L 3238 1050 
C 3104 819 2957 582 2803 435 
C 2624 269 2438 218 1958 218 
C 1600 218 1408 230 1312 307 
C 1222 384 1216 550 1286 922 
L 1498 2042 
L 2106 2042 
C 2662 2042 2662 1997 2650 1542 
L 2835 1542 
L 3078 2758 
L 2893 2758 
C 2739 2336 2694 2291 2163 2291 
L 1542 2291 
L 1818 3674 
C 1862 3917 1875 3936 2093 3936 
L 2592 3936 
C 3066 3936 3149 3872 3213 3725 
C 3283 3597 3296 3405 3296 3162 
L 3482 3174 
C 3526 3552 3584 4038 3603 4154 
L 826 4154 
z
" transform="scale(0.015625)"/>
       </defs>
       <use xlink:href="#MinionPro-It-76" transform="translate(0 0.784375)"/>
       <use xlink:href="#MinionPro-It-64" transform="translate(48.367341 38.157813) scale(0.7)"/>
       <use xlink:href="#MinionPro-It-61" transform="translate(83.927332 38.157813) scale(0.7)"/>
       <use xlink:href="#MinionPro-It-74" transform="translate(118.227321 38.157813) scale(0.7)"/>
       <use xlink:href="#MinionPro-It-61" transform="translate(139.717319 38.157813) scale(0.7)"/>
       <use xlink:href="#MinionPro-It-43" transform="translate(44.699997 -21.66875) scale(0.7)"/>
       <use xlink:href="#MinionPro-It-45" transform="translate(89.149986 -21.66875) scale(0.7)"/>
      </g>
     </g>
    </g>
   </g>
   <g id="matplotlib.axis_2">
    <g id="ytick_1">
     <g id="line2d_3">
      <path d="M 24.18 61.764281 
L 150.544717 61.764281 
" clip-path="url(#p9e7fdf2e03)" style="fill: none; stroke-dasharray: 3.7,1.6; stroke-dashoffset: 0; stroke: #eeeeee"/>
     </g>
     <g id="line2d_4"/>
     <g id="text_2">
      <!-- $F_{CE}^{data}$ -->
      <g transform="translate(0 66.604281) scale(0.11 -0.11)">
       <defs>
        <path id="MinionPro-It-46" d="M 845 4154 
L 800 3981 
C 1312 3930 1338 3910 1229 3347 
L 742 800 
C 640 256 589 218 109 173 
L 70 0 
L 1754 0 
L 1798 173 
C 1216 218 1165 262 1267 800 
L 1485 1971 
L 2150 1971 
C 2701 1971 2714 1920 2714 1453 
L 2893 1453 
L 3136 2682 
L 2957 2682 
C 2784 2266 2758 2221 2208 2221 
L 1536 2221 
L 1818 3686 
C 1862 3904 1875 3936 2093 3936 
L 2611 3936 
C 3072 3936 3181 3872 3232 3712 
C 3283 3584 3296 3366 3302 3162 
L 3488 3174 
C 3533 3546 3590 4038 3603 4154 
L 845 4154 
z
" transform="scale(0.015625)"/>
       </defs>
       <use xlink:href="#MinionPro-It-46" transform="translate(0 0.784375)"/>
       <use xlink:href="#MinionPro-It-64" transform="translate(59.167341 38.157813) scale(0.7)"/>
       <use xlink:href="#MinionPro-It-61" transform="translate(94.727332 38.157813) scale(0.7)"/>
       <use xlink:href="#MinionPro-It-74" transform="translate(129.027321 38.157813) scale(0.7)"/>
       <use xlink:href="#MinionPro-It-61" transform="translate(150.517319 38.157813) scale(0.7)"/>
       <use xlink:href="#MinionPro-It-43" transform="translate(52.699997 -21.66875) scale(0.7)"/>
       <use xlink:href="#MinionPro-It-45" transform="translate(97.149986 -21.66875) scale(0.7)"/>
      </g>
     </g>
    </g>
   </g>
   <g id="line2d_5">
    <defs>
     <path id="m1844a0e83b" d="M 0 1.5 
C 0.397805 1.5 0.77937 1.341951 1.06066 1.06066 
C 1.341951 0.77937 1.5 0.397805 1.5 0 
C 1.5 -0.397805 1.341951 -0.77937 1.06066 -1.06066 
C 0.77937 -1.341951 0.397805 -1.5 0 -1.5 
C -0.397805 -1.5 -0.77937 -1.341951 -1.06066 -1.06066 
C -1.341951 -0.77937 -1.5 -0.397805 -1.5 0 
C -1.5 0.397805 -1.341951 0.77937 -1.06066 1.06066 
C -0.77937 1.341951 -0.397805 1.5 0 1.5 
z
" style="stroke: #bfbfbf"/>
    </defs>
    <g clip-path="url(#p9e7fdf2e03)">
     <use xlink:href="#m1844a0e83b" x="49.452943" y="115.991466" style="fill: #bfbfbf; stroke: #bfbfbf"/>
    </g>
   </g>
   <g id="line2d_6">
    <path d="M 49.452943 115.991466 
L 50.916724 121.590042 
" clip-path="url(#p9e7fdf2e03)" style="fill: none; stroke-dasharray: 3.7,1.6; stroke-dashoffset: 0; stroke: #bfbfbf"/>
   </g>
   <g id="line2d_7">
    <g clip-path="url(#p9e7fdf2e03)">
     <use xlink:href="#m1844a0e83b" x="102.526124" y="112.45491" style="fill: #bfbfbf; stroke: #bfbfbf"/>
    </g>
   </g>
   <g id="line2d_8">
    <path d="M 102.526124 112.45491 
L 97.407362 104.739127 
" clip-path="url(#p9e7fdf2e03)" style="fill: none; stroke-dasharray: 3.7,1.6; stroke-dashoffset: 0; stroke: #bfbfbf"/>
   </g>
   <g id="line2d_9">
    <g clip-path="url(#p9e7fdf2e03)">
     <use xlink:href="#m1844a0e83b" x="136.644598" y="82.983614" style="fill: #bfbfbf; stroke: #bfbfbf"/>
    </g>
   </g>
   <g id="line2d_10">
    <path d="M 136.644598 82.983614 
L 126.977337 77.329942 
" clip-path="url(#p9e7fdf2e03)" style="fill: none; stroke-dasharray: 3.7,1.6; stroke-dashoffset: 0; stroke: #bfbfbf"/>
   </g>
   <g id="line2d_11">
    <g clip-path="url(#p9e7fdf2e03)">
     <use xlink:href="#m1844a0e83b" x="139.171892" y="32.292985" style="fill: #bfbfbf; stroke: #bfbfbf"/>
    </g>
   </g>
   <g id="line2d_12">
    <path d="M 139.171892 32.292985 
L 145.300161 33.692253 
" clip-path="url(#p9e7fdf2e03)" style="fill: none; stroke-dasharray: 3.7,1.6; stroke-dashoffset: 0; stroke: #bfbfbf"/>
   </g>
   <g id="line2d_13">
    <defs>
     <path id="m57751f7e79" d="M 0 1.5 
C 0.397805 1.5 0.77937 1.341951 1.06066 1.06066 
C 1.341951 0.77937 1.5 0.397805 1.5 0 
C 1.5 -0.397805 1.341951 -0.77937 1.06066 -1.06066 
C 0.77937 -1.341951 0.397805 -1.5 0 -1.5 
C -0.397805 -1.5 -0.77937 -1.341951 -1.06066 -1.06066 
C -1.341951 -0.77937 -1.5 -0.397805 -1.5 0 
C -1.5 0.397805 -1.341951 0.77937 -1.06066 1.06066 
C -0.77937 1.341951 -0.397805 1.5 0 1.5 
z
" style="stroke: #000000"/>
    </defs>
    <g clip-path="url(#p9e7fdf2e03)">
     <use xlink:href="#m57751f7e79" x="96.207889" y="61.764281" style="stroke: #000000"/>
    </g>
   </g>
   <g id="line2d_14">
    <path d="M 96.207889 61.764281 
L 124.970215 79.866541 
" clip-path="url(#p9e7fdf2e03)" style="fill: none; stroke-dasharray: 3.7,1.6; stroke-dashoffset: 0; stroke: #000000"/>
   </g>
   <g id="line2d_15">
    <path d="M 109.182983 101.704238 
L 109.502085 101.262839 
L 109.821188 100.82144 
L 110.140291 100.380041 
L 110.459394 99.938641 
L 110.778497 99.497242 
L 111.097599 99.055843 
L 111.416702 98.614444 
L 111.735805 98.173045 
L 112.054908 97.731646 
L 112.374011 97.290247 
L 112.693114 96.848848 
L 113.012216 96.407449 
L 113.331319 95.96605 
L 113.650422 95.52465 
L 113.969525 95.083251 
L 114.288628 94.641852 
L 114.60773 94.200453 
L 114.926833 93.759054 
L 115.245936 93.317655 
L 115.565039 92.876256 
L 115.884142 92.434857 
L 116.203245 91.993458 
L 116.522347 91.552058 
L 116.84145 91.110659 
L 117.160553 90.66926 
L 117.479656 90.227861 
L 117.798759 89.786462 
L 118.117862 89.345063 
L 118.436964 88.903664 
L 118.756067 88.462265 
L 119.07517 88.020866 
L 119.394273 87.579467 
L 119.713376 87.138067 
L 120.032478 86.696668 
L 120.351581 86.255269 
L 120.670684 85.81387 
L 120.989787 85.372471 
L 121.30889 84.931072 
L 121.627993 84.489673 
L 121.947095 84.048274 
L 122.266198 83.606875 
L 122.585301 83.165476 
L 122.904404 82.724076 
L 123.223507 82.282677 
L 123.542609 81.841278 
L 123.861712 81.399879 
L 124.180815 80.95848 
L 124.499918 80.517081 
L 124.819021 80.075682 
L 125.138124 79.634283 
L 125.457226 79.192884 
L 125.776329 78.751485 
L 126.095432 78.310085 
L 126.414535 77.868686 
L 126.733638 77.427287 
L 127.05274 76.985888 
L 127.371843 76.544489 
L 127.690946 76.10309 
L 128.010049 75.661691 
L 128.329152 75.220292 
L 128.648255 74.778893 
L 128.967357 74.337494 
L 129.28646 73.896094 
L 129.605563 73.454695 
L 129.924666 73.013296 
L 130.243769 72.571897 
L 130.562872 72.130498 
L 130.881974 71.689099 
L 131.201077 71.2477 
L 131.52018 70.806301 
L 131.839283 70.364902 
L 132.158386 69.923502 
L 132.477488 69.482103 
L 132.796591 69.040704 
L 133.115694 68.599305 
L 133.434797 68.157906 
L 133.7539 67.716507 
L 134.073003 67.275108 
L 134.392105 66.833709 
L 134.711208 66.39231 
L 135.030311 65.950911 
L 135.349414 65.509511 
L 135.668517 65.068112 
L 135.987619 64.626713 
L 136.306722 64.185314 
L 136.625825 63.743915 
L 136.944928 63.302516 
L 137.264031 62.861117 
L 137.583134 62.419718 
L 137.902236 61.978319 
L 138.221339 61.53692 
L 138.540442 61.09552 
L 138.859545 60.654121 
L 139.178648 60.212722 
L 139.49775 59.771323 
L 139.816853 59.329924 
L 140.135956 58.888525 
L 140.455059 58.447126 
L 140.774162 58.005727 
" clip-path="url(#p9e7fdf2e03)" style="fill: none; stroke: #808080; stroke-linecap: square"/>
   </g>
   <g id="line2d_16">
    <path d="M 113.960963 81.661108 
L 120.367654 85.693313 
L 120.367654 85.693313 
" clip-path="url(#p9e7fdf2e03)" style="fill: none; stroke: #999999; stroke-linecap: square"/>
   </g>
   <g id="line2d_17">
    <path d="M 113.960963 81.661108 
L 118.28465 75.680367 
L 118.28465 75.680367 
" clip-path="url(#p9e7fdf2e03)" style="fill: none; stroke: #808080; stroke-linecap: square"/>
   </g>
   <g id="line2d_18">
    <path d="M 24.18 126.601132 
L 34.299557 124.915205 
L 43.442511 123.17033 
L 51.730177 121.366507 
L 59.31044 119.491945 
L 66.216319 117.558434 
L 72.560717 115.554186 
L 78.39894 113.479199 
L 83.78021 111.333474 
L 88.773343 109.105221 
L 93.409651 106.794441 
L 97.718095 104.401132 
L 101.761542 101.901716 
L 105.537464 99.307983 
L 109.094154 96.596352 
L 112.45417 93.755035 
L 115.623728 90.784032 
L 118.631835 87.659762 
L 121.490204 84.370436 
L 124.217301 80.892476 
L 126.826579 77.2023 
L 129.320529 73.288121 
L 131.71443 69.114568 
L 134.012676 64.658062 
L 136.223338 59.883235 
L 138.355957 54.742927 
L 140.411697 49.201769 
L 142.394131 43.212603 
L 144.311032 36.70469 
L 146.159868 29.630872 
L 147.945365 21.90862 
L 149.668637 13.455407 
L 150.544717 8.715949 
L 150.544717 8.715949 
" clip-path="url(#p9e7fdf2e03)" style="fill: none; stroke: #000000; stroke-linecap: square"/>
   </g>
   <g id="patch_3">
    <path d="M 24.18 126.601132 
L 24.18 0.463986 
" style="fill: none; stroke: #000000; stroke-width: 0.8; stroke-linejoin: miter; stroke-linecap: square"/>
   </g>
   <g id="patch_4">
    <path d="M 24.18 126.601132 
L 150.544717 126.601132 
" style="fill: none; stroke: #000000; stroke-width: 0.8; stroke-linejoin: miter; stroke-linecap: square"/>
   </g>
   <g id="legend_1">
    <g id="line2d_19">
     <g>
      <use xlink:href="#m57751f7e79" x="35.870294" y="3.29868" style="stroke: #000000"/>
     </g>
    </g>
    <g id="text_3">
     <!-- Data -->
     <g transform="translate(45.033294 6.50573) scale(0.09163 -0.09163)">
      <defs>
       <path id="MyriadPro-Regular-44" d="M 486 13 
C 768 -19 1094 -38 1498 -38 
C 2336 -38 3002 179 3411 582 
C 3808 979 4032 1555 4032 2259 
C 4032 2957 3808 3456 3418 3808 
C 3040 4154 2470 4346 1670 4346 
C 1229 4346 826 4307 486 4250 
L 486 13 
z
M 1043 3846 
C 1190 3878 1408 3904 1696 3904 
C 2874 3904 3450 3258 3443 2240 
C 3443 1075 2803 410 1606 410 
C 1389 410 1184 416 1043 435 
L 1043 3846 
z
" transform="scale(0.015625)"/>
       <path id="MyriadPro-Regular-61" d="M 2643 1901 
C 2643 2515 2413 3162 1466 3162 
C 1075 3162 698 3053 442 2893 
L 570 2515 
C 787 2662 1088 2746 1382 2746 
C 2016 2752 2086 2285 2086 2035 
L 2086 1971 
C 890 1978 224 1568 224 819 
C 224 371 544 -70 1171 -70 
C 1613 -70 1946 147 2118 390 
L 2138 390 
L 2182 0 
L 2688 0 
C 2656 211 2643 474 2643 742 
L 2643 1901 
z
M 2099 1043 
C 2099 992 2093 928 2074 864 
C 1984 602 1722 346 1312 346 
C 1030 346 787 512 787 883 
C 787 1485 1485 1594 2099 1581 
L 2099 1043 
z
" transform="scale(0.015625)"/>
       <path id="MyriadPro-Regular-74" d="M 595 3674 
L 595 3098 
L 115 3098 
L 115 2669 
L 595 2669 
L 595 979 
C 595 614 659 339 813 166 
C 947 19 1158 -70 1421 -70 
C 1638 -70 1811 -32 1920 6 
L 1894 435 
C 1811 410 1722 397 1568 397 
C 1254 397 1146 614 1146 998 
L 1146 2669 
L 1952 2669 
L 1952 3098 
L 1146 3098 
L 1146 3840 
L 595 3674 
z
" transform="scale(0.015625)"/>
      </defs>
      <use xlink:href="#MyriadPro-Regular-44"/>
      <use xlink:href="#MyriadPro-Regular-61" transform="translate(66.599991 0)"/>
      <use xlink:href="#MyriadPro-Regular-74" transform="translate(114.799988 0)"/>
      <use xlink:href="#MyriadPro-Regular-61" transform="translate(147.899979 0)"/>
     </g>
    </g>
    <g id="line2d_20">
     <path d="M 31.288794 13.450998 
L 35.870294 13.450998 
L 40.451794 13.450998 
" style="fill: none; stroke: #000000; stroke-linecap: square"/>
    </g>
    <g id="text_4">
     <!-- Estimated -->
     <g transform="translate(45.033294 16.658048) scale(0.09163 -0.09163)">
      <defs>
       <path id="MyriadPro-Regular-45" d="M 2714 2483 
L 1043 2483 
L 1043 3846 
L 2816 3846 
L 2816 4314 
L 480 4314 
L 480 0 
L 2912 0 
L 2912 467 
L 1043 467 
L 1043 2022 
L 2714 2022 
L 2714 2483 
z
" transform="scale(0.015625)"/>
       <path id="MyriadPro-Regular-73" d="M 256 147 
C 474 19 787 -70 1126 -70 
C 1850 -70 2278 314 2278 864 
C 2278 1325 1997 1594 1466 1792 
C 1062 1952 883 2067 883 2323 
C 883 2554 1062 2746 1395 2746 
C 1683 2746 1907 2637 2029 2560 
L 2163 2970 
C 1997 3078 1722 3162 1408 3162 
C 749 3162 339 2752 339 2253 
C 339 1882 602 1581 1165 1376 
C 1574 1222 1734 1082 1734 813 
C 1734 550 1542 352 1139 352 
C 858 352 563 467 390 570 
L 256 147 
z
" transform="scale(0.015625)"/>
       <path id="MyriadPro-Regular-69" d="M 1030 0 
L 1030 3098 
L 467 3098 
L 467 0 
L 1030 0 
z
M 749 4320 
C 538 4320 397 4160 397 3968 
C 397 3776 531 3622 736 3622 
C 960 3622 1094 3776 1094 3968 
C 1094 4166 954 4320 749 4320 
z
" transform="scale(0.015625)"/>
       <path id="MyriadPro-Regular-6d" d="M 467 0 
L 1018 0 
L 1018 1862 
C 1018 1958 1030 2061 1062 2138 
C 1152 2419 1414 2701 1760 2701 
C 2189 2701 2406 2349 2406 1856 
L 2406 0 
L 2957 0 
L 2957 1914 
C 2957 2016 2976 2112 3002 2195 
C 3104 2464 3347 2701 3674 2701 
C 4122 2701 4346 2349 4346 1747 
L 4346 0 
L 4896 0 
L 4896 1818 
C 4896 2893 4288 3162 3872 3162 
C 3578 3162 3379 3085 3194 2944 
C 3066 2848 2938 2720 2842 2541 
L 2829 2541 
C 2694 2906 2374 3162 1958 3162 
C 1440 3162 1152 2886 979 2592 
L 960 2592 
L 934 3098 
L 442 3098 
C 454 2842 467 2586 467 2259 
L 467 0 
z
" transform="scale(0.015625)"/>
       <path id="MyriadPro-Regular-65" d="M 2957 1446 
C 2970 1510 2976 1594 2976 1709 
C 2976 2278 2714 3162 1696 3162 
C 794 3162 243 2432 243 1498 
C 243 563 813 -70 1766 -70 
C 2259 -70 2605 38 2803 128 
L 2701 531 
C 2496 442 2246 371 1843 371 
C 1274 371 794 685 781 1446 
L 2957 1446 
z
M 787 1850 
C 832 2240 1075 2758 1651 2758 
C 2285 2758 2438 2202 2432 1850 
L 787 1850 
z
" transform="scale(0.015625)"/>
       <path id="MyriadPro-Regular-64" d="M 2579 4544 
L 2579 2694 
L 2566 2694 
C 2426 2938 2112 3162 1632 3162 
C 883 3162 237 2534 243 1504 
C 243 563 826 -70 1574 -70 
C 2080 -70 2451 192 2618 538 
L 2637 538 
L 2662 0 
L 3162 0 
C 3149 211 3136 525 3136 800 
L 3136 4544 
L 2579 4544 
z
M 2579 1299 
C 2579 1210 2573 1133 2554 1056 
C 2451 640 2106 384 1728 384 
C 1126 384 813 902 813 1530 
C 813 2208 1158 2720 1741 2720 
C 2163 2720 2470 2426 2554 2074 
C 2573 2003 2579 1907 2579 1837 
L 2579 1299 
z
" transform="scale(0.015625)"/>
      </defs>
      <use xlink:href="#MyriadPro-Regular-45"/>
      <use xlink:href="#MyriadPro-Regular-73" transform="translate(49.199997 0)"/>
      <use xlink:href="#MyriadPro-Regular-74" transform="translate(88.799988 0)"/>
      <use xlink:href="#MyriadPro-Regular-69" transform="translate(121.899979 0)"/>
      <use xlink:href="#MyriadPro-Regular-6d" transform="translate(145.299973 0)"/>
      <use xlink:href="#MyriadPro-Regular-61" transform="translate(228.699966 0)"/>
      <use xlink:href="#MyriadPro-Regular-74" transform="translate(276.899963 0)"/>
      <use xlink:href="#MyriadPro-Regular-65" transform="translate(309.999954 0)"/>
      <use xlink:href="#MyriadPro-Regular-64" transform="translate(360.099945 0)"/>
     </g>
    </g>
   </g>
  </g>
 </g>
 <defs>
  <clipPath id="p9e7fdf2e03">
   <rect x="24.18" y="0.463986" width="126.364717" height="126.137146"/>
  </clipPath>
 </defs>
</svg>
