<?xml version="1.0" encoding="utf-8" standalone="no"?>
<!DOCTYPE svg PUBLIC "-//W3C//DTD SVG 1.1//EN"
  "http://www.w3.org/Graphics/SVG/1.1/DTD/svg11.dtd">
<svg xmlns:xlink="http://www.w3.org/1999/xlink" width="150.424717pt" height="202.062512pt" viewBox="0 0 150.424717 202.062512" xmlns="http://www.w3.org/2000/svg" version="1.1">
 <metadata>
  <rdf:RDF xmlns:dc="http://purl.org/dc/elements/1.1/" xmlns:cc="http://creativecommons.org/ns#" xmlns:rdf="http://www.w3.org/1999/02/22-rdf-syntax-ns#">
   <cc:Work>
    <dc:type rdf:resource="http://purl.org/dc/dcmitype/StillImage"/>
    <dc:date>2026-02-25T14:01:55.059686</dc:date>
    <dc:format>image/svg+xml</dc:format>
    <dc:creator>
     <cc:Agent>
      <dc:title>Matplotlib v3.10.6, https://matplotlib.org/</dc:title>
     </cc:Agent>
    </dc:creator>
   </cc:Work>
  </rdf:RDF>
 </metadata>
 <defs>
  <style type="text/css">*{stroke-linejoin: round; stroke-linecap: butt}</style>
 </defs>
 <g id="figure_1">
  <g id="patch_1">
   <path d="M 0 202.062512 
L 150.424717 202.062512 
L 150.424717 0 
L 0 0 
z
" style="fill: #ffffff"/>
  </g>
  <g id="axes_1">
   <g id="patch_2">
    <path d="M 32.272969 67.055704 
L 150.424717 67.055704 
L 150.424717 7.993828 
L 32.272969 7.993828 
z
" style="fill: #ffffff"/>
   </g>
   <g id="matplotlib.axis_1">
    <g id="xtick_1">
     <g id="line2d_1">
      <defs>
       <path id="m76e6fbe113" d="M 0 0 
L 0 3.5 
" style="stroke: #000000; stroke-width: 0.8"/>
      </defs>
      <g>
       <use xlink:href="#m76e6fbe113" x="38.836955" y="67.055704" style="stroke: #000000; stroke-width: 0.8"/>
      </g>
     </g>
     <g id="text_1">
      <!-- 36 -->
      <g transform="translate(33.194299 81.865704) scale(0.11 -0.11)">
       <defs>
        <path id="MyriadPro-Regular-33" d="M 269 211 
C 474 77 883 -70 1350 -70 
C 2342 -70 2867 512 2867 1178 
C 2861 1760 2451 2144 1939 2240 
L 1939 2253 
C 2445 2438 2707 2803 2707 3238 
C 2707 3744 2336 4230 1517 4230 
C 1069 4230 646 4070 422 3910 
L 576 3501 
C 755 3629 1075 3776 1408 3776 
C 1926 3776 2138 3482 2138 3149 
C 2138 2656 1619 2445 1210 2445 
L 896 2445 
L 896 2022 
L 1210 2022 
C 1754 2022 2278 1773 2285 1190 
C 2291 838 2061 384 1344 384 
C 947 384 582 544 422 640 
L 269 211 
z
" transform="scale(0.015625)"/>
        <path id="MyriadPro-Regular-36" d="M 2662 4224 
C 2560 4224 2419 4218 2253 4192 
C 1728 4128 1267 3917 922 3578 
C 506 3168 218 2522 218 1702 
C 218 621 800 -70 1683 -70 
C 2554 -70 3072 634 3072 1402 
C 3072 2208 2554 2746 1818 2746 
C 1357 2746 1005 2528 806 2259 
L 794 2259 
C 890 2950 1350 3590 2240 3731 
C 2400 3757 2547 3770 2662 3763 
L 2662 4224 
z
M 1696 365 
C 1101 365 781 877 774 1562 
C 774 1664 800 1741 832 1805 
C 986 2112 1306 2317 1645 2317 
C 2163 2317 2502 1958 2502 1363 
C 2502 768 2176 365 1696 365 
z
" transform="scale(0.015625)"/>
       </defs>
       <use xlink:href="#MyriadPro-Regular-33"/>
       <use xlink:href="#MyriadPro-Regular-36" transform="translate(51.299988 0)"/>
      </g>
     </g>
    </g>
    <g id="xtick_2">
     <g id="line2d_2">
      <g>
       <use xlink:href="#m76e6fbe113" x="65.092899" y="67.055704" style="stroke: #000000; stroke-width: 0.8"/>
      </g>
     </g>
     <g id="text_2">
      <!-- 38 -->
      <g transform="translate(59.450243 81.865704) scale(0.11 -0.11)">
       <defs>
        <path id="MyriadPro-Regular-38" d="M 1062 2170 
C 550 1952 237 1574 237 1050 
C 237 442 762 -70 1632 -70 
C 2426 -70 3046 410 3046 1139 
C 3046 1638 2726 2010 2208 2214 
L 2208 2234 
C 2720 2470 2899 2854 2899 3206 
C 2899 3731 2490 4230 1683 4230 
C 947 4230 390 3782 390 3123 
C 390 2765 589 2406 1056 2189 
L 1062 2170 
z
M 1645 339 
C 1114 339 794 710 813 1126 
C 813 1523 1075 1850 1562 1990 
C 2125 1830 2477 1581 2477 1082 
C 2477 653 2150 339 1645 339 
z
M 1651 3827 
C 2157 3827 2355 3482 2355 3149 
C 2355 2771 2080 2515 1722 2394 
C 1242 2522 922 2746 928 3162 
C 928 3520 1184 3827 1651 3827 
z
" transform="scale(0.015625)"/>
       </defs>
       <use xlink:href="#MyriadPro-Regular-33"/>
       <use xlink:href="#MyriadPro-Regular-38" transform="translate(51.299988 0)"/>
      </g>
     </g>
    </g>
    <g id="xtick_3">
     <g id="line2d_3">
      <g>
       <use xlink:href="#m76e6fbe113" x="91.348843" y="67.055704" style="stroke: #000000; stroke-width: 0.8"/>
      </g>
     </g>
     <g id="text_3">
      <!-- 40 -->
      <g transform="translate(85.706187 81.865704) scale(0.11 -0.11)">
       <defs>
        <path id="MyriadPro-Regular-34" d="M 2560 0 
L 2560 1139 
L 3142 1139 
L 3142 1574 
L 2560 1574 
L 2560 4160 
L 1952 4160 
L 96 1504 
L 96 1139 
L 2029 1139 
L 2029 0 
L 2560 0 
z
M 666 1574 
L 666 1587 
L 1683 3002 
C 1798 3194 1901 3373 2029 3616 
L 2048 3616 
C 2035 3398 2029 3181 2029 2963 
L 2029 1574 
L 666 1574 
z
" transform="scale(0.015625)"/>
        <path id="MyriadPro-Regular-30" d="M 1683 4230 
C 838 4230 230 3469 230 2067 
C 243 691 800 -70 1613 -70 
C 2528 -70 3059 710 3059 2125 
C 3059 3450 2554 4230 1683 4230 
z
M 1645 3795 
C 2234 3795 2490 3123 2490 2099 
C 2490 1037 2214 365 1645 365 
C 1133 365 800 979 800 2061 
C 800 3194 1158 3795 1645 3795 
z
" transform="scale(0.015625)"/>
       </defs>
       <use xlink:href="#MyriadPro-Regular-34"/>
       <use xlink:href="#MyriadPro-Regular-30" transform="translate(51.299988 0)"/>
      </g>
     </g>
    </g>
    <g id="xtick_4">
     <g id="line2d_4">
      <g>
       <use xlink:href="#m76e6fbe113" x="117.604787" y="67.055704" style="stroke: #000000; stroke-width: 0.8"/>
      </g>
     </g>
     <g id="text_4">
      <!-- 42 -->
      <g transform="translate(111.962131 81.865704) scale(0.11 -0.11)">
       <defs>
        <path id="MyriadPro-Regular-32" d="M 2944 0 
L 2944 467 
L 1082 467 
L 1082 480 
L 1408 787 
C 2285 1632 2842 2253 2842 3021 
C 2842 3616 2464 4230 1568 4230 
C 1094 4230 678 4045 397 3808 
L 576 3411 
C 768 3571 1082 3763 1459 3763 
C 2080 3763 2278 3373 2278 2950 
C 2278 2323 1792 1786 730 774 
L 288 346 
L 288 0 
L 2944 0 
z
" transform="scale(0.015625)"/>
       </defs>
       <use xlink:href="#MyriadPro-Regular-34"/>
       <use xlink:href="#MyriadPro-Regular-32" transform="translate(51.299988 0)"/>
      </g>
     </g>
    </g>
    <g id="xtick_5">
     <g id="line2d_5">
      <g>
       <use xlink:href="#m76e6fbe113" x="143.860731" y="67.055704" style="stroke: #000000; stroke-width: 0.8"/>
      </g>
     </g>
     <g id="text_5">
      <!-- 44 -->
      <g transform="translate(138.218075 81.865704) scale(0.11 -0.11)">
       <use xlink:href="#MyriadPro-Regular-34"/>
       <use xlink:href="#MyriadPro-Regular-34" transform="translate(51.299988 0)"/>
      </g>
     </g>
    </g>
    <g id="xtick_6">
     <g id="line2d_6">
      <defs>
       <path id="m408beff67c" d="M 0 0 
L 0 2 
" style="stroke: #000000; stroke-width: 0.6"/>
      </defs>
      <g>
       <use xlink:href="#m408beff67c" x="51.964927" y="67.055704" style="stroke: #000000; stroke-width: 0.6"/>
      </g>
     </g>
    </g>
    <g id="xtick_7">
     <g id="line2d_7">
      <g>
       <use xlink:href="#m408beff67c" x="78.220871" y="67.055704" style="stroke: #000000; stroke-width: 0.6"/>
      </g>
     </g>
    </g>
    <g id="xtick_8">
     <g id="line2d_8">
      <g>
       <use xlink:href="#m408beff67c" x="104.476815" y="67.055704" style="stroke: #000000; stroke-width: 0.6"/>
      </g>
     </g>
    </g>
    <g id="xtick_9">
     <g id="line2d_9">
      <g>
       <use xlink:href="#m408beff67c" x="130.732759" y="67.055704" style="stroke: #000000; stroke-width: 0.6"/>
      </g>
     </g>
    </g>
    <g id="text_6">
     <!-- $L_{MTC}$ [mm] -->
     <g transform="translate(66.653843 95.85336) scale(0.11 -0.11)">
      <defs>
       <path id="MinionPro-It-4c" d="M 3098 1062 
C 2931 742 2790 550 2650 416 
C 2490 256 2272 218 1901 218 
C 1619 218 1414 230 1325 301 
C 1222 378 1210 531 1254 762 
L 1760 3418 
C 1850 3904 1875 3936 2387 3981 
L 2426 4154 
L 826 4154 
L 787 3981 
C 1306 3936 1338 3910 1242 3418 
L 717 742 
C 621 256 576 211 83 166 
L 45 0 
L 2867 0 
C 2957 192 3200 787 3277 998 
L 3098 1062 
z
" transform="scale(0.015625)"/>
       <path id="MinionPro-It-4d" d="M 5824 4154 
L 4787 4154 
L 2790 947 
C 2534 2093 2310 3104 2093 4154 
L 1030 4154 
L 986 3981 
C 1587 3923 1626 3885 1440 3245 
L 1082 2029 
C 845 1210 723 826 621 563 
C 518 294 390 205 19 173 
L -26 0 
L 1421 0 
L 1459 173 
C 986 218 928 294 973 570 
C 998 800 1094 1146 1274 1805 
L 1734 3488 
L 1747 3488 
C 1990 2266 2195 1171 2400 26 
L 2547 26 
L 4666 3558 
L 4678 3558 
C 4538 2656 4397 1811 4256 864 
C 4166 250 4128 218 3635 173 
L 3590 0 
L 5210 0 
L 5254 173 
C 4742 218 4698 237 4781 864 
C 4890 1709 4986 2458 5126 3379 
C 5210 3910 5222 3936 5779 3981 
L 5824 4154 
z
" transform="scale(0.015625)"/>
       <path id="MinionPro-It-54" d="M 4064 4314 
C 3949 4192 3898 4154 3725 4154 
L 1318 4154 
C 1146 4154 1075 4166 1011 4314 
L 877 4314 
C 800 3962 685 3546 570 3174 
L 762 3168 
C 877 3430 979 3629 1082 3750 
C 1197 3891 1318 3936 1862 3936 
L 2195 3936 
L 1587 768 
C 1491 256 1446 211 909 173 
L 870 0 
L 2611 0 
L 2650 173 
C 2074 211 2022 250 2118 768 
L 2714 3936 
L 3104 3936 
C 3597 3936 3725 3898 3789 3744 
C 3846 3610 3866 3418 3859 3174 
L 4058 3187 
C 4096 3533 4154 4026 4205 4314 
L 4064 4314 
z
" transform="scale(0.015625)"/>
       <path id="MinionPro-It-43" d="M 3725 1114 
C 3366 557 2995 122 2349 122 
C 1491 122 1043 851 1043 1766 
C 1043 2950 1805 4032 2925 4032 
C 3565 4032 3898 3808 3930 3046 
L 4122 3066 
C 4147 3373 4154 3718 4173 4045 
C 3994 4115 3590 4250 3072 4250 
C 1600 4250 422 3264 422 1747 
C 422 550 1216 -96 2285 -96 
C 2733 -96 3187 13 3386 58 
C 3526 262 3789 774 3891 1024 
L 3725 1114 
z
" transform="scale(0.015625)"/>
       <path id="MyriadPro-Regular-20" transform="scale(0.015625)"/>
       <path id="MyriadPro-Regular-5b" d="M 1690 -717 
L 1690 -365 
L 960 -365 
L 960 4038 
L 1690 4038 
L 1690 4390 
L 518 4390 
L 518 -717 
L 1690 -717 
z
" transform="scale(0.015625)"/>
       <path id="MyriadPro-Regular-6d" d="M 467 0 
L 1018 0 
L 1018 1862 
C 1018 1958 1030 2061 1062 2138 
C 1152 2419 1414 2701 1760 2701 
C 2189 2701 2406 2349 2406 1856 
L 2406 0 
L 2957 0 
L 2957 1914 
C 2957 2016 2976 2112 3002 2195 
C 3104 2464 3347 2701 3674 2701 
C 4122 2701 4346 2349 4346 1747 
L 4346 0 
L 4896 0 
L 4896 1818 
C 4896 2893 4288 3162 3872 3162 
C 3578 3162 3379 3085 3194 2944 
C 3066 2848 2938 2720 2842 2541 
L 2829 2541 
C 2694 2906 2374 3162 1958 3162 
C 1440 3162 1152 2886 979 2592 
L 960 2592 
L 934 3098 
L 442 3098 
C 454 2842 467 2586 467 2259 
L 467 0 
z
" transform="scale(0.015625)"/>
       <path id="MyriadPro-Regular-5d" d="M 128 4390 
L 128 4038 
L 858 4038 
L 858 -365 
L 128 -365 
L 128 -717 
L 1299 -717 
L 1299 4390 
L 128 4390 
z
" transform="scale(0.015625)"/>
      </defs>
      <use xlink:href="#MinionPro-It-4c" transform="translate(0 0.40625)"/>
      <use xlink:href="#MinionPro-It-4d" transform="translate(53.199997 -13.065625) scale(0.7)"/>
      <use xlink:href="#MinionPro-It-54" transform="translate(114.519991 -13.065625) scale(0.7)"/>
      <use xlink:href="#MinionPro-It-43" transform="translate(156.729982 -13.065625) scale(0.7)"/>
      <use xlink:href="#MyriadPro-Regular-20" transform="translate(203.425284 0.40625)"/>
      <use xlink:href="#MyriadPro-Regular-5b" transform="translate(224.625281 0.40625)"/>
      <use xlink:href="#MyriadPro-Regular-6d" transform="translate(253.025275 0.40625)"/>
      <use xlink:href="#MyriadPro-Regular-6d" transform="translate(336.425269 0.40625)"/>
      <use xlink:href="#MyriadPro-Regular-5d" transform="translate(419.825262 0.40625)"/>
     </g>
    </g>
   </g>
   <g id="matplotlib.axis_2">
    <g id="ytick_1">
     <g id="line2d_10">
      <defs>
       <path id="m638285da5a" d="M 0 0 
L -3.5 0 
" style="stroke: #000000; stroke-width: 0.8"/>
      </defs>
      <g>
       <use xlink:href="#m638285da5a" x="32.272969" y="67.055704" style="stroke: #000000; stroke-width: 0.8"/>
      </g>
     </g>
     <g id="text_7">
      <!-- 0 -->
      <g transform="translate(19.630313 70.960704) scale(0.11 -0.11)">
       <use xlink:href="#MyriadPro-Regular-30"/>
      </g>
     </g>
    </g>
    <g id="ytick_2">
     <g id="line2d_11">
      <g>
       <use xlink:href="#m638285da5a" x="32.272969" y="51.30587" style="stroke: #000000; stroke-width: 0.8"/>
      </g>
     </g>
     <g id="text_8">
      <!-- 4 -->
      <g transform="translate(19.630313 55.21087) scale(0.11 -0.11)">
       <use xlink:href="#MyriadPro-Regular-34"/>
      </g>
     </g>
    </g>
    <g id="ytick_3">
     <g id="line2d_12">
      <g>
       <use xlink:href="#m638285da5a" x="32.272969" y="35.556037" style="stroke: #000000; stroke-width: 0.8"/>
      </g>
     </g>
     <g id="text_9">
      <!-- 8 -->
      <g transform="translate(19.630313 39.461037) scale(0.11 -0.11)">
       <use xlink:href="#MyriadPro-Regular-38"/>
      </g>
     </g>
    </g>
    <g id="ytick_4">
     <g id="line2d_13">
      <g>
       <use xlink:href="#m638285da5a" x="32.272969" y="19.806203" style="stroke: #000000; stroke-width: 0.8"/>
      </g>
     </g>
     <g id="text_10">
      <!-- 12 -->
      <g transform="translate(13.987656 23.711203) scale(0.11 -0.11)">
       <defs>
        <path id="MyriadPro-Regular-31" d="M 1510 0 
L 2054 0 
L 2054 4160 
L 1574 4160 
L 666 3674 
L 774 3245 
L 1498 3635 
L 1510 3635 
L 1510 0 
z
" transform="scale(0.015625)"/>
       </defs>
       <use xlink:href="#MyriadPro-Regular-31"/>
       <use xlink:href="#MyriadPro-Regular-32" transform="translate(51.299988 0)"/>
      </g>
     </g>
    </g>
    <g id="ytick_5">
     <g id="line2d_14">
      <defs>
       <path id="m0a36af60e3" d="M 0 0 
L -2 0 
" style="stroke: #000000; stroke-width: 0.6"/>
      </defs>
      <g>
       <use xlink:href="#m0a36af60e3" x="32.272969" y="59.180787" style="stroke: #000000; stroke-width: 0.6"/>
      </g>
     </g>
    </g>
    <g id="ytick_6">
     <g id="line2d_15">
      <g>
       <use xlink:href="#m0a36af60e3" x="32.272969" y="43.430953" style="stroke: #000000; stroke-width: 0.6"/>
      </g>
     </g>
    </g>
    <g id="ytick_7">
     <g id="line2d_16">
      <g>
       <use xlink:href="#m0a36af60e3" x="32.272969" y="27.68112" style="stroke: #000000; stroke-width: 0.6"/>
      </g>
     </g>
    </g>
    <g id="ytick_8">
     <g id="line2d_17">
      <g>
       <use xlink:href="#m0a36af60e3" x="32.272969" y="11.931286" style="stroke: #000000; stroke-width: 0.6"/>
      </g>
     </g>
    </g>
    <g id="text_11">
     <!-- $F_{SEE}$ [N] -->
     <g transform="translate(7.81 54.574766) rotate(-90) scale(0.11 -0.11)">
      <defs>
       <path id="MinionPro-It-46" d="M 845 4154 
L 800 3981 
C 1312 3930 1338 3910 1229 3347 
L 742 800 
C 640 256 589 218 109 173 
L 70 0 
L 1754 0 
L 1798 173 
C 1216 218 1165 262 1267 800 
L 1485 1971 
L 2150 1971 
C 2701 1971 2714 1920 2714 1453 
L 2893 1453 
L 3136 2682 
L 2957 2682 
C 2784 2266 2758 2221 2208 2221 
L 1536 2221 
L 1818 3686 
C 1862 3904 1875 3936 2093 3936 
L 2611 3936 
C 3072 3936 3181 3872 3232 3712 
C 3283 3584 3296 3366 3302 3162 
L 3488 3174 
C 3533 3546 3590 4038 3603 4154 
L 845 4154 
z
" transform="scale(0.015625)"/>
       <path id="MinionPro-It-53" d="M 243 1248 
C 256 794 256 448 262 294 
C 403 134 851 -96 1363 -96 
C 2106 -96 2758 378 2758 1120 
C 2758 1626 2458 1965 2016 2291 
L 1824 2438 
C 1491 2688 1229 2918 1229 3296 
C 1229 3686 1498 4038 1946 4038 
C 2490 4038 2662 3610 2714 3123 
L 2899 3142 
C 2906 3437 2893 3776 2912 4045 
C 2867 4064 2758 4102 2637 4147 
C 2458 4211 2240 4250 2029 4250 
C 1254 4250 730 3770 730 3104 
C 730 2573 1152 2221 1440 1990 
L 1626 1850 
C 2003 1555 2227 1306 2227 941 
C 2227 435 1907 115 1446 115 
C 749 115 480 781 416 1267 
L 243 1248 
z
" transform="scale(0.015625)"/>
       <path id="MinionPro-It-45" d="M 826 4154 
L 774 3981 
C 1299 3936 1331 3904 1235 3392 
L 723 768 
C 627 250 576 218 51 173 
L 13 0 
L 3008 0 
C 3104 198 3347 813 3418 986 
L 3238 1050 
C 3104 819 2957 582 2803 435 
C 2624 269 2438 218 1958 218 
C 1600 218 1408 230 1312 307 
C 1222 384 1216 550 1286 922 
L 1498 2042 
L 2106 2042 
C 2662 2042 2662 1997 2650 1542 
L 2835 1542 
L 3078 2758 
L 2893 2758 
C 2739 2336 2694 2291 2163 2291 
L 1542 2291 
L 1818 3674 
C 1862 3917 1875 3936 2093 3936 
L 2592 3936 
C 3066 3936 3149 3872 3213 3725 
C 3283 3597 3296 3405 3296 3162 
L 3482 3174 
C 3526 3552 3584 4038 3603 4154 
L 826 4154 
z
" transform="scale(0.015625)"/>
       <path id="MyriadPro-Regular-4e" d="M 1011 0 
L 1011 1843 
C 1011 2560 1005 3078 973 3622 
L 992 3629 
C 1203 3162 1491 2669 1792 2189 
L 3162 0 
L 3725 0 
L 3725 4314 
L 3200 4314 
L 3200 2509 
C 3200 1837 3213 1312 3264 736 
L 3245 730 
C 3046 1171 2790 1626 2477 2131 
L 1101 4314 
L 486 4314 
L 486 0 
L 1011 0 
z
" transform="scale(0.015625)"/>
      </defs>
      <use xlink:href="#MinionPro-It-46" transform="translate(0 0.40625)"/>
      <use xlink:href="#MinionPro-It-53" transform="translate(52.699997 -13.065625) scale(0.7)"/>
      <use xlink:href="#MinionPro-It-45" transform="translate(85.459988 -13.065625) scale(0.7)"/>
      <use xlink:href="#MinionPro-It-45" transform="translate(124.589984 -13.065625) scale(0.7)"/>
      <use xlink:href="#MyriadPro-Regular-20" transform="translate(165.965292 0.40625)"/>
      <use xlink:href="#MyriadPro-Regular-5b" transform="translate(187.165289 0.40625)"/>
      <use xlink:href="#MyriadPro-Regular-4e" transform="translate(215.565283 0.40625)"/>
      <use xlink:href="#MyriadPro-Regular-5d" transform="translate(281.365271 0.40625)"/>
     </g>
    </g>
   </g>
   <g id="line2d_18">
    <path d="M 32.272969 63.806223 
L 34.684229 62.607664 
L 37.095489 61.098066 
L 39.506749 59.441326 
L 41.918009 57.721277 
L 44.32927 55.955141 
L 46.74053 54.15632 
L 49.15179 52.33561 
L 51.56305 50.501951 
L 53.97431 48.662923 
L 56.38557 46.825075 
L 58.796831 44.994162 
L 61.208091 43.175306 
L 63.619351 41.373128 
L 66.030611 39.591833 
L 68.441871 37.835285 
L 70.853131 36.107061 
L 73.264392 34.410498 
L 75.675652 32.748721 
L 78.086912 31.124678 
L 80.498172 29.541163 
L 82.909432 28.000832 
L 85.320692 26.506223 
L 87.731953 25.05977 
L 90.143213 23.663815 
L 92.554473 22.320617 
L 94.965733 21.032366 
L 97.376993 19.801189 
L 99.788253 18.629159 
L 102.199514 17.518301 
L 104.610774 16.470601 
L 107.022034 15.488014 
L 109.433294 14.572467 
L 111.844554 13.725865 
L 114.255814 12.950103 
L 116.667075 12.247067 
L 119.078335 11.618642 
L 121.489595 11.066717 
L 123.900855 10.593198 
L 126.312115 10.200007 
L 128.723375 9.889094 
L 131.134636 9.662447 
L 133.545896 9.522099 
L 135.957156 9.470135 
L 138.368416 9.508712 
L 140.779676 9.640061 
L 143.190936 9.866511 
L 145.602197 10.184586 
L 148.013457 10.549814 
L 150.424717 10.952856 
" clip-path="url(#pd20ba1048d)" style="fill: none; stroke: #000000; stroke-linecap: square"/>
   </g>
   <g id="line2d_19">
    <path d="M 32.272969 64.571469 
L 34.684229 63.644056 
L 37.095489 62.484554 
L 39.506749 61.076413 
L 41.918009 59.5325 
L 44.32927 57.906193 
L 46.74053 56.212909 
L 49.15179 54.465624 
L 51.56305 52.67549 
L 53.97431 50.852267 
L 56.38557 49.004629 
L 58.796831 47.140394 
L 61.208091 45.266694 
L 63.619351 43.390101 
L 66.030611 41.516732 
L 68.441871 39.652327 
L 70.853131 37.80231 
L 73.264392 35.971847 
L 75.675652 34.16588 
L 78.086912 32.38917 
L 80.498172 30.646322 
L 82.909432 28.941815 
L 85.320692 27.280019 
L 87.731953 25.665222 
L 90.143213 24.101645 
L 92.554473 22.593458 
L 94.965733 21.144801 
L 97.376993 19.759795 
L 99.788253 18.442562 
L 102.199514 17.19724 
L 104.610774 16.027998 
L 107.022034 14.939055 
L 109.433294 13.934703 
L 111.844554 13.019319 
L 114.255814 12.197399 
L 116.667075 11.473574 
L 119.078335 10.852647 
L 121.489595 10.339625 
L 123.900855 9.939757 
L 126.312115 9.658583 
L 128.723375 9.501993 
L 131.134636 9.476291 
L 133.545896 9.588282 
L 135.957156 9.845378 
L 138.368416 10.255726 
L 140.779676 10.828382 
L 143.190936 11.573533 
L 145.602197 12.502793 
L 148.013457 13.629607 
L 150.424717 14.969821 
" clip-path="url(#pd20ba1048d)" style="fill: none; stroke: #ff0000; stroke-linecap: square"/>
   </g>
   <g id="patch_3">
    <path d="M 32.272969 67.055704 
L 32.272969 7.993828 
" style="fill: none; stroke: #000000; stroke-width: 0.8; stroke-linejoin: miter; stroke-linecap: square"/>
   </g>
   <g id="patch_4">
    <path d="M 32.272969 67.055704 
L 150.424717 67.055704 
" style="fill: none; stroke: #000000; stroke-width: 0.8; stroke-linejoin: miter; stroke-linecap: square"/>
   </g>
   <g id="text_12">
    <!-- A -->
    <g transform="translate(22.057656 7.81) scale(0.11 -0.11)">
     <defs>
      <path id="MyriadPro-Bold-41" d="M 2662 1107 
L 2995 0 
L 4051 0 
L 2707 4314 
L 1427 4314 
L 115 0 
L 1120 0 
L 1427 1107 
L 2662 1107 
z
M 1568 1837 
L 1824 2752 
C 1894 3002 1958 3328 2022 3584 
L 2035 3584 
C 2099 3328 2176 3008 2253 2752 
L 2522 1837 
L 1568 1837 
z
" transform="scale(0.015625)"/>
     </defs>
     <use xlink:href="#MyriadPro-Bold-41"/>
    </g>
   </g>
  </g>
  <g id="axes_2">
   <g id="patch_5">
    <path d="M 32.272969 171.0872 
L 150.424717 171.0872 
L 150.424717 112.025324 
L 32.272969 112.025324 
z
" style="fill: #ffffff"/>
   </g>
   <g id="matplotlib.axis_3">
    <g id="xtick_10">
     <g id="line2d_20">
      <g>
       <use xlink:href="#m76e6fbe113" x="32.272969" y="171.0872" style="stroke: #000000; stroke-width: 0.8"/>
      </g>
     </g>
     <g id="text_13">
      <!-- 0.0 -->
      <g transform="translate(25.491641 185.8972) scale(0.11 -0.11)">
       <defs>
        <path id="MyriadPro-Regular-2e" d="M 704 -70 
C 941 -70 1094 102 1094 333 
C 1094 570 941 736 717 736 
C 493 736 333 563 333 333 
C 333 102 486 -70 704 -70 
z
" transform="scale(0.015625)"/>
       </defs>
       <use xlink:href="#MyriadPro-Regular-30"/>
       <use xlink:href="#MyriadPro-Regular-2e" transform="translate(51.299988 0)"/>
       <use xlink:href="#MyriadPro-Regular-30" transform="translate(71.999985 0)"/>
      </g>
     </g>
    </g>
    <g id="xtick_11">
     <g id="line2d_21">
      <g>
       <use xlink:href="#m76e6fbe113" x="79.533668" y="171.0872" style="stroke: #000000; stroke-width: 0.8"/>
      </g>
     </g>
     <g id="text_14">
      <!-- 0.2 -->
      <g transform="translate(72.75234 185.8972) scale(0.11 -0.11)">
       <use xlink:href="#MyriadPro-Regular-30"/>
       <use xlink:href="#MyriadPro-Regular-2e" transform="translate(51.299988 0)"/>
       <use xlink:href="#MyriadPro-Regular-32" transform="translate(71.999985 0)"/>
      </g>
     </g>
    </g>
    <g id="xtick_12">
     <g id="line2d_22">
      <g>
       <use xlink:href="#m76e6fbe113" x="126.794367" y="171.0872" style="stroke: #000000; stroke-width: 0.8"/>
      </g>
     </g>
     <g id="text_15">
      <!-- 0.4 -->
      <g transform="translate(120.013039 185.8972) scale(0.11 -0.11)">
       <use xlink:href="#MyriadPro-Regular-30"/>
       <use xlink:href="#MyriadPro-Regular-2e" transform="translate(51.299988 0)"/>
       <use xlink:href="#MyriadPro-Regular-34" transform="translate(71.999985 0)"/>
      </g>
     </g>
    </g>
    <g id="xtick_13">
     <g id="line2d_23">
      <g>
       <use xlink:href="#m408beff67c" x="55.903318" y="171.0872" style="stroke: #000000; stroke-width: 0.6"/>
      </g>
     </g>
    </g>
    <g id="xtick_14">
     <g id="line2d_24">
      <g>
       <use xlink:href="#m408beff67c" x="103.164018" y="171.0872" style="stroke: #000000; stroke-width: 0.6"/>
      </g>
     </g>
    </g>
    <g id="xtick_15">
     <g id="line2d_25">
      <g>
       <use xlink:href="#m408beff67c" x="150.424717" y="171.0872" style="stroke: #000000; stroke-width: 0.6"/>
      </g>
     </g>
    </g>
    <g id="text_16">
     <!-- Time [s] -->
     <g transform="translate(73.516812 199.884856) scale(0.11 -0.11)">
      <defs>
       <path id="MyriadPro-Regular-54" d="M 1306 0 
L 1869 0 
L 1869 3840 
L 3187 3840 
L 3187 4314 
L -6 4314 
L -6 3840 
L 1306 3840 
L 1306 0 
z
" transform="scale(0.015625)"/>
       <path id="MyriadPro-Regular-69" d="M 1030 0 
L 1030 3098 
L 467 3098 
L 467 0 
L 1030 0 
z
M 749 4320 
C 538 4320 397 4160 397 3968 
C 397 3776 531 3622 736 3622 
C 960 3622 1094 3776 1094 3968 
C 1094 4166 954 4320 749 4320 
z
" transform="scale(0.015625)"/>
       <path id="MyriadPro-Regular-65" d="M 2957 1446 
C 2970 1510 2976 1594 2976 1709 
C 2976 2278 2714 3162 1696 3162 
C 794 3162 243 2432 243 1498 
C 243 563 813 -70 1766 -70 
C 2259 -70 2605 38 2803 128 
L 2701 531 
C 2496 442 2246 371 1843 371 
C 1274 371 794 685 781 1446 
L 2957 1446 
z
M 787 1850 
C 832 2240 1075 2758 1651 2758 
C 2285 2758 2438 2202 2432 1850 
L 787 1850 
z
" transform="scale(0.015625)"/>
       <path id="MyriadPro-Regular-73" d="M 256 147 
C 474 19 787 -70 1126 -70 
C 1850 -70 2278 314 2278 864 
C 2278 1325 1997 1594 1466 1792 
C 1062 1952 883 2067 883 2323 
C 883 2554 1062 2746 1395 2746 
C 1683 2746 1907 2637 2029 2560 
L 2163 2970 
C 1997 3078 1722 3162 1408 3162 
C 749 3162 339 2752 339 2253 
C 339 1882 602 1581 1165 1376 
C 1574 1222 1734 1082 1734 813 
C 1734 550 1542 352 1139 352 
C 858 352 563 467 390 570 
L 256 147 
z
" transform="scale(0.015625)"/>
      </defs>
      <use xlink:href="#MyriadPro-Regular-54"/>
      <use xlink:href="#MyriadPro-Regular-69" transform="translate(49.699997 0)"/>
      <use xlink:href="#MyriadPro-Regular-6d" transform="translate(73.099991 0)"/>
      <use xlink:href="#MyriadPro-Regular-65" transform="translate(156.499985 0)"/>
      <use xlink:href="#MyriadPro-Regular-20" transform="translate(206.599976 0)"/>
      <use xlink:href="#MyriadPro-Regular-5b" transform="translate(227.799973 0)"/>
      <use xlink:href="#MyriadPro-Regular-73" transform="translate(256.199966 0)"/>
      <use xlink:href="#MyriadPro-Regular-5d" transform="translate(295.799957 0)"/>
     </g>
    </g>
   </g>
   <g id="matplotlib.axis_4">
    <g id="ytick_9">
     <g id="line2d_26">
      <g>
       <use xlink:href="#m638285da5a" x="32.272969" y="171.0872" style="stroke: #000000; stroke-width: 0.8"/>
      </g>
     </g>
     <g id="text_17">
      <!-- 0 -->
      <g transform="translate(19.630313 174.9922) scale(0.11 -0.11)">
       <use xlink:href="#MyriadPro-Regular-30"/>
      </g>
     </g>
    </g>
    <g id="ytick_10">
     <g id="line2d_27">
      <g>
       <use xlink:href="#m638285da5a" x="32.272969" y="158.653121" style="stroke: #000000; stroke-width: 0.8"/>
      </g>
     </g>
     <g id="text_18">
      <!-- 2 -->
      <g transform="translate(19.630313 162.558121) scale(0.11 -0.11)">
       <use xlink:href="#MyriadPro-Regular-32"/>
      </g>
     </g>
    </g>
    <g id="ytick_11">
     <g id="line2d_28">
      <g>
       <use xlink:href="#m638285da5a" x="32.272969" y="146.219042" style="stroke: #000000; stroke-width: 0.8"/>
      </g>
     </g>
     <g id="text_19">
      <!-- 4 -->
      <g transform="translate(19.630313 150.124042) scale(0.11 -0.11)">
       <use xlink:href="#MyriadPro-Regular-34"/>
      </g>
     </g>
    </g>
    <g id="ytick_12">
     <g id="line2d_29">
      <g>
       <use xlink:href="#m638285da5a" x="32.272969" y="133.784963" style="stroke: #000000; stroke-width: 0.8"/>
      </g>
     </g>
     <g id="text_20">
      <!-- 6 -->
      <g transform="translate(19.630313 137.689963) scale(0.11 -0.11)">
       <use xlink:href="#MyriadPro-Regular-36"/>
      </g>
     </g>
    </g>
    <g id="ytick_13">
     <g id="line2d_30">
      <g>
       <use xlink:href="#m638285da5a" x="32.272969" y="121.350883" style="stroke: #000000; stroke-width: 0.8"/>
      </g>
     </g>
     <g id="text_21">
      <!-- 8 -->
      <g transform="translate(19.630313 125.255883) scale(0.11 -0.11)">
       <use xlink:href="#MyriadPro-Regular-38"/>
      </g>
     </g>
    </g>
    <g id="ytick_14">
     <g id="line2d_31">
      <g>
       <use xlink:href="#m0a36af60e3" x="32.272969" y="164.87016" style="stroke: #000000; stroke-width: 0.6"/>
      </g>
     </g>
    </g>
    <g id="ytick_15">
     <g id="line2d_32">
      <g>
       <use xlink:href="#m0a36af60e3" x="32.272969" y="152.436081" style="stroke: #000000; stroke-width: 0.6"/>
      </g>
     </g>
    </g>
    <g id="ytick_16">
     <g id="line2d_33">
      <g>
       <use xlink:href="#m0a36af60e3" x="32.272969" y="140.002002" style="stroke: #000000; stroke-width: 0.6"/>
      </g>
     </g>
    </g>
    <g id="ytick_17">
     <g id="line2d_34">
      <g>
       <use xlink:href="#m0a36af60e3" x="32.272969" y="127.567923" style="stroke: #000000; stroke-width: 0.6"/>
      </g>
     </g>
    </g>
    <g id="ytick_18">
     <g id="line2d_35">
      <g>
       <use xlink:href="#m0a36af60e3" x="32.272969" y="115.133844" style="stroke: #000000; stroke-width: 0.6"/>
      </g>
     </g>
    </g>
    <g id="text_22">
     <!-- $F_{SEE}$ [N] -->
     <g transform="translate(7.81 158.606262) rotate(-90) scale(0.11 -0.11)">
      <use xlink:href="#MinionPro-It-46" transform="translate(0 0.40625)"/>
      <use xlink:href="#MinionPro-It-53" transform="translate(52.699997 -13.065625) scale(0.7)"/>
      <use xlink:href="#MinionPro-It-45" transform="translate(85.459988 -13.065625) scale(0.7)"/>
      <use xlink:href="#MinionPro-It-45" transform="translate(124.589984 -13.065625) scale(0.7)"/>
      <use xlink:href="#MyriadPro-Regular-20" transform="translate(165.965292 0.40625)"/>
      <use xlink:href="#MyriadPro-Regular-5b" transform="translate(187.165289 0.40625)"/>
      <use xlink:href="#MyriadPro-Regular-4e" transform="translate(215.565283 0.40625)"/>
      <use xlink:href="#MyriadPro-Regular-5d" transform="translate(281.365271 0.40625)"/>
     </g>
    </g>
   </g>
   <g id="line2d_36">
    <path d="M 32.272969 158.949055 
L 32.509272 158.898057 
L 32.627424 158.710249 
L 32.745576 158.226796 
L 33.100031 154.466571 
L 34.517852 137.81562 
L 35.344914 130.70632 
L 36.171976 125.345386 
L 36.999039 121.349504 
L 37.826101 118.42575 
L 38.653163 116.353729 
L 39.362074 115.125564 
L 40.070984 114.311239 
L 40.779895 113.838709 
L 41.488805 113.647095 
L 42.197716 113.684547 
L 43.024778 113.95893 
L 44.088144 114.586657 
L 45.387813 115.637421 
L 47.514544 117.6919 
L 51.413552 121.465253 
L 53.540283 123.189966 
L 55.430711 124.442147 
L 57.202988 125.356392 
L 58.857112 125.975617 
L 60.511237 126.365318 
L 62.283513 126.539269 
L 65.237306 126.807645 
L 66.300672 127.128599 
L 67.127734 127.588744 
L 67.836645 128.209577 
L 68.545555 129.119445 
L 69.254466 130.402698 
L 69.963376 132.140092 
L 70.790439 134.817491 
L 71.735653 138.747844 
L 72.91717 144.7192 
L 75.398357 157.60956 
L 76.461723 162.030041 
L 77.406937 165.012321 
L 78.233999 166.929477 
L 79.061061 168.331623 
L 79.888123 169.346623 
L 80.715185 170.060785 
L 81.660399 170.568944 
L 82.723765 170.852537 
L 84.259738 170.978433 
L 87.80429 170.968355 
L 92.412209 170.770538 
L 95.011547 170.460589 
L 97.138278 170.230745 
L 103.282169 169.96211 
L 113.915827 169.679938 
L 116.633317 169.523649 
L 119.114504 169.14713 
L 121.713842 168.523652 
L 124.549484 167.60565 
L 127.739581 166.331379 
L 132.229348 164.269512 
L 138.49139 161.409995 
L 141.563336 160.25936 
L 144.162674 159.515297 
L 146.525709 159.064632 
L 148.770592 158.865577 
L 150.306565 158.88551 
L 150.306565 158.88551 
" clip-path="url(#p85596dc075)" style="fill: none; stroke: #000000; stroke-linecap: square"/>
   </g>
   <g id="line2d_37">
    <path d="M 32.272969 166.387907 
L 32.509272 166.346505 
L 32.627424 166.20396 
L 32.981879 164.807625 
L 34.872307 156.249378 
L 35.935673 152.641476 
L 36.999039 149.745258 
L 38.180556 147.183344 
L 39.362074 145.166845 
L 40.543591 143.57728 
L 41.84326 142.20693 
L 43.261081 141.043784 
L 44.915206 139.980717 
L 47.278241 138.755861 
L 54.603649 135.110634 
L 61.810906 131.166545 
L 64.528396 129.77557 
L 66.064369 129.225037 
L 67.127734 129.079065 
L 67.954797 129.195406 
L 68.663707 129.53021 
L 69.372618 130.156133 
L 70.081528 131.148832 
L 70.790439 132.576747 
L 71.617501 134.849986 
L 72.562715 138.241717 
L 73.862384 143.910831 
L 74.92575 149.399651 
L 76.698026 159.312593 
L 77.525088 162.58465 
L 78.352151 165.009595 
L 79.179213 166.765434 
L 80.006275 168.017146 
L 80.833337 168.904278 
L 81.778551 169.611844 
L 82.960069 170.20016 
L 84.259738 170.597655 
L 85.795711 170.828326 
L 88.040594 170.917414 
L 91.82145 170.82759 
L 95.129699 170.548312 
L 98.792403 170.165963 
L 105.645204 169.904975 
L 114.861041 169.743776 
L 123.249815 169.820038 
L 126.439912 169.783002 
L 129.157402 169.494581 
L 132.701955 168.875571 
L 145.462343 166.436181 
L 147.94353 166.314255 
L 150.306565 166.353007 
L 150.306565 166.353007 
" clip-path="url(#p85596dc075)" style="fill: none; stroke: #ff0000; stroke-linecap: square"/>
   </g>
   <g id="patch_6">
    <path d="M 32.272969 171.0872 
L 32.272969 112.025324 
" style="fill: none; stroke: #000000; stroke-width: 0.8; stroke-linejoin: miter; stroke-linecap: square"/>
   </g>
   <g id="patch_7">
    <path d="M 32.272969 171.0872 
L 150.424717 171.0872 
" style="fill: none; stroke: #000000; stroke-width: 0.8; stroke-linejoin: miter; stroke-linecap: square"/>
   </g>
   <g id="text_23">
    <!-- B -->
    <g transform="translate(22.628281 111.841496) scale(0.11 -0.11)">
     <defs>
      <path id="MyriadPro-Bold-42" d="M 422 19 
C 640 -13 998 -45 1478 -45 
C 2336 -45 2861 96 3174 346 
C 3443 563 3622 870 3622 1267 
C 3622 1818 3258 2195 2765 2323 
L 2765 2336 
C 3251 2522 3475 2874 3475 3251 
C 3475 3648 3264 3942 2963 4102 
C 2643 4288 2278 4346 1683 4346 
C 1190 4346 678 4301 422 4256 
L 422 19 
z
M 1389 3610 
C 1466 3622 1587 3635 1805 3635 
C 2246 3635 2496 3462 2496 3136 
C 2496 2816 2227 2605 1709 2605 
L 1389 2605 
L 1389 3610 
z
M 1389 1907 
L 1722 1907 
C 2208 1907 2598 1734 2598 1306 
C 2598 851 2208 678 1766 678 
C 1600 678 1485 678 1389 691 
L 1389 1907 
z
" transform="scale(0.015625)"/>
     </defs>
     <use xlink:href="#MyriadPro-Bold-42"/>
    </g>
   </g>
  </g>
 </g>
 <defs>
  <clipPath id="pd20ba1048d">
   <rect x="32.272969" y="7.993828" width="118.151748" height="59.061875"/>
  </clipPath>
  <clipPath id="p85596dc075">
   <rect x="32.272969" y="112.025324" width="118.151748" height="59.061875"/>
  </clipPath>
 </defs>
</svg>
