<?xml version="1.0" encoding="utf-8" standalone="no"?>
<!DOCTYPE svg PUBLIC "-//W3C//DTD SVG 1.1//EN"
  "http://www.w3.org/Graphics/SVG/1.1/DTD/svg11.dtd">
<svg xmlns:xlink="http://www.w3.org/1999/xlink" width="451.275111pt" height="135.353851pt" viewBox="0 0 451.275111 135.353851" xmlns="http://www.w3.org/2000/svg" version="1.1">
 <metadata>
  <rdf:RDF xmlns:dc="http://purl.org/dc/elements/1.1/" xmlns:cc="http://creativecommons.org/ns#" xmlns:rdf="http://www.w3.org/1999/02/22-rdf-syntax-ns#">
   <cc:Work>
    <dc:type rdf:resource="http://purl.org/dc/dcmitype/StillImage"/>
    <dc:date>2026-02-25T13:38:10.654265</dc:date>
    <dc:format>image/svg+xml</dc:format>
    <dc:creator>
     <cc:Agent>
      <dc:title>Matplotlib v3.10.6, https://matplotlib.org/</dc:title>
     </cc:Agent>
    </dc:creator>
   </cc:Work>
  </rdf:RDF>
 </metadata>
 <defs>
  <style type="text/css">*{stroke-linejoin: round; stroke-linecap: butt}</style>
 </defs>
 <g id="figure_1">
  <g id="patch_1">
   <path d="M 0 135.353851 
L 451.275111 135.353851 
L 451.275111 0 
L 0 0 
z
" style="fill: #ffffff"/>
  </g>
  <g id="axes_1">
   <g id="line2d_1">
    <path d="M 13.987656 18.046842 
L 89.274421 18.046842 
L 92.285891 26.520527 
L 149.353259 26.520527 
L 149.353259 26.520527 
" clip-path="url(#pce1b1ab9ac)" style="fill: none; stroke: #000000; stroke-linecap: square"/>
   </g>
   <g id="text_1">
    <!-- QR -->
    <g transform="translate(74.921786 7.81) scale(0.11 -0.11)">
     <defs>
      <path id="MyriadPro-Regular-51" d="M 4205 -166 
C 3840 -102 3373 0 2944 109 
L 2944 134 
C 3661 390 4173 1094 4173 2208 
C 4173 3482 3411 4390 2234 4390 
C 1069 4390 230 3501 230 2118 
C 230 723 1101 -32 2131 -70 
C 2214 -70 2298 -102 2394 -134 
C 2893 -307 3462 -480 4045 -634 
L 4205 -166 
z
M 2202 384 
C 1318 384 819 1210 819 2131 
C 819 3066 1280 3936 2221 3936 
C 3136 3936 3584 3046 3584 2176 
C 3584 1197 3085 384 2202 384 
z
" transform="scale(0.015625)"/>
      <path id="MyriadPro-Regular-52" d="M 486 0 
L 1043 0 
L 1043 1869 
L 1568 1869 
C 2074 1850 2310 1626 2438 1030 
C 2554 493 2650 128 2720 0 
L 3296 0 
C 3206 166 3104 582 2963 1184 
C 2861 1632 2662 1939 2336 2054 
L 2336 2074 
C 2784 2227 3142 2605 3142 3168 
C 3142 3507 3014 3802 2803 3994 
C 2541 4230 2150 4346 1555 4346 
C 1178 4346 768 4307 486 4256 
L 486 0 
z
M 1043 3866 
C 1139 3891 1325 3910 1594 3910 
C 2182 3910 2586 3667 2586 3110 
C 2586 2618 2208 2291 1613 2291 
L 1043 2291 
L 1043 3866 
z
" transform="scale(0.015625)"/>
     </defs>
     <use xlink:href="#MyriadPro-Regular-51"/>
     <use xlink:href="#MyriadPro-Regular-52" transform="translate(68.899994 0)"/>
    </g>
   </g>
  </g>
  <g id="axes_2">
   <g id="line2d_2">
    <path d="M 164.998426 14.580335 
L 232.816593 14.661934 
L 235.65927 16.285012 
L 286.692102 29.987034 
L 286.692102 29.987034 
" clip-path="url(#p7398d624ce)" style="fill: none; stroke: #000000; stroke-linecap: square"/>
   </g>
   <g id="text_2">
    <!-- SR -->
    <g transform="translate(227.011071 7.81) scale(0.11 -0.11)">
     <defs>
      <path id="MyriadPro-Regular-53" d="M 269 211 
C 499 58 954 -70 1370 -70 
C 2387 -70 2874 512 2874 1178 
C 2874 1811 2509 2163 1779 2445 
C 1184 2675 922 2874 922 3277 
C 922 3571 1146 3923 1734 3923 
C 2125 3923 2413 3802 2547 3718 
L 2701 4173 
C 2515 4282 2189 4384 1754 4384 
C 915 4384 358 3885 358 3213 
C 358 2611 794 2240 1498 1984 
C 2080 1766 2310 1530 2310 1133 
C 2310 698 1978 397 1408 397 
C 1024 397 666 518 416 678 
L 269 211 
z
" transform="scale(0.015625)"/>
     </defs>
     <use xlink:href="#MyriadPro-Regular-53"/>
     <use xlink:href="#MyriadPro-Regular-52" transform="translate(49.299988 0)"/>
    </g>
   </g>
  </g>
  <g id="axes_3">
   <g id="line2d_3">
    <path d="M 315.909508 22.283684 
L 451.275111 22.283684 
L 451.275111 22.283684 
" clip-path="url(#pff490eb15e)" style="fill: none; stroke: #000000; stroke-linecap: square"/>
   </g>
   <g id="text_3">
    <!-- ISOM -->
    <g transform="translate(371.35395 7.81) scale(0.11 -0.11)">
     <defs>
      <path id="MyriadPro-Regular-49" d="M 480 4314 
L 480 0 
L 1043 0 
L 1043 4314 
L 480 4314 
z
" transform="scale(0.015625)"/>
      <path id="MyriadPro-Regular-4f" d="M 2227 4390 
C 1075 4390 230 3494 230 2125 
C 230 819 1024 -70 2170 -70 
C 3270 -70 4173 723 4173 2202 
C 4173 3488 3411 4390 2227 4390 
z
M 2208 3936 
C 3136 3936 3584 3040 3584 2176 
C 3584 1197 3085 384 2202 384 
C 1318 384 819 1210 819 2138 
C 819 3078 1280 3936 2208 3936 
z
" transform="scale(0.015625)"/>
      <path id="MyriadPro-Regular-4d" d="M 4224 0 
L 4774 0 
L 4506 4314 
L 3795 4314 
L 3027 2227 
C 2835 1683 2682 1210 2566 774 
L 2554 774 
C 2438 1222 2298 1696 2118 2227 
L 1382 4314 
L 672 4314 
L 371 0 
L 902 0 
L 1018 1850 
C 1056 2502 1088 3219 1101 3757 
L 1114 3757 
C 1235 3245 1402 2694 1606 2080 
L 2310 26 
L 2733 26 
L 3494 2118 
C 3712 2714 3885 3258 4038 3757 
L 4051 3757 
C 4051 3226 4090 2496 4122 1894 
L 4224 0 
z
" transform="scale(0.015625)"/>
     </defs>
     <use xlink:href="#MyriadPro-Regular-49"/>
     <use xlink:href="#MyriadPro-Regular-53" transform="translate(23.899994 0)"/>
     <use xlink:href="#MyriadPro-Regular-4f" transform="translate(73.199982 0)"/>
     <use xlink:href="#MyriadPro-Regular-4d" transform="translate(142.099976 0)"/>
    </g>
   </g>
  </g>
  <g id="axes_4">
   <g id="patch_2">
    <path d="M 29.045009 39.58241 
L 29.045009 36.757849 
L 119.389126 36.757849 
L 119.389126 39.58241 
" clip-path="url(#pe436ea7388)"/>
   </g>
  </g>
  <g id="axes_5">
   <g id="patch_3">
    <path d="M 178.534986 39.58241 
L 178.534986 36.757849 
L 259.754348 36.757849 
L 259.754348 39.58241 
" clip-path="url(#p176d694137)"/>
   </g>
  </g>
  <g id="axes_6">
   <g id="patch_4">
    <path d="M 347.463262 39.58241 
L 347.463262 36.757849 
L 388.483141 36.757849 
L 388.483141 39.58241 
" clip-path="url(#p25f4223e0f)"/>
   </g>
  </g>
  <g id="axes_7">
   <g id="patch_5">
    <path d="M 13.987656 121.366194 
L 149.353259 121.366194 
L 149.353259 53.576719 
L 13.987656 53.576719 
z
" style="fill: #ffffff"/>
   </g>
   <g id="matplotlib.axis_1">
    <g id="text_4">
     <!-- Time -->
     <g transform="translate(70.306942 133.176194) scale(0.11 -0.11)">
      <defs>
       <path id="MyriadPro-Regular-54" d="M 1306 0 
L 1869 0 
L 1869 3840 
L 3187 3840 
L 3187 4314 
L -6 4314 
L -6 3840 
L 1306 3840 
L 1306 0 
z
" transform="scale(0.015625)"/>
       <path id="MyriadPro-Regular-69" d="M 1030 0 
L 1030 3098 
L 467 3098 
L 467 0 
L 1030 0 
z
M 749 4320 
C 538 4320 397 4160 397 3968 
C 397 3776 531 3622 736 3622 
C 960 3622 1094 3776 1094 3968 
C 1094 4166 954 4320 749 4320 
z
" transform="scale(0.015625)"/>
       <path id="MyriadPro-Regular-6d" d="M 467 0 
L 1018 0 
L 1018 1862 
C 1018 1958 1030 2061 1062 2138 
C 1152 2419 1414 2701 1760 2701 
C 2189 2701 2406 2349 2406 1856 
L 2406 0 
L 2957 0 
L 2957 1914 
C 2957 2016 2976 2112 3002 2195 
C 3104 2464 3347 2701 3674 2701 
C 4122 2701 4346 2349 4346 1747 
L 4346 0 
L 4896 0 
L 4896 1818 
C 4896 2893 4288 3162 3872 3162 
C 3578 3162 3379 3085 3194 2944 
C 3066 2848 2938 2720 2842 2541 
L 2829 2541 
C 2694 2906 2374 3162 1958 3162 
C 1440 3162 1152 2886 979 2592 
L 960 2592 
L 934 3098 
L 442 3098 
C 454 2842 467 2586 467 2259 
L 467 0 
z
" transform="scale(0.015625)"/>
       <path id="MyriadPro-Regular-65" d="M 2957 1446 
C 2970 1510 2976 1594 2976 1709 
C 2976 2278 2714 3162 1696 3162 
C 794 3162 243 2432 243 1498 
C 243 563 813 -70 1766 -70 
C 2259 -70 2605 38 2803 128 
L 2701 531 
C 2496 442 2246 371 1843 371 
C 1274 371 794 685 781 1446 
L 2957 1446 
z
M 787 1850 
C 832 2240 1075 2758 1651 2758 
C 2285 2758 2438 2202 2432 1850 
L 787 1850 
z
" transform="scale(0.015625)"/>
      </defs>
      <use xlink:href="#MyriadPro-Regular-54"/>
      <use xlink:href="#MyriadPro-Regular-69" transform="translate(49.699997 0)"/>
      <use xlink:href="#MyriadPro-Regular-6d" transform="translate(73.099991 0)"/>
      <use xlink:href="#MyriadPro-Regular-65" transform="translate(156.499985 0)"/>
     </g>
    </g>
   </g>
   <g id="matplotlib.axis_2">
    <g id="text_5">
     <!-- $F_{SEE}$ -->
     <g transform="translate(7.81 96.601457) rotate(-90) scale(0.11 -0.11)">
      <defs>
       <path id="MinionPro-It-46" d="M 845 4154 
L 800 3981 
C 1312 3930 1338 3910 1229 3347 
L 742 800 
C 640 256 589 218 109 173 
L 70 0 
L 1754 0 
L 1798 173 
C 1216 218 1165 262 1267 800 
L 1485 1971 
L 2150 1971 
C 2701 1971 2714 1920 2714 1453 
L 2893 1453 
L 3136 2682 
L 2957 2682 
C 2784 2266 2758 2221 2208 2221 
L 1536 2221 
L 1818 3686 
C 1862 3904 1875 3936 2093 3936 
L 2611 3936 
C 3072 3936 3181 3872 3232 3712 
C 3283 3584 3296 3366 3302 3162 
L 3488 3174 
C 3533 3546 3590 4038 3603 4154 
L 845 4154 
z
" transform="scale(0.015625)"/>
       <path id="MinionPro-It-53" d="M 243 1248 
C 256 794 256 448 262 294 
C 403 134 851 -96 1363 -96 
C 2106 -96 2758 378 2758 1120 
C 2758 1626 2458 1965 2016 2291 
L 1824 2438 
C 1491 2688 1229 2918 1229 3296 
C 1229 3686 1498 4038 1946 4038 
C 2490 4038 2662 3610 2714 3123 
L 2899 3142 
C 2906 3437 2893 3776 2912 4045 
C 2867 4064 2758 4102 2637 4147 
C 2458 4211 2240 4250 2029 4250 
C 1254 4250 730 3770 730 3104 
C 730 2573 1152 2221 1440 1990 
L 1626 1850 
C 2003 1555 2227 1306 2227 941 
C 2227 435 1907 115 1446 115 
C 749 115 480 781 416 1267 
L 243 1248 
z
" transform="scale(0.015625)"/>
       <path id="MinionPro-It-45" d="M 826 4154 
L 774 3981 
C 1299 3936 1331 3904 1235 3392 
L 723 768 
C 627 250 576 218 51 173 
L 13 0 
L 3008 0 
C 3104 198 3347 813 3418 986 
L 3238 1050 
C 3104 819 2957 582 2803 435 
C 2624 269 2438 218 1958 218 
C 1600 218 1408 230 1312 307 
C 1222 384 1216 550 1286 922 
L 1498 2042 
L 2106 2042 
C 2662 2042 2662 1997 2650 1542 
L 2835 1542 
L 3078 2758 
L 2893 2758 
C 2739 2336 2694 2291 2163 2291 
L 1542 2291 
L 1818 3674 
C 1862 3917 1875 3936 2093 3936 
L 2592 3936 
C 3066 3936 3149 3872 3213 3725 
C 3283 3597 3296 3405 3296 3162 
L 3482 3174 
C 3526 3552 3584 4038 3603 4154 
L 826 4154 
z
" transform="scale(0.015625)"/>
      </defs>
      <use xlink:href="#MinionPro-It-46" transform="translate(0 0.09375)"/>
      <use xlink:href="#MinionPro-It-53" transform="translate(52.699997 -13.378125) scale(0.7)"/>
      <use xlink:href="#MinionPro-It-45" transform="translate(85.459988 -13.378125) scale(0.7)"/>
      <use xlink:href="#MinionPro-It-45" transform="translate(124.589984 -13.378125) scale(0.7)"/>
     </g>
    </g>
   </g>
   <g id="line2d_4">
    <path d="M 13.987656 106.051991 
L 29.797877 105.982981 
L 30.099024 105.735378 
L 30.400171 105.037577 
L 31.002465 102.646194 
L 32.658774 94.431286 
L 34.013936 88.324321 
L 35.218524 83.824683 
L 36.423112 80.120645 
L 37.6277 77.078408 
L 38.832288 74.574636 
L 40.18745 72.275506 
L 41.542612 70.414653 
L 42.897774 68.902974 
L 44.403509 67.548972 
L 46.059818 66.371316 
L 47.8667 65.374707 
L 49.824156 64.552914 
L 52.082759 63.851924 
L 54.793083 63.260497 
L 57.955127 62.803966 
L 62.020612 62.448647 
L 67.591832 62.196949 
L 76.475671 62.043523 
L 89.274421 61.989962 
L 90.479009 65.811669 
L 91.683597 68.882508 
L 92.285891 70.178739 
L 93.641053 68.784526 
L 95.146788 67.559914 
L 96.803097 66.515871 
L 98.609979 65.650402 
L 100.718009 64.906571 
L 103.127185 64.306742 
L 105.988082 63.830394 
L 109.601847 63.461366 
L 114.570773 63.193709 
L 120.744288 63.076089 
L 123.002891 63.231192 
L 124.508626 63.535086 
L 125.562641 63.943885 
L 126.466082 64.528636 
L 127.21895 65.297855 
L 127.821244 66.21186 
L 128.423538 67.527717 
L 129.025832 69.379767 
L 129.7787 72.461866 
L 131.435009 80.578783 
L 133.091317 88.300688 
L 134.295906 92.958416 
L 135.34992 96.221648 
L 136.403935 98.779424 
L 137.45795 100.747583 
L 138.511964 102.230611 
L 139.565979 103.321732 
L 140.619994 104.108586 
L 141.824582 104.733035 
L 143.179744 105.192081 
L 144.986626 105.552619 
L 147.546376 105.801211 
L 149.353259 105.886798 
L 149.353259 105.886798 
" clip-path="url(#pa617b92012)" style="fill: none; stroke: #000000; stroke-linecap: square"/>
   </g>
   <g id="line2d_5">
    <defs>
     <path id="mca8ec58117" d="M 0 2 
C 0.530406 2 1.03916 1.789267 1.414214 1.414214 
C 1.789267 1.03916 2 0.530406 2 0 
C 2 -0.530406 1.789267 -1.03916 1.414214 -1.414214 
C 1.03916 -1.789267 0.530406 -2 0 -2 
C -0.530406 -2 -1.03916 -1.789267 -1.414214 -1.414214 
C -1.789267 -1.03916 -2 -0.530406 -2 0 
C -2 0.530406 -1.789267 1.03916 -1.414214 1.414214 
C -1.03916 1.789267 -0.530406 2 0 2 
z
" style="stroke: #ff7f0e"/>
    </defs>
    <g clip-path="url(#pa617b92012)">
     <use xlink:href="#mca8ec58117" x="21.516333" y="106.051991" style="fill: #ff7f0e; stroke: #ff7f0e"/>
    </g>
   </g>
   <g id="line2d_6">
    <defs>
     <path id="mc7980eb949" d="M 0 2 
C 0.530406 2 1.03916 1.789267 1.414214 1.414214 
C 1.789267 1.03916 2 0.530406 2 0 
C 2 -0.530406 1.789267 -1.03916 1.414214 -1.414214 
C 1.03916 -1.789267 0.530406 -2 0 -2 
C -0.530406 -2 -1.03916 -1.789267 -1.414214 -1.414214 
C -1.789267 -1.03916 -2 -0.530406 -2 0 
C -2 0.530406 -1.789267 1.03916 -1.414214 1.414214 
C -1.03916 1.789267 -0.530406 2 0 2 
z
" style="stroke: #000000"/>
    </defs>
    <g clip-path="url(#pa617b92012)">
     <use xlink:href="#mc7980eb949" x="89.123847" y="61.990189" style="stroke: #000000"/>
    </g>
   </g>
   <g id="line2d_7">
    <defs>
     <path id="m44ab320e3b" d="M 0 2 
C 0.530406 2 1.03916 1.789267 1.414214 1.414214 
C 1.789267 1.03916 2 0.530406 2 0 
C 2 -0.530406 1.789267 -1.03916 1.414214 -1.414214 
C 1.03916 -1.789267 0.530406 -2 0 -2 
C -0.530406 -2 -1.03916 -1.789267 -1.414214 -1.414214 
C -1.789267 -1.03916 -2 -0.530406 -2 0 
C -2 0.530406 -1.789267 1.03916 -1.414214 1.414214 
C -1.03916 1.789267 -0.530406 2 0 2 
z
" style="stroke: #2ca02c"/>
    </defs>
    <g clip-path="url(#pa617b92012)">
     <use xlink:href="#m44ab320e3b" x="92.436465" y="70.007804" style="fill: #2ca02c; stroke: #2ca02c"/>
    </g>
   </g>
   <g id="patch_6">
    <path d="M 13.987656 121.366194 
L 13.987656 53.576719 
" style="fill: none; stroke: #000000; stroke-width: 0.8; stroke-linejoin: miter; stroke-linecap: square"/>
   </g>
   <g id="patch_7">
    <path d="M 13.987656 121.366194 
L 149.353259 121.366194 
" style="fill: none; stroke: #000000; stroke-width: 0.8; stroke-linejoin: miter; stroke-linecap: square"/>
   </g>
   <g id="patch_8">
    <path d="M 46.125399 118.105717 
Q 34.957262 117.760984 24.665147 109.217043 
" style="fill: none; stroke: #000000; stroke-width: 0.5; stroke-linecap: round"/>
    <path d="M 26.645407 113.720216 
L 24.665147 109.217043 
L 29.455841 110.334739 
" style="fill: none; stroke: #000000; stroke-width: 0.5; stroke-linecap: round"/>
   </g>
   <g id="text_6">
    <!-- $F_{SEE}^{MIN,data}$ -->
    <g style="fill: #ff7f0e" transform="translate(50.125303 113.83403) scale(0.11 -0.11)">
     <defs>
      <path id="MinionPro-It-4d" d="M 5824 4154 
L 4787 4154 
L 2790 947 
C 2534 2093 2310 3104 2093 4154 
L 1030 4154 
L 986 3981 
C 1587 3923 1626 3885 1440 3245 
L 1082 2029 
C 845 1210 723 826 621 563 
C 518 294 390 205 19 173 
L -26 0 
L 1421 0 
L 1459 173 
C 986 218 928 294 973 570 
C 998 800 1094 1146 1274 1805 
L 1734 3488 
L 1747 3488 
C 1990 2266 2195 1171 2400 26 
L 2547 26 
L 4666 3558 
L 4678 3558 
C 4538 2656 4397 1811 4256 864 
C 4166 250 4128 218 3635 173 
L 3590 0 
L 5210 0 
L 5254 173 
C 4742 218 4698 237 4781 864 
C 4890 1709 4986 2458 5126 3379 
C 5210 3910 5222 3936 5779 3981 
L 5824 4154 
z
" transform="scale(0.015625)"/>
      <path id="MinionPro-It-49" d="M 2432 4154 
L 800 4154 
L 762 3981 
C 1293 3936 1338 3904 1248 3430 
L 723 742 
C 634 256 589 211 90 173 
L 45 0 
L 1683 0 
L 1722 173 
C 1197 211 1158 250 1254 742 
L 1766 3430 
C 1862 3898 1888 3936 2394 3981 
L 2432 4154 
z
" transform="scale(0.015625)"/>
      <path id="MinionPro-It-4e" d="M 4902 4154 
L 3462 4154 
L 3418 3981 
C 3891 3949 3994 3885 3974 3590 
C 3962 3411 3917 3085 3802 2490 
L 3507 896 
L 3482 896 
L 1594 4154 
L 678 4154 
L 640 3981 
C 992 3962 1101 3923 1178 3789 
C 1261 3648 1286 3552 1216 3232 
L 883 1651 
C 762 1062 691 774 621 544 
C 538 269 390 192 58 173 
L 13 0 
L 1478 0 
L 1517 173 
C 1075 205 960 269 973 563 
C 986 774 1030 1088 1139 1638 
L 1472 3341 
L 1491 3341 
L 3386 -51 
L 3578 -51 
L 4064 2490 
C 4173 3085 4256 3418 4307 3578 
C 4390 3859 4480 3962 4864 3981 
L 4902 4154 
z
" transform="scale(0.015625)"/>
      <path id="MinionPro-Subh-2c" d="M 570 774 
C 422 774 282 678 282 531 
C 282 435 320 397 346 390 
C 563 346 736 198 736 -26 
C 736 -269 563 -442 275 -557 
L 320 -691 
C 691 -576 1094 -326 1094 128 
C 1094 538 774 774 570 774 
z
" transform="scale(0.015625)"/>
      <path id="MinionPro-It-64" d="M 3008 717 
C 2835 544 2630 403 2554 403 
C 2509 403 2502 461 2528 608 
C 2752 1856 3021 3098 3322 4378 
C 3347 4506 3334 4557 3277 4557 
C 3181 4557 2835 4390 2298 4333 
L 2278 4173 
L 2483 4173 
C 2765 4173 2784 4147 2726 3853 
L 2515 2803 
C 2362 2867 2227 2874 2138 2874 
C 1837 2874 1306 2643 1005 2381 
C 538 1978 262 1293 262 691 
C 262 179 467 -77 678 -77 
C 858 -77 1062 26 1299 218 
C 1523 390 1856 672 2144 1056 
L 2157 1062 
L 2042 518 
C 1939 26 2029 -77 2157 -77 
C 2342 -77 2758 166 3098 570 
L 3008 717 
z
M 992 339 
C 883 339 794 486 794 813 
C 794 1350 1050 2157 1478 2464 
C 1587 2547 1728 2598 1920 2598 
C 2112 2598 2342 2522 2438 2432 
L 2234 1517 
C 2022 1133 1318 339 992 339 
z
" transform="scale(0.015625)"/>
      <path id="MinionPro-It-61" d="M 2906 742 
C 2714 557 2496 403 2438 403 
C 2406 403 2387 461 2426 678 
C 2573 1491 2765 2362 2867 2758 
L 2854 2784 
C 2784 2784 2694 2803 2611 2822 
C 2470 2854 2342 2874 2214 2874 
C 1811 2874 1344 2650 1018 2381 
C 550 1990 250 1286 250 640 
C 250 134 454 -77 621 -77 
C 794 -77 1005 38 1216 211 
C 1491 435 1798 742 2042 1094 
L 2061 1094 
L 1933 486 
C 1837 19 1920 -77 2042 -77 
C 2202 -77 2630 160 2982 589 
L 2906 742 
z
M 954 333 
C 858 333 781 467 781 755 
C 781 1389 1037 2138 1472 2458 
C 1587 2541 1760 2592 1933 2592 
C 2099 2592 2266 2547 2355 2502 
C 2317 2298 2221 1837 2144 1587 
C 1933 1139 1203 333 954 333 
z
" transform="scale(0.015625)"/>
      <path id="MinionPro-It-74" d="M 2163 2758 
L 1414 2758 
L 1645 3725 
L 1581 3763 
L 1101 3360 
L 954 2758 
L 563 2758 
L 403 2560 
L 422 2502 
L 896 2502 
L 525 768 
C 378 109 506 -77 653 -77 
C 992 -77 1478 352 1690 608 
L 1594 742 
C 1440 582 1133 371 1024 371 
C 954 371 915 442 986 755 
L 1357 2509 
L 1997 2534 
L 2163 2758 
z
" transform="scale(0.015625)"/>
     </defs>
     <use xlink:href="#MinionPro-It-46" transform="translate(0 0.06875)"/>
     <use xlink:href="#MinionPro-It-4d" transform="translate(59.167341 44.157813) scale(0.7)"/>
     <use xlink:href="#MinionPro-It-49" transform="translate(120.487334 44.157813) scale(0.7)"/>
     <use xlink:href="#MinionPro-It-4e" transform="translate(143.937324 44.157813) scale(0.7)"/>
     <use xlink:href="#MinionPro-Subh-2c" transform="translate(193.287313 44.157813) scale(0.7)"/>
     <use xlink:href="#MinionPro-It-64" transform="translate(219.145308 44.157813) scale(0.7)"/>
     <use xlink:href="#MinionPro-It-61" transform="translate(254.7053 44.157813) scale(0.7)"/>
     <use xlink:href="#MinionPro-It-74" transform="translate(289.005289 44.157813) scale(0.7)"/>
     <use xlink:href="#MinionPro-It-61" transform="translate(310.495287 44.157813) scale(0.7)"/>
     <use xlink:href="#MinionPro-It-53" transform="translate(52.699997 -22.384375) scale(0.7)"/>
     <use xlink:href="#MinionPro-It-45" transform="translate(85.459988 -22.384375) scale(0.7)"/>
     <use xlink:href="#MinionPro-It-45" transform="translate(124.589984 -22.384375) scale(0.7)"/>
    </g>
   </g>
   <g id="patch_9">
    <path d="M 83.538548 73.959905 
Q 85.962334 70.332171 87.244236 65.966702 
" style="fill: none; stroke: #000000; stroke-width: 0.5; stroke-linecap: round"/>
    <path d="M 83.893664 69.5686 
L 87.244236 65.966702 
L 88.115411 70.808298 
" style="fill: none; stroke: #000000; stroke-width: 0.5; stroke-linecap: round"/>
   </g>
   <g id="text_7">
    <!-- $F_{SEE}^{QR-,data}$ -->
    <g transform="translate(40.940318 88.352763) scale(0.11 -0.11)">
     <defs>
      <path id="MinionPro-It-51" d="M 4243 -890 
C 3827 -698 3290 -397 2822 -58 
L 2739 0 
C 3750 288 4454 1286 4454 2413 
C 4454 3494 3776 4250 2752 4250 
C 1414 4250 422 3059 422 1709 
C 422 691 1043 -19 1978 -83 
L 2067 -147 
C 2822 -678 3245 -870 3437 -922 
C 3597 -966 3923 -1024 4192 -1030 
L 4243 -890 
z
M 1926 147 
C 1338 275 1030 890 1030 1651 
C 1030 2784 1709 4032 2701 4032 
C 3533 4032 3846 3328 3846 2477 
C 3846 1530 3354 371 2528 147 
C 2477 186 2426 224 2374 256 
L 1926 147 
z
" transform="scale(0.015625)"/>
      <path id="MinionPro-It-52" d="M 3744 109 
C 3584 160 3456 218 3309 416 
C 3174 595 3059 800 2912 1088 
C 2765 1376 2598 1766 2528 1946 
C 3040 2125 3520 2522 3520 3168 
C 3520 3552 3360 3808 3136 3955 
C 2918 4109 2579 4154 2234 4154 
L 845 4154 
L 800 3981 
C 1312 3936 1338 3910 1235 3386 
L 742 813 
C 634 250 595 224 102 173 
L 64 0 
L 1670 0 
L 1709 173 
C 1190 218 1152 250 1261 813 
L 1446 1818 
L 1715 1818 
C 1946 1818 2029 1766 2131 1523 
C 2266 1197 2400 890 2566 576 
C 2797 147 3014 -19 3622 -51 
L 3686 -51 
L 3744 109 
z
M 1485 2022 
L 1786 3610 
C 1818 3776 1850 3853 1907 3891 
C 1965 3936 2067 3955 2195 3955 
C 2662 3955 2950 3674 2950 3117 
C 2950 2720 2758 2374 2470 2182 
C 2285 2061 2061 2022 1786 2022 
L 1485 2022 
z
" transform="scale(0.015625)"/>
      <path id="MinionPro-Subh-2212" d="M 3213 1414 
L 3213 1696 
L 301 1696 
L 301 1414 
L 3213 1414 
z
" transform="scale(0.015625)"/>
     </defs>
     <use xlink:href="#MinionPro-It-46" transform="translate(0 0.360938)"/>
     <use xlink:href="#MinionPro-It-51" transform="translate(59.167341 48.157813) scale(0.7)"/>
     <use xlink:href="#MinionPro-It-52" transform="translate(108.797336 48.157813) scale(0.7)"/>
     <use xlink:href="#MinionPro-Subh-2212" transform="translate(161.74533 48.157813) scale(0.7)"/>
     <use xlink:href="#MinionPro-Subh-2c" transform="translate(211.123318 48.157813) scale(0.7)"/>
     <use xlink:href="#MinionPro-It-64" transform="translate(236.981314 48.157813) scale(0.7)"/>
     <use xlink:href="#MinionPro-It-61" transform="translate(272.541305 48.157813) scale(0.7)"/>
     <use xlink:href="#MinionPro-It-74" transform="translate(306.841295 48.157813) scale(0.7)"/>
     <use xlink:href="#MinionPro-It-61" transform="translate(328.331292 48.157813) scale(0.7)"/>
     <use xlink:href="#MinionPro-It-53" transform="translate(52.699997 -22.092187) scale(0.7)"/>
     <use xlink:href="#MinionPro-It-45" transform="translate(85.459988 -22.092187) scale(0.7)"/>
     <use xlink:href="#MinionPro-It-45" transform="translate(124.589984 -22.092187) scale(0.7)"/>
    </g>
   </g>
   <g id="patch_10">
    <path d="M 105.41048 81.689928 
Q 102.898395 75.461185 96.018531 72.471749 
" style="fill: none; stroke: #000000; stroke-width: 0.5; stroke-linecap: round"/>
    <path d="M 99.177276 76.242999 
L 96.018531 72.471749 
L 100.930779 72.207503 
" style="fill: none; stroke: #000000; stroke-width: 0.5; stroke-linecap: round"/>
   </g>
   <g id="text_8">
    <!-- $F_{SEE}^{QR+,data}$ -->
    <g style="fill: #2ca02c" transform="translate(86.413524 96.370378) scale(0.11 -0.11)">
     <defs>
      <path id="MinionPro-Subh-2b" d="M 3213 1421 
L 3213 1696 
L 1920 1696 
L 1920 2976 
L 1594 2976 
L 1594 1696 
L 301 1696 
L 301 1421 
L 1594 1421 
L 1594 0 
L 1920 0 
L 1920 1421 
L 3213 1421 
z
" transform="scale(0.015625)"/>
     </defs>
     <use xlink:href="#MinionPro-It-46" transform="translate(0 0.360938)"/>
     <use xlink:href="#MinionPro-It-51" transform="translate(59.167341 48.157813) scale(0.7)"/>
     <use xlink:href="#MinionPro-It-52" transform="translate(108.797336 48.157813) scale(0.7)"/>
     <use xlink:href="#MinionPro-Subh-2b" transform="translate(161.74533 48.157813) scale(0.7)"/>
     <use xlink:href="#MinionPro-Subh-2c" transform="translate(211.123318 48.157813) scale(0.7)"/>
     <use xlink:href="#MinionPro-It-64" transform="translate(236.981314 48.157813) scale(0.7)"/>
     <use xlink:href="#MinionPro-It-61" transform="translate(272.541305 48.157813) scale(0.7)"/>
     <use xlink:href="#MinionPro-It-74" transform="translate(306.841295 48.157813) scale(0.7)"/>
     <use xlink:href="#MinionPro-It-61" transform="translate(328.331292 48.157813) scale(0.7)"/>
     <use xlink:href="#MinionPro-It-53" transform="translate(52.699997 -22.092187) scale(0.7)"/>
     <use xlink:href="#MinionPro-It-45" transform="translate(85.459988 -22.092187) scale(0.7)"/>
     <use xlink:href="#MinionPro-It-45" transform="translate(124.589984 -22.092187) scale(0.7)"/>
    </g>
   </g>
   <g id="text_9">
    <!-- A -->
    <g transform="translate(3.772344 53.39289) scale(0.11 -0.11)">
     <defs>
      <path id="MyriadPro-Bold-41" d="M 2662 1107 
L 2995 0 
L 4051 0 
L 2707 4314 
L 1427 4314 
L 115 0 
L 1120 0 
L 1427 1107 
L 2662 1107 
z
M 1568 1837 
L 1824 2752 
C 1894 3002 1958 3328 2022 3584 
L 2035 3584 
C 2099 3328 2176 3008 2253 2752 
L 2522 1837 
L 1568 1837 
z
" transform="scale(0.015625)"/>
     </defs>
     <use xlink:href="#MyriadPro-Bold-41"/>
    </g>
   </g>
  </g>
  <g id="axes_8">
   <g id="patch_11">
    <path d="M 164.998426 121.366194 
L 300.364028 121.366194 
L 300.364028 53.576719 
L 164.998426 53.576719 
z
" style="fill: #ffffff"/>
   </g>
   <g id="matplotlib.axis_3">
    <g id="text_10">
     <!-- Time -->
     <g transform="translate(221.317712 133.176194) scale(0.11 -0.11)">
      <use xlink:href="#MyriadPro-Regular-54"/>
      <use xlink:href="#MyriadPro-Regular-69" transform="translate(49.699997 0)"/>
      <use xlink:href="#MyriadPro-Regular-6d" transform="translate(73.099991 0)"/>
      <use xlink:href="#MyriadPro-Regular-65" transform="translate(156.499985 0)"/>
     </g>
    </g>
   </g>
   <g id="matplotlib.axis_4"/>
   <g id="line2d_8">
    <path d="M 164.998426 104.775562 
L 178.941083 104.728793 
L 179.211814 104.423948 
L 179.482545 103.46648 
L 180.159373 99.787046 
L 182.325223 87.287051 
L 183.543514 81.796849 
L 184.761804 77.370329 
L 185.980094 73.787692 
L 187.198385 70.868854 
L 188.416675 68.475869 
L 189.770331 66.306602 
L 191.123987 64.547352 
L 192.613009 62.986843 
L 194.102031 61.737039 
L 195.726418 60.652016 
L 197.486171 59.732236 
L 199.516655 58.923192 
L 201.81787 58.248923 
L 204.525182 57.691131 
L 207.909322 57.234962 
L 212.241021 56.892306 
L 218.332473 56.655513 
L 228.214162 56.522501 
L 232.681227 56.501711 
L 233.628786 68.304824 
L 234.44098 75.839555 
L 235.253174 81.381687 
L 235.388539 82.139591 
L 239.04341 81.895254 
L 242.698282 81.870879 
L 246.353153 82.070304 
L 250.008024 82.490619 
L 253.798261 83.152494 
L 257.723864 84.070852 
L 260.972638 85.037522 
L 262.597025 85.746421 
L 263.950681 86.554856 
L 265.168972 87.537267 
L 266.251897 88.692121 
L 267.334821 90.179454 
L 268.553112 92.287844 
L 270.042133 95.392753 
L 272.884811 101.487143 
L 273.967736 103.286414 
L 274.915295 104.496138 
L 275.862854 105.364142 
L 276.810413 105.911643 
L 277.757973 106.189243 
L 278.976263 106.297557 
L 284.796984 106.301866 
L 286.692102 106.301866 
L 286.692102 106.301866 
" clip-path="url(#p6b150b308a)" style="fill: none; stroke: #000000; stroke-linecap: square"/>
   </g>
   <g id="line2d_9">
    <g clip-path="url(#p6b150b308a)">
     <use xlink:href="#mc7980eb949" x="261.5141" y="85.248912" style="stroke: #000000"/>
    </g>
   </g>
   <g id="patch_12">
    <path d="M 164.998426 121.366194 
L 164.998426 53.576719 
" style="fill: none; stroke: #000000; stroke-width: 0.8; stroke-linejoin: miter; stroke-linecap: square"/>
   </g>
   <g id="patch_13">
    <path d="M 164.998426 121.366194 
L 300.364028 121.366194 
" style="fill: none; stroke: #000000; stroke-width: 0.8; stroke-linejoin: miter; stroke-linecap: square"/>
   </g>
   <g id="patch_14">
    <path d="M 242.992648 101.179212 
Q 252.85408 98.3298 259.576106 88.338585 
" style="fill: none; stroke: #000000; stroke-width: 0.5; stroke-linecap: round"/>
    <path d="M 255.29463 90.761178 
L 259.576106 88.338585 
L 258.945295 93.217322 
" style="fill: none; stroke: #000000; stroke-width: 0.5; stroke-linecap: round"/>
   </g>
   <g id="text_11">
    <!-- $F_{SEE}^{SR,data}$ -->
    <g transform="translate(207.36786 104.079322) scale(0.11 -0.11)">
     <use xlink:href="#MinionPro-It-46" transform="translate(0 0.06875)"/>
     <use xlink:href="#MinionPro-It-53" transform="translate(59.167341 44.157813) scale(0.7)"/>
     <use xlink:href="#MinionPro-It-52" transform="translate(91.927332 44.157813) scale(0.7)"/>
     <use xlink:href="#MinionPro-Subh-2c" transform="translate(133.857328 44.157813) scale(0.7)"/>
     <use xlink:href="#MinionPro-It-64" transform="translate(159.715323 44.157813) scale(0.7)"/>
     <use xlink:href="#MinionPro-It-61" transform="translate(195.275315 44.157813) scale(0.7)"/>
     <use xlink:href="#MinionPro-It-74" transform="translate(229.575304 44.157813) scale(0.7)"/>
     <use xlink:href="#MinionPro-It-61" transform="translate(251.065302 44.157813) scale(0.7)"/>
     <use xlink:href="#MinionPro-It-53" transform="translate(52.699997 -22.384375) scale(0.7)"/>
     <use xlink:href="#MinionPro-It-45" transform="translate(85.459988 -22.384375) scale(0.7)"/>
     <use xlink:href="#MinionPro-It-45" transform="translate(124.589984 -22.384375) scale(0.7)"/>
    </g>
   </g>
   <g id="text_12">
    <!-- B -->
    <g transform="translate(155.353739 53.39289) scale(0.11 -0.11)">
     <defs>
      <path id="MyriadPro-Bold-42" d="M 422 19 
C 640 -13 998 -45 1478 -45 
C 2336 -45 2861 96 3174 346 
C 3443 563 3622 870 3622 1267 
C 3622 1818 3258 2195 2765 2323 
L 2765 2336 
C 3251 2522 3475 2874 3475 3251 
C 3475 3648 3264 3942 2963 4102 
C 2643 4288 2278 4346 1683 4346 
C 1190 4346 678 4301 422 4256 
L 422 19 
z
M 1389 3610 
C 1466 3622 1587 3635 1805 3635 
C 2246 3635 2496 3462 2496 3136 
C 2496 2816 2227 2605 1709 2605 
L 1389 2605 
L 1389 3610 
z
M 1389 1907 
L 1722 1907 
C 2208 1907 2598 1734 2598 1306 
C 2598 851 2208 678 1766 678 
C 1600 678 1485 678 1389 691 
L 1389 1907 
z
" transform="scale(0.015625)"/>
     </defs>
     <use xlink:href="#MyriadPro-Bold-42"/>
    </g>
   </g>
  </g>
  <g id="axes_9">
   <g id="patch_15">
    <path d="M 315.909508 121.366194 
L 451.275111 121.366194 
L 451.275111 53.576719 
L 315.909508 53.576719 
z
" style="fill: #ffffff"/>
   </g>
   <g id="matplotlib.axis_5">
    <g id="text_13">
     <!-- Time -->
     <g transform="translate(372.228794 133.176194) scale(0.11 -0.11)">
      <use xlink:href="#MyriadPro-Regular-54"/>
      <use xlink:href="#MyriadPro-Regular-69" transform="translate(49.699997 0)"/>
      <use xlink:href="#MyriadPro-Regular-6d" transform="translate(73.099991 0)"/>
      <use xlink:href="#MyriadPro-Regular-65" transform="translate(156.499985 0)"/>
     </g>
    </g>
   </g>
   <g id="matplotlib.axis_6"/>
   <g id="line2d_10">
    <path d="M 315.909508 106.089329 
L 349.356487 106.026206 
L 349.987562 105.871668 
L 350.618637 105.46493 
L 351.249712 104.751046 
L 352.511862 102.840305 
L 359.13815 91.949317 
L 361.031376 89.491295 
L 362.924601 87.371297 
L 364.817826 85.552534 
L 367.026589 83.7587 
L 369.235352 82.262933 
L 371.444114 81.014944 
L 373.968415 79.838297 
L 376.808252 78.772052 
L 379.963628 77.839723 
L 383.434541 77.050774 
L 387.536529 76.357437 
L 391.007441 75.975353 
L 393.847279 75.908108 
L 397.002655 76.06531 
L 399.211417 76.398524 
L 400.789105 76.843503 
L 402.051255 77.404347 
L 403.313405 78.24222 
L 404.260018 79.115741 
L 405.522168 80.652891 
L 407.099856 83.06112 
L 413.726144 93.877284 
L 415.619369 96.363409 
L 417.512594 98.44424 
L 419.40582 100.145842 
L 421.299045 101.519297 
L 423.19227 102.610826 
L 425.085495 103.46204 
L 427.294258 104.206614 
L 429.818558 104.805576 
L 432.658396 105.250869 
L 436.444846 105.603821 
L 441.808985 105.848626 
L 450.644035 105.993429 
L 451.275111 105.998607 
L 451.275111 105.998607 
" clip-path="url(#p9b35590f5f)" style="fill: none; stroke: #000000; stroke-linecap: square"/>
   </g>
   <g id="patch_16">
    <path d="M 315.909508 121.366194 
L 315.909508 53.576719 
" style="fill: none; stroke: #000000; stroke-width: 0.8; stroke-linejoin: miter; stroke-linecap: square"/>
   </g>
   <g id="patch_17">
    <path d="M 315.909508 121.366194 
L 451.275111 121.366194 
" style="fill: none; stroke: #000000; stroke-width: 0.8; stroke-linejoin: miter; stroke-linecap: square"/>
   </g>
   <g id="text_14">
    <!-- C -->
    <g transform="translate(306.364508 53.39289) scale(0.11 -0.11)">
     <defs>
      <path id="MyriadPro-Bold-43" d="M 3443 883 
C 3245 800 2925 742 2624 742 
C 1760 742 1248 1286 1248 2150 
C 1248 3110 1850 3578 2618 3578 
C 2970 3578 3245 3501 3437 3418 
L 3642 4186 
C 3469 4282 3085 4378 2579 4378 
C 1274 4378 224 3565 224 2093 
C 224 864 992 -70 2483 -70 
C 3002 -70 3411 32 3584 115 
L 3443 883 
z
" transform="scale(0.015625)"/>
     </defs>
     <use xlink:href="#MyriadPro-Bold-43"/>
    </g>
   </g>
  </g>
 </g>
 <defs>
  <clipPath id="pce1b1ab9ac">
   <rect x="13.987656" y="13.81" width="135.365602" height="16.947369"/>
  </clipPath>
  <clipPath id="p7398d624ce">
   <rect x="164.998426" y="13.81" width="135.365602" height="16.947369"/>
  </clipPath>
  <clipPath id="pff490eb15e">
   <rect x="315.909508" y="13.81" width="135.365602" height="16.947369"/>
  </clipPath>
  <clipPath id="pe436ea7388">
   <rect x="13.987656" y="36.757849" width="135.365602" height="2.824561"/>
  </clipPath>
  <clipPath id="p176d694137">
   <rect x="164.998426" y="36.757849" width="135.365602" height="2.824561"/>
  </clipPath>
  <clipPath id="p25f4223e0f">
   <rect x="315.909508" y="36.757849" width="135.365602" height="2.824561"/>
  </clipPath>
  <clipPath id="pa617b92012">
   <rect x="13.987656" y="53.576719" width="135.365602" height="67.789476"/>
  </clipPath>
  <clipPath id="p6b150b308a">
   <rect x="164.998426" y="53.576719" width="135.365602" height="67.789476"/>
  </clipPath>
  <clipPath id="p9b35590f5f">
   <rect x="315.909508" y="53.576719" width="135.365602" height="67.789476"/>
  </clipPath>
 </defs>
</svg>
