<?xml version="1.0" encoding="utf-8" standalone="no"?>
<!DOCTYPE svg PUBLIC "-//W3C//DTD SVG 1.1//EN"
  "http://www.w3.org/Graphics/SVG/1.1/DTD/svg11.dtd">
<svg xmlns:xlink="http://www.w3.org/1999/xlink" width="353.99952pt" height="251.03952pt" viewBox="0 0 353.99952 251.03952" xmlns="http://www.w3.org/2000/svg" version="1.1">
 <metadata>
  <rdf:RDF xmlns:dc="http://purl.org/dc/elements/1.1/" xmlns:cc="http://creativecommons.org/ns#" xmlns:rdf="http://www.w3.org/1999/02/22-rdf-syntax-ns#">
   <cc:Work>
    <dc:type rdf:resource="http://purl.org/dc/dcmitype/StillImage"/>
    <dc:date>2026-09-23T19:36:24.387507</dc:date>
    <dc:format>image/svg+xml</dc:format>
    <dc:creator>
     <cc:Agent>
      <dc:title>Matplotlib v3.10.6, https://matplotlib.org/</dc:title>
     </cc:Agent>
    </dc:creator>
   </cc:Work>
  </rdf:RDF>
 </metadata>
 <defs>
  <style type="text/css">*{stroke-linejoin: round; stroke-linecap: butt}</style>
 </defs>
 <g id="figure_1">
  <g id="patch_1">
   <path d="M 0 251.03952 
L 353.99952 251.03952 
L 353.99952 0 
L 0 0 
z
" style="fill: #ffffff"/>
  </g>
  <g id="axes_1">
   <g id="patch_2">
    <path d="M 37.744375 22.1434 
L 146.250286 22.1434 
L 146.250286 7.993828 
L 37.744375 7.993828 
z
" style="fill: #ffffff"/>
   </g>
   <g id="matplotlib.axis_1"/>
   <g id="matplotlib.axis_2">
    <g id="ytick_1">
     <g id="line2d_1"/>
     <g id="text_1">
      <!-- 4.0 mm -->
      <g transform="translate(0 18.973614) scale(0.11 -0.11)">
       <defs>
        <path id="MyriadPro-Regular-34" d="M 2560 0 
L 2560 1139 
L 3142 1139 
L 3142 1574 
L 2560 1574 
L 2560 4160 
L 1952 4160 
L 96 1504 
L 96 1139 
L 2029 1139 
L 2029 0 
L 2560 0 
z
M 666 1574 
L 666 1587 
L 1683 3002 
C 1798 3194 1901 3373 2029 3616 
L 2048 3616 
C 2035 3398 2029 3181 2029 2963 
L 2029 1574 
L 666 1574 
z
" transform="scale(0.015625)"/>
        <path id="MyriadPro-Regular-2e" d="M 704 -70 
C 941 -70 1094 102 1094 333 
C 1094 570 941 736 717 736 
C 493 736 333 563 333 333 
C 333 102 486 -70 704 -70 
z
" transform="scale(0.015625)"/>
        <path id="MyriadPro-Regular-30" d="M 1683 4230 
C 838 4230 230 3469 230 2067 
C 243 691 800 -70 1613 -70 
C 2528 -70 3059 710 3059 2125 
C 3059 3450 2554 4230 1683 4230 
z
M 1645 3795 
C 2234 3795 2490 3123 2490 2099 
C 2490 1037 2214 365 1645 365 
C 1133 365 800 979 800 2061 
C 800 3194 1158 3795 1645 3795 
z
" transform="scale(0.015625)"/>
        <path id="MyriadPro-Regular-20" transform="scale(0.015625)"/>
        <path id="MyriadPro-Regular-6d" d="M 467 0 
L 1018 0 
L 1018 1862 
C 1018 1958 1030 2061 1062 2138 
C 1152 2419 1414 2701 1760 2701 
C 2189 2701 2406 2349 2406 1856 
L 2406 0 
L 2957 0 
L 2957 1914 
C 2957 2016 2976 2112 3002 2195 
C 3104 2464 3347 2701 3674 2701 
C 4122 2701 4346 2349 4346 1747 
L 4346 0 
L 4896 0 
L 4896 1818 
C 4896 2893 4288 3162 3872 3162 
C 3578 3162 3379 3085 3194 2944 
C 3066 2848 2938 2720 2842 2541 
L 2829 2541 
C 2694 2906 2374 3162 1958 3162 
C 1440 3162 1152 2886 979 2592 
L 960 2592 
L 934 3098 
L 442 3098 
C 454 2842 467 2586 467 2259 
L 467 0 
z
" transform="scale(0.015625)"/>
       </defs>
       <use xlink:href="#MyriadPro-Regular-34"/>
       <use xlink:href="#MyriadPro-Regular-2e" transform="translate(51.299988 0)"/>
       <use xlink:href="#MyriadPro-Regular-30" transform="translate(71.999985 0)"/>
       <use xlink:href="#MyriadPro-Regular-20" transform="translate(123.299973 0)"/>
       <use xlink:href="#MyriadPro-Regular-6d" transform="translate(144.499969 0)"/>
       <use xlink:href="#MyriadPro-Regular-6d" transform="translate(227.899963 0)"/>
      </g>
     </g>
    </g>
   </g>
   <g id="line2d_2">
    <path d="M 37.744375 22.12103 
L 37.976921 22.032659 
L 39.13965 20.962608 
L 53.371459 8.024088 
L 53.604004 8.288711 
L 54.069096 8.855806 
L 55.138807 10.02249 
L 55.743427 10.466846 
L 56.534083 11.081117 
L 58.813032 13.048644 
L 61.417546 15.412876 
L 66.207991 19.569343 
L 66.952138 20.117211 
L 67.928831 21.206489 
L 68.719487 22.067726 
L 68.952033 22.06509 
L 69.324106 21.756637 
L 70.626363 20.519635 
L 78.253868 13.451872 
L 84.300061 7.99905 
L 84.579116 8.159187 
L 84.95119 8.641811 
L 85.323263 9.103417 
L 85.974392 9.812238 
L 86.532502 10.326568 
L 88.764942 12.148704 
L 97.229613 19.73823 
L 98.717906 20.842676 
L 99.927145 22.035677 
L 100.2062 21.857553 
L 111.647458 11.240068 
L 115.321683 8.002239 
L 115.507719 8.131289 
L 116.298375 9.082965 
L 116.763467 9.647239 
L 117.554123 10.3109 
L 118.716853 11.242743 
L 121.13533 13.327473 
L 123.553807 15.537367 
L 126.065303 17.845382 
L 127.739633 19.323946 
L 129.506982 20.697114 
L 130.762729 22.064378 
L 130.995275 22.031276 
L 131.367349 21.70722 
L 133.088188 20.095283 
L 137.646088 15.871174 
L 146.250286 8.001013 
L 146.250286 8.001013 
" clip-path="url(#pf0ad1b3ed8)" style="fill: none; stroke: #000000; stroke-linecap: square"/>
   </g>
   <g id="line2d_3">
    <path d="M 37.744375 22.1434 
L 37.744375 7.993828 
" clip-path="url(#pf0ad1b3ed8)" style="fill: none; stroke: #000000; stroke-linecap: square"/>
   </g>
   <g id="text_2">
    <!-- A -->
    <g transform="translate(27.529062 7.81) scale(0.11 -0.11)">
     <defs>
      <path id="MyriadPro-Bold-41" d="M 2662 1107 
L 2995 0 
L 4051 0 
L 2707 4314 
L 1427 4314 
L 115 0 
L 1120 0 
L 1427 1107 
L 2662 1107 
z
M 1568 1837 
L 1824 2752 
C 1894 3002 1958 3328 2022 3584 
L 2035 3584 
C 2099 3328 2176 3008 2253 2752 
L 2522 1837 
L 1568 1837 
z
" transform="scale(0.015625)"/>
     </defs>
     <use xlink:href="#MyriadPro-Bold-41"/>
    </g>
   </g>
  </g>
  <g id="axes_2">
   <g id="patch_3">
    <path d="M 245.493609 22.1434 
L 353.99952 22.1434 
L 353.99952 7.993828 
L 245.493609 7.993828 
z
" style="fill: #ffffff"/>
   </g>
   <g id="matplotlib.axis_3"/>
   <g id="matplotlib.axis_4">
    <g id="ytick_2">
     <g id="line2d_4"/>
     <g id="text_3">
      <!-- 8.0 mm -->
      <g transform="translate(207.749234 18.973614) scale(0.11 -0.11)">
       <defs>
        <path id="MyriadPro-Regular-38" d="M 1062 2170 
C 550 1952 237 1574 237 1050 
C 237 442 762 -70 1632 -70 
C 2426 -70 3046 410 3046 1139 
C 3046 1638 2726 2010 2208 2214 
L 2208 2234 
C 2720 2470 2899 2854 2899 3206 
C 2899 3731 2490 4230 1683 4230 
C 947 4230 390 3782 390 3123 
C 390 2765 589 2406 1056 2189 
L 1062 2170 
z
M 1645 339 
C 1114 339 794 710 813 1126 
C 813 1523 1075 1850 1562 1990 
C 2125 1830 2477 1581 2477 1082 
C 2477 653 2150 339 1645 339 
z
M 1651 3827 
C 2157 3827 2355 3482 2355 3149 
C 2355 2771 2080 2515 1722 2394 
C 1242 2522 922 2746 928 3162 
C 928 3520 1184 3827 1651 3827 
z
" transform="scale(0.015625)"/>
       </defs>
       <use xlink:href="#MyriadPro-Regular-38"/>
       <use xlink:href="#MyriadPro-Regular-2e" transform="translate(51.299988 0)"/>
       <use xlink:href="#MyriadPro-Regular-30" transform="translate(71.999985 0)"/>
       <use xlink:href="#MyriadPro-Regular-20" transform="translate(123.299973 0)"/>
       <use xlink:href="#MyriadPro-Regular-6d" transform="translate(144.499969 0)"/>
       <use xlink:href="#MyriadPro-Regular-6d" transform="translate(227.899963 0)"/>
      </g>
     </g>
    </g>
   </g>
   <g id="line2d_5">
    <path d="M 245.493609 22.132169 
L 245.710683 22.020323 
L 248.594664 19.358667 
L 261.060905 8.004306 
L 261.246968 8.186061 
L 261.681116 8.631965 
L 270.519122 16.676402 
L 274.023314 19.906127 
L 276.659211 22.09089 
L 277.279422 21.508246 
L 290.303853 9.475503 
L 292.040443 7.996755 
L 292.226507 8.141335 
L 292.722675 8.671946 
L 294.583308 10.33187 
L 296.630005 12.18282 
L 307.545718 22.142138 
L 307.793802 21.986251 
L 317.438083 13.05498 
L 323.019982 7.996307 
L 323.206045 8.102039 
L 323.826256 8.773574 
L 324.60152 9.500357 
L 332.075062 16.25089 
L 334.835001 18.791112 
L 337.905045 21.644689 
L 338.556267 22.141209 
L 338.804351 21.98523 
L 347.7664 13.685077 
L 353.99952 7.99972 
L 353.99952 7.99972 
" clip-path="url(#p679388c6c9)" style="fill: none; stroke: #000000; stroke-linecap: square"/>
   </g>
   <g id="line2d_6">
    <path d="M 245.493609 22.1434 
L 245.493609 7.993828 
" clip-path="url(#p679388c6c9)" style="fill: none; stroke: #000000; stroke-linecap: square"/>
   </g>
   <g id="text_4">
    <!-- B -->
    <g transform="translate(235.848922 7.81) scale(0.11 -0.11)">
     <defs>
      <path id="MyriadPro-Bold-42" d="M 422 19 
C 640 -13 998 -45 1478 -45 
C 2336 -45 2861 96 3174 346 
C 3443 563 3622 870 3622 1267 
C 3622 1818 3258 2195 2765 2323 
L 2765 2336 
C 3251 2522 3475 2874 3475 3251 
C 3475 3648 3264 3942 2963 4102 
C 2643 4288 2278 4346 1683 4346 
C 1190 4346 678 4301 422 4256 
L 422 19 
z
M 1389 3610 
C 1466 3622 1587 3635 1805 3635 
C 2246 3635 2496 3462 2496 3136 
C 2496 2816 2227 2605 1709 2605 
L 1389 2605 
L 1389 3610 
z
M 1389 1907 
L 1722 1907 
C 2208 1907 2598 1734 2598 1306 
C 2598 851 2208 678 1766 678 
C 1600 678 1485 678 1389 691 
L 1389 1907 
z
" transform="scale(0.015625)"/>
     </defs>
     <use xlink:href="#MyriadPro-Bold-42"/>
    </g>
   </g>
  </g>
  <g id="axes_3">
   <g id="patch_4">
    <path d="M 37.744375 31.064352 
L 146.250286 31.064352 
L 146.250286 28.14388 
L 37.744375 28.14388 
z
" style="fill: #ffffff"/>
   </g>
   <g id="matplotlib.axis_5"/>
   <g id="matplotlib.axis_6"/>
   <g id="patch_5">
    <path d="M 52.999385 31.064352 
L 52.999385 28.14388 
L 64.301115 28.14388 
L 64.301115 31.064352 
" clip-path="url(#p85979852cd)"/>
   </g>
   <g id="patch_6">
    <path d="M 84.300061 31.064352 
L 84.300061 28.14388 
L 95.648301 28.14388 
L 95.648301 31.064352 
" clip-path="url(#p85979852cd)"/>
   </g>
   <g id="patch_7">
    <path d="M 114.996118 31.064352 
L 114.996118 28.14388 
L 126.623413 28.14388 
L 126.623413 31.064352 
" clip-path="url(#p85979852cd)"/>
   </g>
  </g>
  <g id="axes_4">
   <g id="patch_8">
    <path d="M 245.493609 31.064352 
L 353.99952 31.064352 
L 353.99952 28.14388 
L 245.493609 28.14388 
z
" style="fill: #ffffff"/>
   </g>
   <g id="matplotlib.axis_7"/>
   <g id="matplotlib.axis_8"/>
   <g id="patch_9">
    <path d="M 260.812821 31.064352 
L 260.812821 28.14388 
L 273.527146 28.14388 
L 273.527146 31.064352 
" clip-path="url(#pc5f5c65269)"/>
   </g>
   <g id="patch_10">
    <path d="M 291.82337 31.064352 
L 291.82337 28.14388 
L 304.537695 28.14388 
L 304.537695 31.064352 
" clip-path="url(#pc5f5c65269)"/>
   </g>
   <g id="patch_11">
    <path d="M 322.833918 31.064352 
L 322.833918 28.14388 
L 335.548243 28.14388 
L 335.548243 31.064352 
" clip-path="url(#pc5f5c65269)"/>
   </g>
  </g>
  <g id="axes_5">
   <g id="patch_12">
    <path d="M 37.744375 110.076623 
L 146.250286 110.076623 
L 146.250286 37.064832 
L 37.744375 37.064832 
z
" style="fill: #ffffff"/>
   </g>
   <g id="matplotlib.axis_9">
    <g id="xtick_1">
     <g id="line2d_7">
      <defs>
       <path id="m96cc728672" d="M 0 0 
L 0 3.5 
" style="stroke: #000000; stroke-width: 0.8"/>
      </defs>
      <g>
       <use xlink:href="#m96cc728672" x="37.744375" y="110.076623" style="stroke: #000000; stroke-width: 0.8"/>
      </g>
     </g>
     <g id="text_5">
      <!-- 0.0 -->
      <g transform="translate(30.963047 124.886623) scale(0.11 -0.11)">
       <use xlink:href="#MyriadPro-Regular-30"/>
       <use xlink:href="#MyriadPro-Regular-2e" transform="translate(51.299988 0)"/>
       <use xlink:href="#MyriadPro-Regular-30" transform="translate(71.999985 0)"/>
      </g>
     </g>
    </g>
    <g id="xtick_2">
     <g id="line2d_8">
      <g>
       <use xlink:href="#m96cc728672" x="74.951717" y="110.076623" style="stroke: #000000; stroke-width: 0.8"/>
      </g>
     </g>
     <g id="text_6">
      <!-- 0.4 -->
      <g transform="translate(68.170389 124.886623) scale(0.11 -0.11)">
       <use xlink:href="#MyriadPro-Regular-30"/>
       <use xlink:href="#MyriadPro-Regular-2e" transform="translate(51.299988 0)"/>
       <use xlink:href="#MyriadPro-Regular-34" transform="translate(71.999985 0)"/>
      </g>
     </g>
    </g>
    <g id="xtick_3">
     <g id="line2d_9">
      <g>
       <use xlink:href="#m96cc728672" x="112.159059" y="110.076623" style="stroke: #000000; stroke-width: 0.8"/>
      </g>
     </g>
     <g id="text_7">
      <!-- 0.8 -->
      <g transform="translate(105.37773 124.886623) scale(0.11 -0.11)">
       <use xlink:href="#MyriadPro-Regular-30"/>
       <use xlink:href="#MyriadPro-Regular-2e" transform="translate(51.299988 0)"/>
       <use xlink:href="#MyriadPro-Regular-38" transform="translate(71.999985 0)"/>
      </g>
     </g>
    </g>
    <g id="xtick_4">
     <g id="line2d_10">
      <defs>
       <path id="md6d3d267cd" d="M 0 0 
L 0 2 
" style="stroke: #000000; stroke-width: 0.6"/>
      </defs>
      <g>
       <use xlink:href="#md6d3d267cd" x="56.348046" y="110.076623" style="stroke: #000000; stroke-width: 0.6"/>
      </g>
     </g>
    </g>
    <g id="xtick_5">
     <g id="line2d_11">
      <g>
       <use xlink:href="#md6d3d267cd" x="93.555388" y="110.076623" style="stroke: #000000; stroke-width: 0.6"/>
      </g>
     </g>
    </g>
    <g id="xtick_6">
     <g id="line2d_12">
      <g>
       <use xlink:href="#md6d3d267cd" x="130.762729" y="110.076623" style="stroke: #000000; stroke-width: 0.6"/>
      </g>
     </g>
    </g>
    <g id="text_8">
     <!-- Time [s] -->
     <g transform="translate(74.165299 138.87428) scale(0.11 -0.11)">
      <defs>
       <path id="MyriadPro-Regular-54" d="M 1306 0 
L 1869 0 
L 1869 3840 
L 3187 3840 
L 3187 4314 
L -6 4314 
L -6 3840 
L 1306 3840 
L 1306 0 
z
" transform="scale(0.015625)"/>
       <path id="MyriadPro-Regular-69" d="M 1030 0 
L 1030 3098 
L 467 3098 
L 467 0 
L 1030 0 
z
M 749 4320 
C 538 4320 397 4160 397 3968 
C 397 3776 531 3622 736 3622 
C 960 3622 1094 3776 1094 3968 
C 1094 4166 954 4320 749 4320 
z
" transform="scale(0.015625)"/>
       <path id="MyriadPro-Regular-65" d="M 2957 1446 
C 2970 1510 2976 1594 2976 1709 
C 2976 2278 2714 3162 1696 3162 
C 794 3162 243 2432 243 1498 
C 243 563 813 -70 1766 -70 
C 2259 -70 2605 38 2803 128 
L 2701 531 
C 2496 442 2246 371 1843 371 
C 1274 371 794 685 781 1446 
L 2957 1446 
z
M 787 1850 
C 832 2240 1075 2758 1651 2758 
C 2285 2758 2438 2202 2432 1850 
L 787 1850 
z
" transform="scale(0.015625)"/>
       <path id="MyriadPro-Regular-5b" d="M 1690 -717 
L 1690 -365 
L 960 -365 
L 960 4038 
L 1690 4038 
L 1690 4390 
L 518 4390 
L 518 -717 
L 1690 -717 
z
" transform="scale(0.015625)"/>
       <path id="MyriadPro-Regular-73" d="M 256 147 
C 474 19 787 -70 1126 -70 
C 1850 -70 2278 314 2278 864 
C 2278 1325 1997 1594 1466 1792 
C 1062 1952 883 2067 883 2323 
C 883 2554 1062 2746 1395 2746 
C 1683 2746 1907 2637 2029 2560 
L 2163 2970 
C 1997 3078 1722 3162 1408 3162 
C 749 3162 339 2752 339 2253 
C 339 1882 602 1581 1165 1376 
C 1574 1222 1734 1082 1734 813 
C 1734 550 1542 352 1139 352 
C 858 352 563 467 390 570 
L 256 147 
z
" transform="scale(0.015625)"/>
       <path id="MyriadPro-Regular-5d" d="M 128 4390 
L 128 4038 
L 858 4038 
L 858 -365 
L 128 -365 
L 128 -717 
L 1299 -717 
L 1299 4390 
L 128 4390 
z
" transform="scale(0.015625)"/>
      </defs>
      <use xlink:href="#MyriadPro-Regular-54"/>
      <use xlink:href="#MyriadPro-Regular-69" transform="translate(49.699997 0)"/>
      <use xlink:href="#MyriadPro-Regular-6d" transform="translate(73.099991 0)"/>
      <use xlink:href="#MyriadPro-Regular-65" transform="translate(156.499985 0)"/>
      <use xlink:href="#MyriadPro-Regular-20" transform="translate(206.599976 0)"/>
      <use xlink:href="#MyriadPro-Regular-5b" transform="translate(227.799973 0)"/>
      <use xlink:href="#MyriadPro-Regular-73" transform="translate(256.199966 0)"/>
      <use xlink:href="#MyriadPro-Regular-5d" transform="translate(295.799957 0)"/>
     </g>
    </g>
   </g>
   <g id="matplotlib.axis_10">
    <g id="ytick_3">
     <g id="line2d_13">
      <defs>
       <path id="mb61f239e97" d="M 0 0 
L -3.5 0 
" style="stroke: #000000; stroke-width: 0.8"/>
      </defs>
      <g>
       <use xlink:href="#mb61f239e97" x="37.744375" y="110.076623" style="stroke: #000000; stroke-width: 0.8"/>
      </g>
     </g>
     <g id="text_9">
      <!-- 0 -->
      <g transform="translate(25.101719 113.981623) scale(0.11 -0.11)">
       <use xlink:href="#MyriadPro-Regular-30"/>
      </g>
     </g>
    </g>
    <g id="ytick_4">
     <g id="line2d_14">
      <g>
       <use xlink:href="#mb61f239e97" x="37.744375" y="79.334816" style="stroke: #000000; stroke-width: 0.8"/>
      </g>
     </g>
     <g id="text_10">
      <!-- 4 -->
      <g transform="translate(25.101719 83.239816) scale(0.11 -0.11)">
       <use xlink:href="#MyriadPro-Regular-34"/>
      </g>
     </g>
    </g>
    <g id="ytick_5">
     <g id="line2d_15">
      <g>
       <use xlink:href="#mb61f239e97" x="37.744375" y="48.593009" style="stroke: #000000; stroke-width: 0.8"/>
      </g>
     </g>
     <g id="text_11">
      <!-- 8 -->
      <g transform="translate(25.101719 52.498009) scale(0.11 -0.11)">
       <use xlink:href="#MyriadPro-Regular-38"/>
      </g>
     </g>
    </g>
    <g id="ytick_6">
     <g id="line2d_16">
      <defs>
       <path id="mede25b13fd" d="M 0 0 
L -2 0 
" style="stroke: #000000; stroke-width: 0.6"/>
      </defs>
      <g>
       <use xlink:href="#mede25b13fd" x="37.744375" y="94.70572" style="stroke: #000000; stroke-width: 0.6"/>
      </g>
     </g>
    </g>
    <g id="ytick_7">
     <g id="line2d_17">
      <g>
       <use xlink:href="#mede25b13fd" x="37.744375" y="63.963913" style="stroke: #000000; stroke-width: 0.6"/>
      </g>
     </g>
    </g>
    <g id="text_12">
     <!-- $F_{SEE}$ [N] -->
     <g transform="translate(18.924062 90.125728) rotate(-90) scale(0.11 -0.11)">
      <defs>
       <path id="MinionPro-ItDisp-46" d="M 813 4147 
L 800 4070 
C 1286 4013 1306 3987 1184 3347 
L 698 794 
C 576 173 525 134 58 77 
L 38 0 
L 1651 0 
L 1670 77 
C 1107 128 1069 179 1178 794 
L 1408 2022 
L 2093 2022 
C 2669 2022 2675 1965 2682 1504 
L 2752 1504 
L 2982 2643 
L 2906 2643 
C 2733 2227 2707 2176 2138 2176 
L 1446 2176 
L 1754 3782 
C 1792 3994 1805 4019 2035 4019 
L 2515 4019 
C 2976 4019 3130 3968 3187 3750 
C 3232 3597 3245 3430 3258 3213 
L 3341 3226 
C 3386 3571 3430 4038 3450 4147 
L 813 4147 
z
" transform="scale(0.015625)"/>
       <path id="MinionPro-ItDisp-53" d="M 218 1184 
C 224 787 230 429 237 282 
C 352 141 800 -90 1286 -90 
C 1971 -90 2637 371 2637 1120 
C 2637 1562 2362 1907 1939 2253 
L 1760 2394 
C 1421 2669 1171 2899 1171 3290 
C 1171 3744 1472 4115 1920 4115 
C 2502 4115 2669 3603 2707 3168 
L 2797 3181 
C 2803 3494 2790 3763 2816 4045 
C 2771 4058 2669 4096 2547 4141 
C 2368 4205 2157 4237 1958 4237 
C 1235 4237 717 3757 717 3123 
C 717 2586 1126 2253 1402 2010 
L 1542 1888 
C 1901 1568 2144 1325 2144 928 
C 2144 416 1875 38 1344 38 
C 653 38 352 666 294 1203 
L 218 1184 
z
" transform="scale(0.015625)"/>
       <path id="MinionPro-ItDisp-45" d="M 774 4147 
L 755 4070 
C 1280 4013 1318 3981 1210 3437 
L 685 717 
C 576 147 506 122 19 77 
L -6 0 
L 2906 0 
C 3002 211 3200 755 3270 909 
L 3187 941 
C 3078 742 2938 499 2771 339 
C 2605 179 2458 128 1869 128 
C 1466 128 1293 147 1210 218 
C 1126 288 1114 429 1184 800 
L 1427 2093 
L 2074 2093 
C 2630 2093 2643 2016 2630 1581 
L 2707 1581 
L 2938 2707 
L 2854 2707 
C 2720 2317 2656 2246 2138 2246 
L 1459 2246 
L 1754 3770 
C 1805 4006 1811 4019 2035 4019 
L 2445 4019 
C 2989 4019 3104 3962 3168 3782 
C 3226 3635 3251 3450 3251 3219 
L 3334 3226 
C 3379 3571 3418 4038 3443 4147 
L 774 4147 
z
" transform="scale(0.015625)"/>
       <path id="MyriadPro-Regular-4e" d="M 1011 0 
L 1011 1843 
C 1011 2560 1005 3078 973 3622 
L 992 3629 
C 1203 3162 1491 2669 1792 2189 
L 3162 0 
L 3725 0 
L 3725 4314 
L 3200 4314 
L 3200 2509 
C 3200 1837 3213 1312 3264 736 
L 3245 730 
C 3046 1171 2790 1626 2477 2131 
L 1101 4314 
L 486 4314 
L 486 0 
L 1011 0 
z
" transform="scale(0.015625)"/>
      </defs>
      <use xlink:href="#MinionPro-ItDisp-46" transform="translate(0 0.40625)"/>
      <use xlink:href="#MinionPro-ItDisp-53" transform="translate(49.699997 -12.765625) scale(0.7)"/>
      <use xlink:href="#MinionPro-ItDisp-45" transform="translate(80.779993 -12.765625) scale(0.7)"/>
      <use xlink:href="#MinionPro-ItDisp-45" transform="translate(117.529982 -12.765625) scale(0.7)"/>
      <use xlink:href="#MyriadPro-Regular-20" transform="translate(156.475284 0.40625)"/>
      <use xlink:href="#MyriadPro-Regular-5b" transform="translate(177.675281 0.40625)"/>
      <use xlink:href="#MyriadPro-Regular-4e" transform="translate(206.075275 0.40625)"/>
      <use xlink:href="#MyriadPro-Regular-5d" transform="translate(271.875262 0.40625)"/>
     </g>
    </g>
   </g>
   <g id="line2d_18">
    <path d="M 37.744375 109.990103 
L 38.255976 109.946098 
L 46.906683 109.446367 
L 50.348362 109.130616 
L 52.580803 108.927472 
L 53.138913 108.924056 
L 53.417968 108.973695 
L 53.557495 108.314312 
L 54.069096 103.298216 
L 54.487679 95.898031 
L 56.022482 66.427528 
L 56.67361 58.079446 
L 57.510775 50.921947 
L 58.39445 46.143239 
L 59.185106 43.555354 
L 59.603688 42.786351 
L 60.254817 41.889047 
L 60.812927 41.680635 
L 61.23151 41.645696 
L 62.254711 42.358856 
L 62.812822 43.080745 
L 63.277913 43.93224 
L 65.045262 47.843034 
L 65.417335 49.335421 
L 65.7429 51.697824 
L 66.114973 56.273422 
L 66.580065 65.293521 
L 68.068359 96.458118 
L 68.53345 101.335617 
L 68.859015 103.107422 
L 70.25429 106.79729 
L 70.8124 107.523975 
L 71.649565 108.261767 
L 72.440221 108.669165 
L 73.416914 108.88343 
L 75.92841 109.089565 
L 79.602635 109.056217 
L 80.904891 109.054798 
L 84.300061 109.030289 
L 84.672135 109.286852 
L 84.765153 109.123285 
L 84.95119 107.779652 
L 85.834864 97.577395 
L 87.834759 64.205414 
L 88.485887 57.53786 
L 89.230034 52.100088 
L 90.160218 47.816142 
L 91.090401 45.513789 
L 92.113603 44.527455 
L 92.950768 44.498357 
L 93.462369 44.902354 
L 93.834443 45.320065 
L 95.555282 48.64002 
L 96.531975 51.169981 
L 96.857539 52.373556 
L 97.183104 54.541393 
L 97.555177 58.801514 
L 98.020269 67.304709 
L 99.462053 96.453806 
L 99.834127 99.821833 
L 100.252709 101.46579 
L 100.717801 103.588782 
L 101.229402 105.47374 
L 101.787512 106.572473 
L 102.578168 107.540067 
L 103.229297 108.105914 
L 104.112971 108.558072 
L 105.229191 108.79414 
L 107.647668 108.976636 
L 113.507825 108.983225 
L 115.135646 108.802088 
L 115.414701 108.924561 
L 115.507719 108.603467 
L 115.740265 106.46881 
L 116.484412 97.147731 
L 118.623834 61.58367 
L 119.228454 55.802042 
L 119.926091 50.850796 
L 120.809766 46.83499 
L 121.600422 44.957083 
L 121.925986 44.663936 
L 122.716642 44.265186 
L 123.135224 44.424432 
L 123.507298 44.57053 
L 123.92588 45.125381 
L 124.623518 46.106827 
L 125.08861 47.016114 
L 125.553702 48.022788 
L 126.111812 49.345275 
L 126.530394 50.46491 
L 127.088504 51.917212 
L 127.507087 53.300896 
L 127.832651 55.369207 
L 128.204725 59.528926 
L 128.669817 67.798521 
L 130.065092 95.455262 
L 130.576693 100.812432 
L 130.902257 102.579056 
L 132.018477 105.65201 
L 132.576587 106.606252 
L 133.506771 107.542473 
L 134.436954 108.158384 
L 136.064776 108.708629 
L 138.436744 109.066037 
L 140.390129 109.054868 
L 144.064354 108.848941 
L 145.692175 108.681122 
L 146.157267 108.729549 
L 146.250286 108.798553 
L 146.250286 108.798553 
" clip-path="url(#pe5eb8268fc)" style="fill: none; stroke: #000000; stroke-linecap: square"/>
   </g>
   <g id="line2d_19">
    <path d="M 37.744375 110.076623 
L 40.813981 109.984349 
L 41.325582 109.542054 
L 42.162747 108.793078 
L 42.813875 108.678779 
L 44.81377 108.656411 
L 46.441591 108.667744 
L 53.324949 108.438816 
L 53.464477 108.280033 
L 53.650514 107.509622 
L 53.929569 105.068141 
L 54.766734 94.300081 
L 56.301537 70.608485 
L 57.092193 61.530706 
L 57.882849 55.088996 
L 59.045578 49.257848 
L 59.789725 46.927789 
L 60.766418 45.353249 
L 61.278019 44.939047 
L 61.510565 44.748568 
L 61.975656 44.873908 
L 62.533766 44.948746 
L 62.859331 45.246787 
L 63.231404 45.429338 
L 63.370932 45.542988 
L 64.812716 47.758688 
L 65.696391 49.341827 
L 66.068464 50.050664 
L 66.394028 51.056552 
L 66.626574 52.471274 
L 66.998647 56.268526 
L 67.510248 63.710548 
L 68.021849 75.644938 
L 68.672978 89.223797 
L 69.13807 94.721115 
L 69.882216 101.028978 
L 70.393817 103.90899 
L 70.951928 105.865763 
L 71.556547 107.123126 
L 72.114657 107.798025 
L 72.765785 108.227908 
L 73.556441 108.476215 
L 74.672662 108.60523 
L 76.858593 108.659466 
L 83.83497 108.565357 
L 84.207043 108.627763 
L 84.718644 109.010898 
L 84.858172 108.657795 
L 85.090717 107.265453 
L 85.462791 103.122644 
L 86.811557 83.099634 
L 88.020796 66.378318 
L 88.811452 58.607111 
L 89.695126 52.673826 
L 90.485782 49.094364 
L 91.555493 46.517625 
L 92.29964 45.515962 
L 92.671713 45.456168 
L 93.183314 45.182092 
L 93.694915 45.468904 
L 94.253025 45.764887 
L 94.671608 46.231165 
L 95.1367 46.695991 
L 95.555282 47.403764 
L 96.020374 48.021565 
L 97.090085 50.566219 
L 97.601686 51.862346 
L 97.92725 53.313746 
L 98.252815 55.892368 
L 98.671397 61.146276 
L 99.08998 69.595283 
L 99.880636 86.531022 
L 100.578273 95.028197 
L 101.229402 100.83414 
L 101.787512 103.951915 
L 102.392131 106.018084 
L 102.950241 107.143083 
L 103.461842 107.767075 
L 104.112971 108.214088 
L 104.950136 108.477834 
L 105.973338 108.600893 
L 109.27549 108.670538 
L 112.252077 108.694481 
L 115.182155 108.505076 
L 115.46121 108.229305 
L 115.647247 107.460406 
L 115.926302 105.12832 
L 116.57743 96.681534 
L 117.18205 87.465949 
L 118.158742 72.484337 
L 118.85638 64.139981 
L 119.460999 58.410754 
L 120.437692 51.946236 
L 121.228348 48.458262 
L 122.158532 46.06487 
L 122.530605 45.584972 
L 123.088715 44.976392 
L 123.460789 44.890337 
L 123.92588 44.66949 
L 124.5305 44.95484 
L 124.902573 45.12569 
L 125.414174 45.710948 
L 125.832757 46.089414 
L 126.390867 46.967458 
L 126.669922 47.208423 
L 127.600105 49.093882 
L 128.390761 50.196496 
L 128.716326 51.508533 
L 129.04189 54.065181 
L 129.506982 59.914637 
L 130.065092 69.860604 
L 131.041785 88.883229 
L 131.87895 98.131029 
L 132.483569 102.47448 
L 133.041679 104.983818 
L 133.599789 106.52681 
L 134.157899 107.445967 
L 134.6695 107.946212 
L 135.27412 108.285225 
L 136.064776 108.502263 
L 137.692597 108.634359 
L 144.529446 108.650711 
L 146.250286 108.660696 
L 146.250286 108.660696 
" clip-path="url(#pe5eb8268fc)" style="fill: none; stroke-dasharray: 3.7,1.6; stroke-dashoffset: 0; stroke: #ff7f0e"/>
   </g>
   <g id="patch_13">
    <path d="M 37.744375 110.076623 
L 37.744375 37.064832 
" style="fill: none; stroke: #000000; stroke-width: 0.8; stroke-linejoin: miter; stroke-linecap: square"/>
   </g>
   <g id="patch_14">
    <path d="M 37.744375 110.076623 
L 146.250286 110.076623 
" style="fill: none; stroke: #000000; stroke-width: 0.8; stroke-linejoin: miter; stroke-linecap: square"/>
   </g>
  </g>
  <g id="axes_6">
   <g id="patch_15">
    <path d="M 245.493609 110.076623 
L 353.99952 110.076623 
L 353.99952 37.064832 
L 245.493609 37.064832 
z
" style="fill: #ffffff"/>
   </g>
   <g id="matplotlib.axis_11">
    <g id="xtick_7">
     <g id="line2d_20">
      <g>
       <use xlink:href="#m96cc728672" x="245.493609" y="110.076623" style="stroke: #000000; stroke-width: 0.8"/>
      </g>
     </g>
     <g id="text_13">
      <!-- 0.0 -->
      <g transform="translate(238.712281 124.886623) scale(0.11 -0.11)">
       <use xlink:href="#MyriadPro-Regular-30"/>
       <use xlink:href="#MyriadPro-Regular-2e" transform="translate(51.299988 0)"/>
       <use xlink:href="#MyriadPro-Regular-30" transform="translate(71.999985 0)"/>
      </g>
     </g>
    </g>
    <g id="xtick_8">
     <g id="line2d_21">
      <g>
       <use xlink:href="#m96cc728672" x="276.504158" y="110.076623" style="stroke: #000000; stroke-width: 0.8"/>
      </g>
     </g>
     <g id="text_14">
      <!-- 0.5 -->
      <g transform="translate(269.72283 124.886623) scale(0.11 -0.11)">
       <defs>
        <path id="MyriadPro-Regular-35" d="M 2771 4160 
L 781 4160 
L 512 2163 
C 666 2182 851 2202 1094 2202 
C 1920 2202 2285 1824 2285 1286 
C 2291 730 1830 384 1306 384 
C 922 384 582 512 410 614 
L 269 186 
C 474 58 851 -70 1306 -70 
C 2208 -70 2854 538 2854 1350 
C 2854 1869 2586 2234 2259 2413 
C 2003 2573 1690 2637 1363 2637 
C 1210 2637 1120 2630 1024 2618 
L 1184 3686 
L 2771 3686 
L 2771 4160 
z
" transform="scale(0.015625)"/>
       </defs>
       <use xlink:href="#MyriadPro-Regular-30"/>
       <use xlink:href="#MyriadPro-Regular-2e" transform="translate(51.299988 0)"/>
       <use xlink:href="#MyriadPro-Regular-35" transform="translate(71.999985 0)"/>
      </g>
     </g>
    </g>
    <g id="xtick_9">
     <g id="line2d_22">
      <g>
       <use xlink:href="#m96cc728672" x="307.514707" y="110.076623" style="stroke: #000000; stroke-width: 0.8"/>
      </g>
     </g>
     <g id="text_15">
      <!-- 1.0 -->
      <g transform="translate(300.733379 124.886623) scale(0.11 -0.11)">
       <defs>
        <path id="MyriadPro-Regular-31" d="M 1510 0 
L 2054 0 
L 2054 4160 
L 1574 4160 
L 666 3674 
L 774 3245 
L 1498 3635 
L 1510 3635 
L 1510 0 
z
" transform="scale(0.015625)"/>
       </defs>
       <use xlink:href="#MyriadPro-Regular-31"/>
       <use xlink:href="#MyriadPro-Regular-2e" transform="translate(51.299988 0)"/>
       <use xlink:href="#MyriadPro-Regular-30" transform="translate(71.999985 0)"/>
      </g>
     </g>
    </g>
    <g id="xtick_10">
     <g id="line2d_23">
      <g>
       <use xlink:href="#m96cc728672" x="338.525256" y="110.076623" style="stroke: #000000; stroke-width: 0.8"/>
      </g>
     </g>
     <g id="text_16">
      <!-- 1.5 -->
      <g transform="translate(331.743928 124.886623) scale(0.11 -0.11)">
       <use xlink:href="#MyriadPro-Regular-31"/>
       <use xlink:href="#MyriadPro-Regular-2e" transform="translate(51.299988 0)"/>
       <use xlink:href="#MyriadPro-Regular-35" transform="translate(71.999985 0)"/>
      </g>
     </g>
    </g>
    <g id="xtick_11">
     <g id="line2d_24">
      <g>
       <use xlink:href="#md6d3d267cd" x="260.998884" y="110.076623" style="stroke: #000000; stroke-width: 0.6"/>
      </g>
     </g>
    </g>
    <g id="xtick_12">
     <g id="line2d_25">
      <g>
       <use xlink:href="#md6d3d267cd" x="292.009433" y="110.076623" style="stroke: #000000; stroke-width: 0.6"/>
      </g>
     </g>
    </g>
    <g id="xtick_13">
     <g id="line2d_26">
      <g>
       <use xlink:href="#md6d3d267cd" x="323.019982" y="110.076623" style="stroke: #000000; stroke-width: 0.6"/>
      </g>
     </g>
    </g>
    <g id="text_17">
     <!-- Time [s] -->
     <g transform="translate(281.914533 138.87428) scale(0.11 -0.11)">
      <use xlink:href="#MyriadPro-Regular-54"/>
      <use xlink:href="#MyriadPro-Regular-69" transform="translate(49.699997 0)"/>
      <use xlink:href="#MyriadPro-Regular-6d" transform="translate(73.099991 0)"/>
      <use xlink:href="#MyriadPro-Regular-65" transform="translate(156.499985 0)"/>
      <use xlink:href="#MyriadPro-Regular-20" transform="translate(206.599976 0)"/>
      <use xlink:href="#MyriadPro-Regular-5b" transform="translate(227.799973 0)"/>
      <use xlink:href="#MyriadPro-Regular-73" transform="translate(256.199966 0)"/>
      <use xlink:href="#MyriadPro-Regular-5d" transform="translate(295.799957 0)"/>
     </g>
    </g>
   </g>
   <g id="matplotlib.axis_12">
    <g id="ytick_8">
     <g id="line2d_27">
      <g>
       <use xlink:href="#mb61f239e97" x="245.493609" y="110.076623" style="stroke: #000000; stroke-width: 0.8"/>
      </g>
     </g>
     <g id="text_18">
      <!-- 0 -->
      <g transform="translate(232.850953 113.981623) scale(0.11 -0.11)">
       <use xlink:href="#MyriadPro-Regular-30"/>
      </g>
     </g>
    </g>
    <g id="ytick_9">
     <g id="line2d_28">
      <g>
       <use xlink:href="#mb61f239e97" x="245.493609" y="79.334816" style="stroke: #000000; stroke-width: 0.8"/>
      </g>
     </g>
     <g id="text_19">
      <!-- 4 -->
      <g transform="translate(232.850953 83.239816) scale(0.11 -0.11)">
       <use xlink:href="#MyriadPro-Regular-34"/>
      </g>
     </g>
    </g>
    <g id="ytick_10">
     <g id="line2d_29">
      <g>
       <use xlink:href="#mb61f239e97" x="245.493609" y="48.593009" style="stroke: #000000; stroke-width: 0.8"/>
      </g>
     </g>
     <g id="text_20">
      <!-- 8 -->
      <g transform="translate(232.850953 52.498009) scale(0.11 -0.11)">
       <use xlink:href="#MyriadPro-Regular-38"/>
      </g>
     </g>
    </g>
    <g id="ytick_11">
     <g id="line2d_30">
      <g>
       <use xlink:href="#mede25b13fd" x="245.493609" y="94.70572" style="stroke: #000000; stroke-width: 0.6"/>
      </g>
     </g>
    </g>
    <g id="ytick_12">
     <g id="line2d_31">
      <g>
       <use xlink:href="#mede25b13fd" x="245.493609" y="63.963913" style="stroke: #000000; stroke-width: 0.6"/>
      </g>
     </g>
    </g>
   </g>
   <g id="line2d_32">
    <path d="M 245.493609 110.048889 
L 245.741694 110.029643 
L 246.11382 110.026827 
L 247.044137 110.000261 
L 249.46296 109.943287 
L 255.292943 109.461181 
L 259.66543 108.258239 
L 260.905852 107.552228 
L 261.091916 107.709352 
L 261.122926 107.621371 
L 261.246968 106.463462 
L 261.867179 96.689685 
L 263.324675 66.119396 
L 263.882865 59.302667 
L 264.379034 55.287245 
L 264.844192 52.676496 
L 265.371371 50.65461 
L 266.270677 49.030107 
L 266.549772 48.88542 
L 267.263015 49.52028 
L 268.13131 51.421285 
L 268.503437 52.600724 
L 269.83689 57.848316 
L 270.860238 62.68151 
L 273.310072 76.669129 
L 274.302409 83.757356 
L 274.643525 88.490036 
L 275.697884 105.378158 
L 276.101021 107.857227 
L 276.411127 108.741251 
L 276.566179 108.754403 
L 276.969317 108.507543 
L 277.217401 108.630115 
L 278.085696 109.229241 
L 279.357129 109.533992 
L 280.721593 109.550877 
L 282.055047 109.498521 
L 287.171787 109.10924 
L 290.024758 108.401149 
L 291.513264 107.612202 
L 291.947412 107.463693 
L 292.102464 107.623369 
L 292.133475 107.544619 
L 292.257517 106.372914 
L 292.815707 97.305391 
L 294.490277 63.132753 
L 295.172509 56.416577 
L 295.885751 52.327986 
L 296.412931 50.499758 
L 297.064152 49.363456 
L 297.560321 49.150401 
L 298.242553 49.938207 
L 299.451965 53.129901 
L 301.839777 63.763908 
L 303.793441 74.605799 
L 304.723758 80.393261 
L 305.188916 83.547143 
L 305.530032 87.812584 
L 306.770454 106.505498 
L 307.173591 108.485081 
L 307.452686 109.024373 
L 307.607739 108.955359 
L 307.979865 108.740671 
L 308.289971 108.815896 
L 308.848161 109.154476 
L 309.313319 109.371523 
L 310.429699 109.559901 
L 310.925868 109.565288 
L 311.732142 109.555931 
L 312.352353 109.525969 
L 317.096967 109.229945 
L 319.019621 108.934089 
L 320.384085 108.597527 
L 321.965623 107.935178 
L 322.957961 107.434079 
L 323.113013 107.580492 
L 323.144024 107.491848 
L 323.268066 106.253223 
L 323.826256 96.846176 
L 325.407794 64.074056 
L 325.965984 58.109625 
L 326.493163 54.556037 
L 326.958321 52.508469 
L 327.45449 51.059916 
L 328.01268 50.19761 
L 328.632891 50.196364 
L 329.501186 51.687218 
L 329.873313 52.660935 
L 331.95102 60.865827 
L 332.881336 65.262572 
L 335.424201 79.4155 
L 336.447549 87.234518 
L 336.912708 95.38914 
L 337.470897 103.946846 
L 337.905045 107.392666 
L 338.308182 108.926017 
L 338.525256 109.110917 
L 339.269509 108.931538 
L 340.633973 109.530264 
L 341.719343 109.594885 
L 345.068482 109.441968 
L 348.510653 109.167457 
L 350.278254 108.86343 
L 351.797771 108.443707 
L 352.85213 107.984432 
L 353.937499 107.395946 
L 353.99952 107.451996 
L 353.99952 107.451996 
" clip-path="url(#pc6da5cd3f3)" style="fill: none; stroke: #000000; stroke-linecap: square"/>
   </g>
   <g id="line2d_33">
    <path d="M 245.493609 110.076623 
L 249.307907 109.982954 
L 249.618012 109.447714 
L 250.083171 108.657228 
L 250.517318 108.512374 
L 254.02151 108.485347 
L 255.447996 108.513407 
L 257.308629 108.324843 
L 258.952188 107.875806 
L 260.905852 107.087485 
L 261.091916 106.519724 
L 261.371011 103.522272 
L 262.022232 92.134239 
L 263.386696 68.59622 
L 263.975897 61.689525 
L 264.596108 56.471215 
L 265.123287 53.290059 
L 265.650466 50.959104 
L 266.270677 49.117706 
L 266.580783 48.396611 
L 266.797857 48.113456 
L 267.480089 47.748442 
L 267.976257 47.788036 
L 268.255352 48.192086 
L 268.627479 48.569574 
L 269.83689 51.04288 
L 270.36407 52.567879 
L 270.612154 53.490849 
L 271.51146 56.664664 
L 271.790555 57.766908 
L 272.720871 61.730156 
L 272.999966 62.950755 
L 273.496135 65.252723 
L 274.054325 68.258606 
L 274.860599 73.079267 
L 275.201715 77.350166 
L 276.287085 95.580645 
L 276.628201 99.545991 
L 277.403464 104.76705 
L 277.899633 106.627123 
L 278.364791 107.570829 
L 278.798939 108.041911 
L 279.326118 108.323348 
L 280.039361 108.4588 
L 282.179089 108.481806 
L 283.481532 108.473373 
L 286.892692 108.501326 
L 288.505241 108.289268 
L 289.869705 107.90675 
L 290.582948 107.640887 
L 291.978422 106.965168 
L 292.102464 106.514396 
L 292.41257 103.080597 
L 293.094802 90.963363 
L 294.273203 70.281376 
L 294.955435 61.950617 
L 295.606656 56.452418 
L 296.133836 53.292243 
L 296.878089 50.192983 
L 297.219205 49.180578 
L 297.560321 48.479344 
L 297.808405 48.086936 
L 298.0875 47.906181 
L 298.397606 47.652726 
L 298.428616 47.683322 
L 298.769732 47.794403 
L 298.986806 47.783502 
L 299.420954 48.318727 
L 299.576007 48.411922 
L 300.32026 49.830088 
L 300.692386 50.690116 
L 300.87845 51.115058 
L 301.312597 52.4485 
L 301.46765 52.834445 
L 304.568705 65.54037 
L 305.40599 69.8847 
L 305.778117 72.20129 
L 306.150243 76.59964 
L 307.11157 92.301355 
L 307.607739 99.288189 
L 308.383003 104.614852 
L 308.910182 106.625971 
L 309.37534 107.572217 
L 309.840498 108.068957 
L 310.615762 108.398219 
L 311.701131 108.491788 
L 313.003574 108.482276 
L 316.538777 108.497794 
L 317.531115 108.511323 
L 318.151326 108.488688 
L 320.322064 108.085908 
L 321.407433 107.715313 
L 322.275729 107.344092 
L 323.019982 106.90764 
L 323.113013 106.51828 
L 323.423119 103.093132 
L 324.136361 90.344635 
L 325.221731 71.085413 
L 326.028005 61.27967 
L 326.586195 56.661124 
L 327.175395 53.126646 
L 327.795606 50.535662 
L 328.384807 48.908529 
L 329.005018 47.988712 
L 329.191081 47.810298 
L 329.408155 47.640127 
L 329.68725 47.814993 
L 330.059376 47.882691 
L 330.400492 48.332915 
L 330.617566 48.462956 
L 331.454851 50.207237 
L 331.764956 50.807695 
L 331.920009 51.242154 
L 332.323146 52.48337 
L 332.50921 52.965667 
L 333.005378 54.655345 
L 333.222452 55.516336 
L 333.594579 56.877664 
L 333.811653 57.735563 
L 334.2458 59.468831 
L 334.462874 60.495633 
L 334.928032 62.441676 
L 336.850686 72.851288 
L 337.222813 77.587925 
L 338.122119 92.285445 
L 338.618288 99.289848 
L 339.393551 104.610374 
L 339.85871 106.452759 
L 340.354878 107.528705 
L 340.851047 108.065711 
L 341.409237 108.343691 
L 342.742691 108.492162 
L 343.673007 108.482627 
L 344.94444 108.475534 
L 350.216233 108.350372 
L 353.41032 107.287025 
L 353.937499 107.150563 
L 353.99952 107.23758 
L 353.99952 107.23758 
" clip-path="url(#pc6da5cd3f3)" style="fill: none; stroke-dasharray: 3.7,1.6; stroke-dashoffset: 0; stroke: #ff7f0e"/>
   </g>
   <g id="patch_16">
    <path d="M 245.493609 110.076623 
L 245.493609 37.064832 
" style="fill: none; stroke: #000000; stroke-width: 0.8; stroke-linejoin: miter; stroke-linecap: square"/>
   </g>
   <g id="patch_17">
    <path d="M 245.493609 110.076623 
L 353.99952 110.076623 
" style="fill: none; stroke: #000000; stroke-width: 0.8; stroke-linejoin: miter; stroke-linecap: square"/>
   </g>
   <g id="legend_1">
    <g id="line2d_34">
     <path d="M 161.140827 119.582422 
L 164.806027 119.582422 
L 168.471227 119.582422 
" style="fill: none; stroke: #000000; stroke-linecap: square"/>
    </g>
    <g id="text_21">
     <!-- Measured -->
     <g transform="translate(173.052727 122.789472) scale(0.09163 -0.09163)">
      <defs>
       <path id="MyriadPro-Regular-4d" d="M 4224 0 
L 4774 0 
L 4506 4314 
L 3795 4314 
L 3027 2227 
C 2835 1683 2682 1210 2566 774 
L 2554 774 
C 2438 1222 2298 1696 2118 2227 
L 1382 4314 
L 672 4314 
L 371 0 
L 902 0 
L 1018 1850 
C 1056 2502 1088 3219 1101 3757 
L 1114 3757 
C 1235 3245 1402 2694 1606 2080 
L 2310 26 
L 2733 26 
L 3494 2118 
C 3712 2714 3885 3258 4038 3757 
L 4051 3757 
C 4051 3226 4090 2496 4122 1894 
L 4224 0 
z
" transform="scale(0.015625)"/>
       <path id="MyriadPro-Regular-61" d="M 2643 1901 
C 2643 2515 2413 3162 1466 3162 
C 1075 3162 698 3053 442 2893 
L 570 2515 
C 787 2662 1088 2746 1382 2746 
C 2016 2752 2086 2285 2086 2035 
L 2086 1971 
C 890 1978 224 1568 224 819 
C 224 371 544 -70 1171 -70 
C 1613 -70 1946 147 2118 390 
L 2138 390 
L 2182 0 
L 2688 0 
C 2656 211 2643 474 2643 742 
L 2643 1901 
z
M 2099 1043 
C 2099 992 2093 928 2074 864 
C 1984 602 1722 346 1312 346 
C 1030 346 787 512 787 883 
C 787 1485 1485 1594 2099 1581 
L 2099 1043 
z
" transform="scale(0.015625)"/>
       <path id="MyriadPro-Regular-75" d="M 3059 3098 
L 2496 3098 
L 2496 1203 
C 2496 1094 2477 992 2445 915 
C 2342 659 2080 397 1702 397 
C 1197 397 1011 800 1011 1389 
L 1011 3098 
L 448 3098 
L 448 1286 
C 448 205 1030 -70 1517 -70 
C 2067 -70 2400 256 2541 506 
L 2554 506 
L 2586 0 
L 3085 0 
C 3066 243 3059 525 3059 851 
L 3059 3098 
z
" transform="scale(0.015625)"/>
       <path id="MyriadPro-Regular-72" d="M 467 0 
L 1030 0 
L 1030 1651 
C 1030 1741 1037 1837 1050 1914 
C 1126 2336 1408 2630 1805 2630 
C 1882 2630 1939 2630 1997 2618 
L 1997 3149 
C 1946 3155 1901 3162 1843 3162 
C 1466 3162 1120 2899 979 2483 
L 960 2483 
L 934 3098 
L 442 3098 
C 461 2810 467 2496 467 2131 
L 467 0 
z
" transform="scale(0.015625)"/>
       <path id="MyriadPro-Regular-64" d="M 2579 4544 
L 2579 2694 
L 2566 2694 
C 2426 2938 2112 3162 1632 3162 
C 883 3162 237 2534 243 1504 
C 243 563 826 -70 1574 -70 
C 2080 -70 2451 192 2618 538 
L 2637 538 
L 2662 0 
L 3162 0 
C 3149 211 3136 525 3136 800 
L 3136 4544 
L 2579 4544 
z
M 2579 1299 
C 2579 1210 2573 1133 2554 1056 
C 2451 640 2106 384 1728 384 
C 1126 384 813 902 813 1530 
C 813 2208 1158 2720 1741 2720 
C 2163 2720 2470 2426 2554 2074 
C 2573 2003 2579 1907 2579 1837 
L 2579 1299 
z
" transform="scale(0.015625)"/>
      </defs>
      <use xlink:href="#MyriadPro-Regular-4d"/>
      <use xlink:href="#MyriadPro-Regular-65" transform="translate(80.399994 0)"/>
      <use xlink:href="#MyriadPro-Regular-61" transform="translate(130.499985 0)"/>
      <use xlink:href="#MyriadPro-Regular-73" transform="translate(178.699982 0)"/>
      <use xlink:href="#MyriadPro-Regular-75" transform="translate(218.299973 0)"/>
      <use xlink:href="#MyriadPro-Regular-72" transform="translate(273.399963 0)"/>
      <use xlink:href="#MyriadPro-Regular-65" transform="translate(306.09996 0)"/>
      <use xlink:href="#MyriadPro-Regular-64" transform="translate(356.199951 0)"/>
     </g>
    </g>
    <g id="line2d_35">
     <path d="M 161.140827 129.73474 
L 164.806027 129.73474 
L 168.471227 129.73474 
" style="fill: none; stroke-dasharray: 3.7,1.6; stroke-dashoffset: 0; stroke: #ff7f0e"/>
    </g>
    <g id="text_22">
     <!-- Predicted -->
     <g transform="translate(173.052727 132.94179) scale(0.09163 -0.09163)">
      <defs>
       <path id="MyriadPro-Regular-50" d="M 486 0 
L 1043 0 
L 1043 1728 
C 1171 1696 1325 1690 1491 1690 
C 2035 1690 2509 1850 2810 2163 
C 3027 2387 3142 2694 3142 3085 
C 3142 3469 2995 3782 2765 3987 
C 2509 4218 2106 4346 1555 4346 
C 1107 4346 755 4307 486 4262 
L 486 0 
z
M 1043 3859 
C 1139 3885 1325 3904 1568 3904 
C 2176 3904 2586 3629 2586 3053 
C 2586 2470 2176 2138 1504 2138 
C 1318 2138 1165 2150 1043 2182 
L 1043 3859 
z
" transform="scale(0.015625)"/>
       <path id="MyriadPro-Regular-63" d="M 2579 531 
C 2419 461 2208 384 1888 384 
C 1274 384 813 826 813 1542 
C 813 2182 1197 2714 1907 2714 
C 2214 2714 2426 2637 2560 2566 
L 2688 2995 
C 2534 3078 2240 3162 1907 3162 
C 896 3162 243 2464 243 1510 
C 243 563 851 -70 1786 -70 
C 2202 -70 2528 38 2675 109 
L 2579 531 
z
" transform="scale(0.015625)"/>
       <path id="MyriadPro-Regular-74" d="M 595 3674 
L 595 3098 
L 115 3098 
L 115 2669 
L 595 2669 
L 595 979 
C 595 614 659 339 813 166 
C 947 19 1158 -70 1421 -70 
C 1638 -70 1811 -32 1920 6 
L 1894 435 
C 1811 410 1722 397 1568 397 
C 1254 397 1146 614 1146 998 
L 1146 2669 
L 1952 2669 
L 1952 3098 
L 1146 3098 
L 1146 3840 
L 595 3674 
z
" transform="scale(0.015625)"/>
      </defs>
      <use xlink:href="#MyriadPro-Regular-50"/>
      <use xlink:href="#MyriadPro-Regular-72" transform="translate(53.199997 0)"/>
      <use xlink:href="#MyriadPro-Regular-65" transform="translate(85.899994 0)"/>
      <use xlink:href="#MyriadPro-Regular-64" transform="translate(135.999985 0)"/>
      <use xlink:href="#MyriadPro-Regular-69" transform="translate(192.399979 0)"/>
      <use xlink:href="#MyriadPro-Regular-63" transform="translate(215.799973 0)"/>
      <use xlink:href="#MyriadPro-Regular-74" transform="translate(260.59996 0)"/>
      <use xlink:href="#MyriadPro-Regular-65" transform="translate(293.699951 0)"/>
      <use xlink:href="#MyriadPro-Regular-64" transform="translate(343.799942 0)"/>
     </g>
    </g>
   </g>
  </g>
  <g id="axes_7">
   <g id="patch_18">
    <path d="M 37.744375 220.064207 
L 146.250286 220.064207 
L 146.250286 147.052416 
L 37.744375 147.052416 
z
" style="fill: #ffffff"/>
   </g>
   <g id="matplotlib.axis_13">
    <g id="xtick_14">
     <g id="line2d_36">
      <g>
       <use xlink:href="#m96cc728672" x="55.828693" y="220.064207" style="stroke: #000000; stroke-width: 0.8"/>
      </g>
     </g>
     <g id="text_23">
      <!-- 42 -->
      <g transform="translate(50.186037 234.874207) scale(0.11 -0.11)">
       <defs>
        <path id="MyriadPro-Regular-32" d="M 2944 0 
L 2944 467 
L 1082 467 
L 1082 480 
L 1408 787 
C 2285 1632 2842 2253 2842 3021 
C 2842 3616 2464 4230 1568 4230 
C 1094 4230 678 4045 397 3808 
L 576 3411 
C 768 3571 1082 3763 1459 3763 
C 2080 3763 2278 3373 2278 2950 
C 2278 2323 1792 1786 730 774 
L 288 346 
L 288 0 
L 2944 0 
z
" transform="scale(0.015625)"/>
       </defs>
       <use xlink:href="#MyriadPro-Regular-34"/>
       <use xlink:href="#MyriadPro-Regular-32" transform="translate(51.299988 0)"/>
      </g>
     </g>
    </g>
    <g id="xtick_15">
     <g id="line2d_37">
      <g>
       <use xlink:href="#m96cc728672" x="79.941118" y="220.064207" style="stroke: #000000; stroke-width: 0.8"/>
      </g>
     </g>
     <g id="text_24">
      <!-- 43 -->
      <g transform="translate(74.298462 234.874207) scale(0.11 -0.11)">
       <defs>
        <path id="MyriadPro-Regular-33" d="M 269 211 
C 474 77 883 -70 1350 -70 
C 2342 -70 2867 512 2867 1178 
C 2861 1760 2451 2144 1939 2240 
L 1939 2253 
C 2445 2438 2707 2803 2707 3238 
C 2707 3744 2336 4230 1517 4230 
C 1069 4230 646 4070 422 3910 
L 576 3501 
C 755 3629 1075 3776 1408 3776 
C 1926 3776 2138 3482 2138 3149 
C 2138 2656 1619 2445 1210 2445 
L 896 2445 
L 896 2022 
L 1210 2022 
C 1754 2022 2278 1773 2285 1190 
C 2291 838 2061 384 1344 384 
C 947 384 582 544 422 640 
L 269 211 
z
" transform="scale(0.015625)"/>
       </defs>
       <use xlink:href="#MyriadPro-Regular-34"/>
       <use xlink:href="#MyriadPro-Regular-33" transform="translate(51.299988 0)"/>
      </g>
     </g>
    </g>
    <g id="xtick_16">
     <g id="line2d_38">
      <g>
       <use xlink:href="#m96cc728672" x="104.053543" y="220.064207" style="stroke: #000000; stroke-width: 0.8"/>
      </g>
     </g>
     <g id="text_25">
      <!-- 44 -->
      <g transform="translate(98.410886 234.874207) scale(0.11 -0.11)">
       <use xlink:href="#MyriadPro-Regular-34"/>
       <use xlink:href="#MyriadPro-Regular-34" transform="translate(51.299988 0)"/>
      </g>
     </g>
    </g>
    <g id="xtick_17">
     <g id="line2d_39">
      <g>
       <use xlink:href="#m96cc728672" x="128.165967" y="220.064207" style="stroke: #000000; stroke-width: 0.8"/>
      </g>
     </g>
     <g id="text_26">
      <!-- 45 -->
      <g transform="translate(122.523311 234.874207) scale(0.11 -0.11)">
       <use xlink:href="#MyriadPro-Regular-34"/>
       <use xlink:href="#MyriadPro-Regular-35" transform="translate(51.299988 0)"/>
      </g>
     </g>
    </g>
    <g id="xtick_18">
     <g id="line2d_40">
      <g>
       <use xlink:href="#md6d3d267cd" x="43.772481" y="220.064207" style="stroke: #000000; stroke-width: 0.6"/>
      </g>
     </g>
    </g>
    <g id="xtick_19">
     <g id="line2d_41">
      <g>
       <use xlink:href="#md6d3d267cd" x="67.884906" y="220.064207" style="stroke: #000000; stroke-width: 0.6"/>
      </g>
     </g>
    </g>
    <g id="xtick_20">
     <g id="line2d_42">
      <g>
       <use xlink:href="#md6d3d267cd" x="91.99733" y="220.064207" style="stroke: #000000; stroke-width: 0.6"/>
      </g>
     </g>
    </g>
    <g id="xtick_21">
     <g id="line2d_43">
      <g>
       <use xlink:href="#md6d3d267cd" x="116.109755" y="220.064207" style="stroke: #000000; stroke-width: 0.6"/>
      </g>
     </g>
    </g>
    <g id="xtick_22">
     <g id="line2d_44">
      <g>
       <use xlink:href="#md6d3d267cd" x="140.222179" y="220.064207" style="stroke: #000000; stroke-width: 0.6"/>
      </g>
     </g>
    </g>
    <g id="text_27">
     <!-- $L_{MTC}$ [mm] -->
     <g transform="translate(67.85233 248.861864) scale(0.11 -0.11)">
      <defs>
       <path id="MinionPro-ItDisp-4c" d="M 3008 966 
C 2854 672 2726 499 2598 358 
C 2438 186 2259 141 1811 141 
C 1498 141 1318 141 1222 218 
C 1133 301 1114 461 1158 691 
L 1690 3475 
C 1786 3974 1805 4019 2304 4070 
L 2323 4147 
L 800 4147 
L 787 4070 
C 1274 4019 1306 3987 1210 3475 
L 666 678 
C 563 160 499 122 45 77 
L 26 0 
L 2720 0 
C 2810 205 3014 749 3091 954 
L 3008 966 
z
" transform="scale(0.015625)"/>
       <path id="MinionPro-ItDisp-4d" d="M 5606 4147 
L 4685 4147 
L 2669 813 
C 2406 1984 2170 3078 1939 4147 
L 1018 4147 
L 992 4070 
C 1581 4013 1619 3955 1427 3277 
L 1094 2138 
C 819 1203 685 736 595 499 
C 499 211 390 109 -13 77 
L -32 0 
L 1293 0 
L 1306 77 
C 851 134 800 192 845 525 
C 883 774 992 1197 1190 1920 
L 1619 3501 
L 1632 3501 
C 1869 2342 2106 1184 2317 -19 
L 2387 -19 
L 4512 3616 
L 4525 3616 
C 4384 2688 4243 1805 4096 774 
C 4000 166 3962 128 3469 77 
L 3450 0 
L 5011 0 
L 5024 77 
C 4525 128 4486 147 4570 774 
C 4698 1696 4794 2464 4934 3424 
C 5024 3981 5037 4026 5581 4070 
L 5606 4147 
z
" transform="scale(0.015625)"/>
       <path id="MinionPro-ItDisp-54" d="M 4013 4307 
C 3898 4186 3840 4147 3680 4147 
L 1210 4147 
C 1043 4147 966 4160 902 4307 
L 838 4307 
C 768 3987 653 3578 557 3232 
L 653 3226 
C 742 3462 858 3680 966 3821 
C 1101 3981 1286 4019 1850 4019 
L 2150 4019 
L 1523 704 
C 1427 173 1363 122 838 77 
L 819 0 
L 2502 0 
L 2522 77 
C 1971 122 1914 173 2010 704 
L 2637 4019 
L 3021 4019 
C 3546 4019 3731 3981 3782 3776 
C 3834 3603 3846 3405 3846 3232 
L 3949 3251 
C 3974 3584 4026 4058 4077 4307 
L 4013 4307 
z
" transform="scale(0.015625)"/>
       <path id="MinionPro-ItDisp-43" d="M 3654 1037 
C 3334 544 2925 38 2246 38 
C 1357 38 966 851 966 1734 
C 966 2931 1702 4109 2874 4109 
C 3501 4109 3866 3853 3904 3110 
L 3987 3123 
C 4013 3443 4038 3725 4058 4038 
C 3898 4096 3514 4237 2989 4237 
C 1549 4237 390 3226 390 1734 
C 390 538 1158 -90 2227 -90 
C 2637 -90 3053 26 3238 70 
C 3386 275 3642 794 3725 998 
L 3654 1037 
z
" transform="scale(0.015625)"/>
      </defs>
      <use xlink:href="#MinionPro-ItDisp-4c" transform="translate(0 0.40625)"/>
      <use xlink:href="#MinionPro-ItDisp-4d" transform="translate(49.799988 -12.765625) scale(0.7)"/>
      <use xlink:href="#MinionPro-ItDisp-54" transform="translate(108.389975 -12.765625) scale(0.7)"/>
      <use xlink:href="#MinionPro-ItDisp-43" transform="translate(148.709969 -12.765625) scale(0.7)"/>
      <use xlink:href="#MyriadPro-Regular-20" transform="translate(193.395279 0.40625)"/>
      <use xlink:href="#MyriadPro-Regular-5b" transform="translate(214.595276 0.40625)"/>
      <use xlink:href="#MyriadPro-Regular-6d" transform="translate(242.99527 0.40625)"/>
      <use xlink:href="#MyriadPro-Regular-6d" transform="translate(326.395264 0.40625)"/>
      <use xlink:href="#MyriadPro-Regular-5d" transform="translate(409.795258 0.40625)"/>
     </g>
    </g>
   </g>
   <g id="matplotlib.axis_14">
    <g id="ytick_13">
     <g id="line2d_45">
      <g>
       <use xlink:href="#mb61f239e97" x="37.744375" y="220.064207" style="stroke: #000000; stroke-width: 0.8"/>
      </g>
     </g>
     <g id="text_28">
      <!-- 0 -->
      <g transform="translate(25.101719 223.969207) scale(0.11 -0.11)">
       <use xlink:href="#MyriadPro-Regular-30"/>
      </g>
     </g>
    </g>
    <g id="ytick_14">
     <g id="line2d_46">
      <g>
       <use xlink:href="#mb61f239e97" x="37.744375" y="189.322401" style="stroke: #000000; stroke-width: 0.8"/>
      </g>
     </g>
     <g id="text_29">
      <!-- 4 -->
      <g transform="translate(25.101719 193.227401) scale(0.11 -0.11)">
       <use xlink:href="#MyriadPro-Regular-34"/>
      </g>
     </g>
    </g>
    <g id="ytick_15">
     <g id="line2d_47">
      <g>
       <use xlink:href="#mb61f239e97" x="37.744375" y="158.580594" style="stroke: #000000; stroke-width: 0.8"/>
      </g>
     </g>
     <g id="text_30">
      <!-- 8 -->
      <g transform="translate(25.101719 162.485594) scale(0.11 -0.11)">
       <use xlink:href="#MyriadPro-Regular-38"/>
      </g>
     </g>
    </g>
    <g id="ytick_16">
     <g id="line2d_48">
      <g>
       <use xlink:href="#mede25b13fd" x="37.744375" y="204.693304" style="stroke: #000000; stroke-width: 0.6"/>
      </g>
     </g>
    </g>
    <g id="ytick_17">
     <g id="line2d_49">
      <g>
       <use xlink:href="#mede25b13fd" x="37.744375" y="173.951497" style="stroke: #000000; stroke-width: 0.6"/>
      </g>
     </g>
    </g>
    <g id="text_31">
     <!-- $F_{SEE}$ [N] -->
     <g transform="translate(18.924062 200.113312) rotate(-90) scale(0.11 -0.11)">
      <use xlink:href="#MinionPro-ItDisp-46" transform="translate(0 0.40625)"/>
      <use xlink:href="#MinionPro-ItDisp-53" transform="translate(49.699997 -12.765625) scale(0.7)"/>
      <use xlink:href="#MinionPro-ItDisp-45" transform="translate(80.779993 -12.765625) scale(0.7)"/>
      <use xlink:href="#MinionPro-ItDisp-45" transform="translate(117.529982 -12.765625) scale(0.7)"/>
      <use xlink:href="#MyriadPro-Regular-20" transform="translate(156.475284 0.40625)"/>
      <use xlink:href="#MyriadPro-Regular-5b" transform="translate(177.675281 0.40625)"/>
      <use xlink:href="#MyriadPro-Regular-4e" transform="translate(206.075275 0.40625)"/>
      <use xlink:href="#MyriadPro-Regular-5d" transform="translate(271.875262 0.40625)"/>
     </g>
    </g>
   </g>
   <g id="line2d_50">
    <path d="M 43.924967 219.977688 
L 43.994762 219.943466 
L 45.059467 219.913462 
L 50.355775 219.908616 
L 128.409528 219.046767 
L 140.054093 218.936197 
L 140.173651 218.996873 
L 139.177573 218.608758 
L 137.68934 217.496919 
L 136.292638 216.186435 
L 135.314436 214.875384 
L 132.599002 210.370391 
L 131.323207 207.769159 
L 130.156819 204.926662 
L 128.905995 201.095029 
L 127.074986 194.433319 
L 125.806287 190.416455 
L 122.472942 177.896476 
L 119.914883 171.241408 
L 118.46258 168.06703 
L 117.481772 166.252779 
L 115.813259 163.745546 
L 113.624923 160.909531 
L 112.051265 159.290019 
L 109.936766 157.445193 
L 108.273103 156.130824 
L 106.676989 155.172825 
L 103.990479 153.796345 
L 102.305437 153.122515 
L 99.430383 152.383776 
L 97.10677 151.912707 
L 95.730639 151.825809 
L 93.341004 151.668219 
L 90.743602 151.63328 
L 84.402979 152.34644 
L 82.966306 152.668421 
L 79.147453 153.511004 
L 76.841804 154.268594 
L 73.873062 155.143331 
L 72.199698 155.835661 
L 70.388002 156.458089 
L 67.75413 157.427046 
L 66.377101 158.136775 
L 65.309881 158.872183 
L 64.309491 159.857605 
L 63.647385 160.871843 
L 62.819102 162.616508 
L 62.030521 164.891321 
L 61.318382 167.79221 
L 59.978451 174.254719 
L 58.747299 179.527007 
L 56.654179 187.172279 
L 54.703522 193.624587 
L 53.322181 197.686186 
L 52.192173 200.466698 
L 50.566775 203.708637 
L 48.941108 206.445702 
L 47.377511 208.695675 
L 45.236693 211.323201 
L 44.288313 212.527018 
L 44.121686 212.932463 
L 44.189594 213.227847 
L 44.665042 213.531561 
L 48.810142 215.1678 
L 51.454434 216.41164 
L 52.832631 216.861632 
L 55.128308 217.359533 
L 58.676427 217.913204 
L 65.135259 218.596234 
L 70.420339 218.813187 
L 86.56311 219.095548 
L 92.720487 219.01032 
L 101.258069 218.992492 
L 133.214938 218.939714 
L 140.176705 218.982277 
L 140.115354 219.066368 
L 139.617719 219.189192 
L 138.495885 219.274436 
L 137.791382 219.110869 
L 136.885219 218.602566 
L 135.255241 217.286671 
L 134.298326 216.315113 
L 133.243951 214.82441 
L 131.359586 211.441813 
L 129.614002 208.350819 
L 128.249099 205.904613 
L 127.07292 203.263751 
L 126.112054 200.585356 
L 124.321197 194.527295 
L 123.040012 190.348268 
L 118.560221 177.176613 
L 116.374131 172.502299 
L 114.624864 169.111644 
L 113.657709 167.525444 
L 111.900717 165.205691 
L 109.979254 162.876175 
L 108.428501 161.357212 
L 106.334662 159.650329 
L 104.651866 158.420321 
L 103.053237 157.549748 
L 100.080004 156.23076 
L 98.383554 155.625702 
L 93.733453 154.660872 
L 92.057124 154.504851 
L 90.037751 154.441613 
L 86.820191 154.417895 
L 82.755125 154.925508 
L 80.769347 155.307649 
L 77.857465 156.100817 
L 75.507712 156.714231 
L 68.562023 159.250741 
L 67.432195 159.778415 
L 62.998753 161.595817 
L 61.96917 162.36114 
L 61.253618 163.144699 
L 60.591063 164.139114 
L 59.757929 165.878697 
L 59.160677 167.519969 
L 58.213644 170.969641 
L 57.073396 176.297248 
L 55.418535 183.638012 
L 53.960304 189.14995 
L 52.638787 193.447391 
L 51.536894 196.469043 
L 49.951379 200.094919 
L 48.728491 202.479103 
L 46.728699 205.854606 
L 44.519075 209.52866 
L 44.45961 210.056517 
L 44.605218 210.462131 
L 45.172108 210.961449 
L 49.69304 213.79257 
L 51.917845 215.199064 
L 53.276819 215.794342 
L 54.977221 216.334209 
L 57.904464 217.009713 
L 64.693856 218.05757 
L 68.500223 218.418299 
L 73.769134 218.674544 
L 90.205545 218.966238 
L 133.031603 218.882519 
L 140.037835 218.815922 
L 140.186227 218.888582 
L 140.164848 218.922394 
L 139.912617 218.912145 
L 139.285184 218.591052 
L 137.753206 217.439689 
L 136.236138 215.946759 
L 135.113675 214.354286 
L 133.603883 211.587138 
L 130.942795 206.320377 
L 129.685593 203.718431 
L 128.621966 200.984824 
L 127.437433 197.307926 
L 123.852576 185.439627 
L 120.281732 175.045684 
L 117.821494 169.990134 
L 116.155495 166.950107 
L 114.757357 165.024072 
L 112.198759 161.916065 
L 110.644773 160.362412 
L 108.587044 158.697586 
L 106.60423 157.284467 
L 105.272383 156.578035 
L 102.956405 155.624625 
L 100.928857 154.944667 
L 99.575452 154.708902 
L 93.790312 154.283107 
L 92.03871 154.395899 
L 88.802107 154.603336 
L 82.989481 155.794051 
L 79.523373 156.92457 
L 77.174339 157.633406 
L 75.818689 158.286127 
L 74.304316 158.841301 
L 71.315543 159.874294 
L 67.52732 161.568248 
L 65.481089 162.414861 
L 64.410455 163.08311 
L 63.679004 163.757512 
L 62.991118 164.634916 
L 62.352367 165.764453 
L 61.553097 167.708724 
L 60.776913 170.190483 
L 59.620226 174.962154 
L 57.572468 183.972735 
L 55.782779 190.376402 
L 54.384461 194.428073 
L 52.857692 198.112865 
L 51.283046 201.367727 
L 48.962936 205.442846 
L 46.766785 208.677945 
L 44.311128 211.998399 
L 44.240256 212.408252 
L 44.381462 212.708 
L 44.953383 213.053828 
L 52.206545 216.017115 
L 54.514169 216.593836 
L 58.320357 217.242107 
L 63.045642 217.845121 
L 70.089421 218.404469 
L 79.491216 218.796079 
L 90.919481 219.048442 
L 107.065036 219.016141 
L 119.67963 219.006281 
L 125.518665 218.875266 
L 131.679366 218.740856 
L 138.152481 218.658758 
L 139.96301 218.717133 
L 140.173202 218.786137 
L 140.173202 218.786137 
" clip-path="url(#p3da8ac7365)" style="fill: none; stroke: #000000; stroke-linecap: square"/>
   </g>
   <g id="line2d_51">
    <path d="M 43.924967 220.064207 
L 62.38668 219.971933 
L 65.324702 219.57766 
L 70.600529 218.802677 
L 73.535856 218.687513 
L 84.391033 218.646868 
L 108.750707 218.669105 
L 133.981152 218.601251 
L 140.173651 218.45093 
L 140.135296 218.4264 
L 139.177573 218.143109 
L 137.68934 217.497206 
L 136.714191 216.855942 
L 135.942767 216.032918 
L 135.01837 214.525923 
L 134.346563 213.452048 
L 133.057204 211.894191 
L 131.747364 210.249528 
L 130.527889 208.466418 
L 129.483036 206.491055 
L 128.658884 204.287665 
L 127.402222 200.460868 
L 125.806287 196.979506 
L 124.898597 193.854987 
L 122.472942 185.638396 
L 120.641484 181.225395 
L 119.177863 177.613239 
L 116.925481 172.838644 
L 113.367123 167.468028 
L 112.051265 165.63683 
L 110.836282 164.549128 
L 109.368528 163.225185 
L 106.676989 160.584111 
L 105.459939 159.912774 
L 103.419097 158.739367 
L 100.954637 157.252617 
L 94.872534 155.417754 
L 90.743602 154.971384 
L 88.766716 154.760063 
L 86.956187 154.854436 
L 84.953072 154.841029 
L 83.275756 154.831681 
L 80.574874 155.234371 
L 78.596551 155.396171 
L 77.160506 155.596723 
L 75.614155 156.013346 
L 73.873062 156.3335 
L 71.31707 156.790629 
L 68.32641 157.746272 
L 62.030521 159.935364 
L 61.134509 160.516876 
L 60.398926 161.256065 
L 59.523394 162.458858 
L 57.883534 165.186453 
L 55.693672 169.248749 
L 54.025876 172.862176 
L 52.574651 176.54034 
L 48.941108 186.776205 
L 45.565635 195.98747 
L 44.463024 199.211381 
L 44.173874 200.551028 
L 44.124201 201.722147 
L 44.306278 202.77474 
L 44.665042 203.766255 
L 45.443113 205.172413 
L 47.089889 207.330411 
L 51.181812 211.937679 
L 52.556866 213.238137 
L 53.970723 214.292135 
L 55.713793 215.303834 
L 57.482372 216.094761 
L 60.451923 217.037969 
L 63.391831 217.649639 
L 67.191102 218.120239 
L 72.774044 218.44299 
L 79.542596 218.583064 
L 103.309779 218.659403 
L 140.114546 218.615348 
L 140.186586 218.704956 
L 139.827912 218.870473 
L 138.804167 219.025604 
L 137.791382 218.928626 
L 136.361265 218.437284 
L 135.255241 217.923295 
L 134.298326 217.253037 
L 133.560587 216.407494 
L 132.658736 214.878195 
L 131.602834 212.472348 
L 130.799882 210.499175 
L 130.053789 209.270456 
L 127.436805 205.720107 
L 126.412252 203.663272 
L 125.559086 201.438085 
L 124.081632 196.780411 
L 123.040012 193.799753 
L 120.402009 186.766689 
L 118.819997 181.94517 
L 117.467221 179.052716 
L 114.857782 173.727774 
L 113.657709 171.22079 
L 112.791968 170.036579 
L 110.777895 167.498832 
L 108.428501 164.3373 
L 107.536172 163.580067 
L 104.926733 161.469406 
L 102.489311 159.4852 
L 100.382177 158.554062 
L 99.222706 158.024278 
L 96.741628 156.830131 
L 92.329296 155.872348 
L 90.956758 155.518925 
L 86.820191 155.330329 
L 85.174942 155.148798 
L 78.473041 155.686536 
L 75.507712 156.218749 
L 72.648288 156.683575 
L 70.521842 157.2737 
L 67.126428 158.009149 
L 59.551599 161.167347 
L 58.772001 161.697474 
L 57.836286 162.586564 
L 57.073396 163.580308 
L 55.688102 165.879952 
L 53.960304 169.117792 
L 52.283436 172.695601 
L 50.352182 177.426654 
L 47.919969 184.146706 
L 45.057491 192.600559 
L 44.640699 194.3145 
L 44.455748 195.828874 
L 44.506769 197.19137 
L 44.764748 198.450236 
L 45.172108 199.657095 
L 46.019345 201.363692 
L 47.719568 204.011771 
L 52.18858 210.494375 
L 53.838859 212.297829 
L 55.559472 213.729372 
L 57.021746 214.693796 
L 59.094925 215.752872 
L 60.859912 216.450379 
L 63.514623 217.205676 
L 66.745387 217.796174 
L 70.253712 218.178141 
L 74.357313 218.413908 
L 83.179193 218.597038 
L 130.966868 218.63399 
L 140.186227 218.428902 
L 140.071429 218.361832 
L 137.753206 217.44799 
L 136.694878 216.835749 
L 135.825365 216.053246 
L 134.795422 214.597985 
L 133.603883 212.294695 
L 132.17206 209.045716 
L 131.380156 207.836454 
L 129.685593 205.444324 
L 128.621966 203.44231 
L 127.437433 200.542056 
L 126.452853 197.453534 
L 125.537079 194.337061 
L 124.133102 190.839262 
L 122.826137 187.370787 
L 120.281732 179.97975 
L 115.349129 170.210845 
L 113.864848 168.398338 
L 112.47129 166.602109 
L 109.789093 163.333473 
L 103.865711 158.697923 
L 101.48964 157.657866 
L 98.748157 156.288717 
L 96.92137 155.948625 
L 95.164647 155.572556 
L 93.790312 155.173613 
L 92.960861 154.978367 
L 91.427535 154.966586 
L 89.360374 154.877922 
L 86.870494 154.615538 
L 83.851 154.931502 
L 81.92253 154.90524 
L 81.071611 154.966756 
L 76.622091 155.742138 
L 75.540409 155.808789 
L 73.674637 156.369979 
L 71.601458 156.859044 
L 70.242843 157.022034 
L 69.394888 157.196008 
L 63.679004 159.081466 
L 60.776913 159.859579 
L 60.008543 160.327765 
L 59.215561 161.027634 
L 58.338861 162.072129 
L 57.011506 164.052765 
L 54.384461 168.546273 
L 52.074501 172.842469 
L 50.097166 177.031138 
L 48.578392 180.867696 
L 46.766785 186.170091 
L 45.1095 191.367846 
L 44.442813 194.045883 
L 44.250047 195.591688 
L 44.289301 196.976727 
L 44.536771 198.251834 
L 44.953383 199.456185 
L 45.77951 201.187869 
L 47.071654 203.367506 
L 51.348709 209.681504 
L 53.06501 211.634446 
L 54.790294 213.210584 
L 56.546118 214.455384 
L 58.628909 215.571646 
L 60.401171 216.30843 
L 63.045642 217.112732 
L 65.987437 217.693541 
L 70.390696 218.189682 
L 74.194728 218.410602 
L 80.366029 218.566943 
L 99.42203 218.655027 
L 122.016178 218.681827 
L 132.567114 218.615924 
L 140.173202 218.64828 
L 140.173202 218.64828 
" clip-path="url(#p3da8ac7365)" style="fill: none; stroke-dasharray: 3.7,1.6; stroke-dashoffset: 0; stroke: #ff7f0e"/>
   </g>
   <g id="patch_19">
    <path d="M 37.744375 220.064207 
L 37.744375 147.052416 
" style="fill: none; stroke: #000000; stroke-width: 0.8; stroke-linejoin: miter; stroke-linecap: square"/>
   </g>
   <g id="patch_20">
    <path d="M 37.744375 220.064207 
L 146.250286 220.064207 
" style="fill: none; stroke: #000000; stroke-width: 0.8; stroke-linejoin: miter; stroke-linecap: square"/>
   </g>
  </g>
  <g id="axes_8">
   <g id="patch_21">
    <path d="M 245.493609 220.064207 
L 353.99952 220.064207 
L 353.99952 147.052416 
L 245.493609 147.052416 
z
" style="fill: #ffffff"/>
   </g>
   <g id="matplotlib.axis_15">
    <g id="xtick_23">
     <g id="line2d_52">
      <g>
       <use xlink:href="#m96cc728672" x="255.357783" y="220.064207" style="stroke: #000000; stroke-width: 0.8"/>
      </g>
     </g>
     <g id="text_32">
      <!-- 40 -->
      <g transform="translate(249.715127 234.874207) scale(0.11 -0.11)">
       <use xlink:href="#MyriadPro-Regular-34"/>
       <use xlink:href="#MyriadPro-Regular-30" transform="translate(51.299988 0)"/>
      </g>
     </g>
    </g>
    <g id="xtick_24">
     <g id="line2d_53">
      <g>
       <use xlink:href="#m96cc728672" x="281.662246" y="220.064207" style="stroke: #000000; stroke-width: 0.8"/>
      </g>
     </g>
     <g id="text_33">
      <!-- 42 -->
      <g transform="translate(276.01959 234.874207) scale(0.11 -0.11)">
       <use xlink:href="#MyriadPro-Regular-34"/>
       <use xlink:href="#MyriadPro-Regular-32" transform="translate(51.299988 0)"/>
      </g>
     </g>
    </g>
    <g id="xtick_25">
     <g id="line2d_54">
      <g>
       <use xlink:href="#m96cc728672" x="307.966709" y="220.064207" style="stroke: #000000; stroke-width: 0.8"/>
      </g>
     </g>
     <g id="text_34">
      <!-- 44 -->
      <g transform="translate(302.324053 234.874207) scale(0.11 -0.11)">
       <use xlink:href="#MyriadPro-Regular-34"/>
       <use xlink:href="#MyriadPro-Regular-34" transform="translate(51.299988 0)"/>
      </g>
     </g>
    </g>
    <g id="xtick_26">
     <g id="line2d_55">
      <g>
       <use xlink:href="#m96cc728672" x="334.271173" y="220.064207" style="stroke: #000000; stroke-width: 0.8"/>
      </g>
     </g>
     <g id="text_35">
      <!-- 46 -->
      <g transform="translate(328.628516 234.874207) scale(0.11 -0.11)">
       <defs>
        <path id="MyriadPro-Regular-36" d="M 2662 4224 
C 2560 4224 2419 4218 2253 4192 
C 1728 4128 1267 3917 922 3578 
C 506 3168 218 2522 218 1702 
C 218 621 800 -70 1683 -70 
C 2554 -70 3072 634 3072 1402 
C 3072 2208 2554 2746 1818 2746 
C 1357 2746 1005 2528 806 2259 
L 794 2259 
C 890 2950 1350 3590 2240 3731 
C 2400 3757 2547 3770 2662 3763 
L 2662 4224 
z
M 1696 365 
C 1101 365 781 877 774 1562 
C 774 1664 800 1741 832 1805 
C 986 2112 1306 2317 1645 2317 
C 2163 2317 2502 1958 2502 1363 
C 2502 768 2176 365 1696 365 
z
" transform="scale(0.015625)"/>
       </defs>
       <use xlink:href="#MyriadPro-Regular-34"/>
       <use xlink:href="#MyriadPro-Regular-36" transform="translate(51.299988 0)"/>
      </g>
     </g>
    </g>
    <g id="xtick_27">
     <g id="line2d_56">
      <g>
       <use xlink:href="#md6d3d267cd" x="268.510015" y="220.064207" style="stroke: #000000; stroke-width: 0.6"/>
      </g>
     </g>
    </g>
    <g id="xtick_28">
     <g id="line2d_57">
      <g>
       <use xlink:href="#md6d3d267cd" x="294.814478" y="220.064207" style="stroke: #000000; stroke-width: 0.6"/>
      </g>
     </g>
    </g>
    <g id="xtick_29">
     <g id="line2d_58">
      <g>
       <use xlink:href="#md6d3d267cd" x="321.118941" y="220.064207" style="stroke: #000000; stroke-width: 0.6"/>
      </g>
     </g>
    </g>
    <g id="xtick_30">
     <g id="line2d_59">
      <g>
       <use xlink:href="#md6d3d267cd" x="347.423404" y="220.064207" style="stroke: #000000; stroke-width: 0.6"/>
      </g>
     </g>
    </g>
    <g id="text_36">
     <!-- $L_{MTC}$ [mm] -->
     <g transform="translate(275.601565 248.861864) scale(0.11 -0.11)">
      <use xlink:href="#MinionPro-ItDisp-4c" transform="translate(0 0.40625)"/>
      <use xlink:href="#MinionPro-ItDisp-4d" transform="translate(49.799988 -12.765625) scale(0.7)"/>
      <use xlink:href="#MinionPro-ItDisp-54" transform="translate(108.389975 -12.765625) scale(0.7)"/>
      <use xlink:href="#MinionPro-ItDisp-43" transform="translate(148.709969 -12.765625) scale(0.7)"/>
      <use xlink:href="#MyriadPro-Regular-20" transform="translate(193.395279 0.40625)"/>
      <use xlink:href="#MyriadPro-Regular-5b" transform="translate(214.595276 0.40625)"/>
      <use xlink:href="#MyriadPro-Regular-6d" transform="translate(242.99527 0.40625)"/>
      <use xlink:href="#MyriadPro-Regular-6d" transform="translate(326.395264 0.40625)"/>
      <use xlink:href="#MyriadPro-Regular-5d" transform="translate(409.795258 0.40625)"/>
     </g>
    </g>
   </g>
   <g id="matplotlib.axis_16">
    <g id="ytick_18">
     <g id="line2d_60">
      <g>
       <use xlink:href="#mb61f239e97" x="245.493609" y="220.064207" style="stroke: #000000; stroke-width: 0.8"/>
      </g>
     </g>
     <g id="text_37">
      <!-- 0 -->
      <g transform="translate(232.850953 223.969207) scale(0.11 -0.11)">
       <use xlink:href="#MyriadPro-Regular-30"/>
      </g>
     </g>
    </g>
    <g id="ytick_19">
     <g id="line2d_61">
      <g>
       <use xlink:href="#mb61f239e97" x="245.493609" y="189.322401" style="stroke: #000000; stroke-width: 0.8"/>
      </g>
     </g>
     <g id="text_38">
      <!-- 4 -->
      <g transform="translate(232.850953 193.227401) scale(0.11 -0.11)">
       <use xlink:href="#MyriadPro-Regular-34"/>
      </g>
     </g>
    </g>
    <g id="ytick_20">
     <g id="line2d_62">
      <g>
       <use xlink:href="#mb61f239e97" x="245.493609" y="158.580594" style="stroke: #000000; stroke-width: 0.8"/>
      </g>
     </g>
     <g id="text_39">
      <!-- 8 -->
      <g transform="translate(232.850953 162.485594) scale(0.11 -0.11)">
       <use xlink:href="#MyriadPro-Regular-38"/>
      </g>
     </g>
    </g>
    <g id="ytick_21">
     <g id="line2d_63">
      <g>
       <use xlink:href="#mede25b13fd" x="245.493609" y="204.693304" style="stroke: #000000; stroke-width: 0.6"/>
      </g>
     </g>
    </g>
    <g id="ytick_22">
     <g id="line2d_64">
      <g>
       <use xlink:href="#mede25b13fd" x="245.493609" y="173.951497" style="stroke: #000000; stroke-width: 0.6"/>
      </g>
     </g>
    </g>
   </g>
   <g id="line2d_65">
    <path d="M 248.86518 220.036473 
L 249.049503 220.007036 
L 250.739616 220.028967 
L 261.815282 219.983822 
L 302.727381 219.688241 
L 305.92691 219.633825 
L 314.023528 219.481029 
L 319.98618 219.340062 
L 326.801654 219.141489 
L 344.045215 218.3496 
L 353.948458 217.594291 
L 353.969282 217.679589 
L 353.921609 217.712066 
L 353.672171 217.608955 
L 352.902837 216.849539 
L 351.631296 215.178351 
L 350.658434 213.339118 
L 349.254261 210.220905 
L 347.213681 205.262612 
L 346.254586 202.307428 
L 344.486031 195.906712 
L 343.208071 191.5877 
L 339.495066 179.711269 
L 337.902602 175.64394 
L 336.598723 172.851667 
L 335.120223 170.297313 
L 333.695717 168.094533 
L 332.534515 166.678446 
L 330.376295 164.403076 
L 329.167028 163.337294 
L 325.993075 161.269863 
L 324.770824 160.708631 
L 320.353698 159.33327 
L 318.632179 159.053224 
L 316.946181 158.860324 
L 314.647001 159.006997 
L 312.738856 159.204811 
L 308.718205 160.242107 
L 307.287427 160.864143 
L 303.047324 162.700844 
L 299.217757 164.662794 
L 297.933428 165.411948 
L 295.591621 166.780827 
L 293.469119 168.238945 
L 291.546962 169.477613 
L 287.70642 172.198883 
L 286.460748 173.193067 
L 285.398861 174.008278 
L 283.035838 175.706358 
L 279.207104 178.789485 
L 277.967313 179.903263 
L 276.906258 180.838295 
L 273.719958 183.602794 
L 272.66199 184.599243 
L 269.877701 187.07062 
L 267.750544 189.118899 
L 266.036669 190.692095 
L 264.609076 192.299564 
L 263.634793 193.74494 
L 262.88055 195.184709 
L 261.974077 197.426857 
L 258.081403 208.58787 
L 256.859299 211.098873 
L 255.620928 213.170463 
L 254.401911 214.816386 
L 253.217239 216.094033 
L 251.836046 217.255619 
L 250.492872 218.102508 
L 249.113883 218.692683 
L 248.791686 218.774384 
L 249.936181 218.542594 
L 251.509243 218.498434 
L 253.936352 218.718353 
L 259.479599 219.247955 
L 270.763644 219.53664 
L 282.478951 219.505907 
L 298.689434 219.403483 
L 307.416042 219.327589 
L 318.70822 219.15253 
L 333.831828 218.727448 
L 344.686326 218.161506 
L 353.956004 217.485201 
L 353.922589 217.619849 
L 353.683489 217.532203 
L 353.215627 217.10293 
L 352.229144 215.936653 
L 351.340947 214.581897 
L 350.16676 212.093618 
L 347.973166 206.617412 
L 346.927888 203.719433 
L 345.593436 199.136979 
L 342.996507 189.748624 
L 339.940095 179.787902 
L 338.120437 175.198627 
L 336.80823 172.400189 
L 335.15212 169.619859 
L 333.522321 167.282456 
L 332.343578 165.974188 
L 330.192218 163.893036 
L 328.975601 162.957421 
L 325.374747 160.841829 
L 323.947889 160.349186 
L 321.163649 159.469465 
L 319.742964 159.329865 
L 317.58303 159.104442 
L 316.354213 159.167416 
L 314.442345 159.402595 
L 312.542677 159.717273 
L 308.105316 161.124473 
L 305.332247 162.308379 
L 303.86433 162.993695 
L 301.967308 164.051443 
L 299.824816 165.142207 
L 297.286094 166.739324 
L 295.382506 167.930384 
L 293.488669 169.337702 
L 291.338239 170.773527 
L 288.345767 173.015922 
L 286.662807 174.260989 
L 285.41307 175.304508 
L 282.405065 177.499126 
L 281.164294 178.602867 
L 278.162169 180.93058 
L 276.92272 182.110719 
L 273.91746 184.593383 
L 272.66929 185.825495 
L 269.856534 188.181573 
L 267.960149 190.020922 
L 265.80384 191.860704 
L 264.804814 192.994963 
L 263.854294 194.4678 
L 262.942824 196.39379 
L 261.869814 199.388608 
L 259.209142 207.164963 
L 257.775914 210.379426 
L 256.295259 212.995934 
L 254.829449 215.000562 
L 253.642818 216.272932 
L 252.489112 217.257086 
L 251.137462 218.134846 
L 249.624224 218.812941 
L 248.78958 219.01223 
L 249.950243 218.785762 
L 252.173039 218.731098 
L 255.006079 218.939272 
L 261.395387 219.400248 
L 266.505804 219.533722 
L 313.170608 219.233529 
L 321.895647 219.064161 
L 327.656632 218.910785 
L 347.028868 217.957884 
L 353.95522 217.456616 
L 353.919404 217.584725 
L 353.679961 217.479432 
L 352.877017 216.648826 
L 351.88191 215.355545 
L 351.075291 213.926944 
L 349.92624 211.324049 
L 348.201242 206.83376 
L 346.910592 203.189276 
L 345.583 198.561938 
L 343.218704 189.882126 
L 340.363812 180.439908 
L 338.940236 176.78678 
L 337.381726 173.271195 
L 336.238358 171.195651 
L 334.146528 168.097209 
L 332.763816 166.526705 
L 330.62833 164.543621 
L 329.187802 163.441584 
L 326.223502 161.798574 
L 324.981898 161.266734 
L 321.174281 160.240527 
L 319.963446 160.176919 
L 316.969209 160.052513 
L 315.959649 160.230123 
L 314.24205 160.498189 
L 312.546939 160.854117 
L 307.907078 162.531678 
L 306.438819 163.265217 
L 303.8658 164.409603 
L 301.750158 165.62961 
L 299.822562 166.631281 
L 296.206911 168.890757 
L 295.172216 169.610136 
L 293.70915 170.712521 
L 290.916042 172.546774 
L 289.450379 173.703404 
L 286.653498 175.590721 
L 285.417136 176.635948 
L 282.20477 178.98754 
L 281.167723 179.904872 
L 277.96207 182.384667 
L 276.922671 183.349203 
L 273.709668 185.951678 
L 272.439891 187.122721 
L 269.643108 189.403085 
L 268.410274 190.636785 
L 265.186737 193.375484 
L 264.22436 194.672051 
L 263.305246 196.397359 
L 262.405437 198.614087 
L 260.894355 203.018944 
L 259.620854 206.533856 
L 258.217612 209.760628 
L 256.995165 212.049006 
L 255.781243 213.93443 
L 254.348456 215.703248 
L 252.948546 217.02369 
L 251.590331 217.986726 
L 250.255144 218.675977 
L 248.973559 219.085678 
L 248.783014 219.098501 
L 250.848632 218.870317 
L 253.051388 218.909791 
L 255.855668 219.138787 
L 261.387939 219.473611 
L 269.272161 219.583487 
L 274.391544 219.569642 
L 281.198885 219.525406 
L 290.156704 219.453301 
L 295.69804 219.409968 
L 307.844266 219.289861 
L 321.897999 219.046684 
L 340.218539 218.387523 
L 347.668019 217.888996 
L 353.95571 217.43958 
L 353.95571 217.43958 
" clip-path="url(#p2b486efd22)" style="fill: none; stroke: #000000; stroke-linecap: square"/>
   </g>
   <g id="line2d_66">
    <path d="M 248.86518 220.064207 
L 274.390368 219.970538 
L 276.095229 219.567422 
L 279.292798 218.698028 
L 281.417112 218.534901 
L 288.03087 218.468287 
L 324.030545 218.433455 
L 332.553427 218.210945 
L 340.00864 217.894878 
L 350.008259 217.304852 
L 353.948458 216.957896 
L 353.969282 216.819099 
L 353.672171 216.255885 
L 353.202055 215.651354 
L 351.631296 213.948427 
L 350.887098 212.550355 
L 350.015951 210.401392 
L 348.823881 206.822525 
L 348.027796 205.282931 
L 346.958412 203.233394 
L 346.035722 200.951642 
L 345.042526 197.860988 
L 344.078091 194.80683 
L 341.602525 188.244483 
L 340.121331 183.93349 
L 336.400878 175.57499 
L 332.326576 169.163977 
L 327.940808 164.47215 
L 324.571459 161.916319 
L 323.95171 161.484748 
L 321.780115 160.514746 
L 319.293378 159.290283 
L 317.147211 158.723837 
L 315.735444 158.162837 
L 314.210937 158.056165 
L 312.532779 157.815366 
L 311.088822 157.624986 
L 309.993176 157.735751 
L 308.718205 157.778324 
L 307.077284 157.732508 
L 303.861488 158.289426 
L 303.047324 158.34679 
L 301.949375 158.700295 
L 299.826335 159.228794 
L 298.5935 159.474599 
L 295.38525 160.613628 
L 294.566676 160.83924 
L 289.434896 163.119264 
L 287.70642 164.0145 
L 283.87553 166.014417 
L 276.906258 170.015057 
L 273.719958 172.067583 
L 272.881491 172.60763 
L 269.877701 174.717279 
L 268.187294 175.900952 
L 264.609076 178.737613 
L 262.333658 180.682741 
L 261.080882 182.010505 
L 259.89626 183.698874 
L 258.324815 186.426351 
L 256.121764 190.759723 
L 252.750995 197.989286 
L 250.714481 202.834994 
L 248.991933 207.410403 
L 248.791686 208.468162 
L 248.922554 209.290438 
L 249.339019 210.002287 
L 250.601839 211.395135 
L 252.40185 213.159948 
L 254.800198 215.050426 
L 256.077178 215.824429 
L 257.990908 216.697489 
L 260.121494 217.360748 
L 262.245465 217.798368 
L 265.86778 218.206901 
L 269.488575 218.385271 
L 273.96381 218.46227 
L 315.517511 218.499164 
L 323.38718 218.446607 
L 340.008542 217.894334 
L 345.11455 217.615282 
L 351.284405 217.215745 
L 353.956004 216.952752 
L 353.977758 216.813126 
L 353.473492 215.953178 
L 352.570106 215.032197 
L 351.913072 214.354848 
L 351.340947 213.538226 
L 350.392827 211.557789 
L 349.748434 209.894566 
L 348.732112 206.925195 
L 347.973166 205.325852 
L 346.690454 202.675849 
L 345.795789 200.351684 
L 342.783277 191.506788 
L 341.251176 187.041538 
L 340.145094 183.838414 
L 336.213518 175.165369 
L 332.343578 169.135496 
L 331.253077 168.019365 
L 327.508174 164.181949 
L 325.795425 162.942039 
L 324.569303 161.950471 
L 323.733238 161.408097 
L 320.756934 159.941222 
L 319.742964 159.381577 
L 318.651728 159.120658 
L 316.962154 158.613302 
L 315.323928 158.079789 
L 313.79408 158.011085 
L 310.881128 157.64031 
L 309.145351 157.783793 
L 306.429755 157.870365 
L 304.904954 158.197126 
L 301.967308 158.66803 
L 300.662743 159.071666 
L 297.506478 159.91573 
L 295.794317 160.530213 
L 293.932179 161.102642 
L 292.176363 161.971056 
L 290.730103 162.484429 
L 289.898005 162.822029 
L 286.662807 164.500103 
L 285.847908 164.832536 
L 284.522128 165.661816 
L 282.604528 166.710087 
L 281.383599 167.27855 
L 278.362513 169.174956 
L 276.92272 169.969297 
L 274.733486 171.509696 
L 272.218087 173.111629 
L 270.061827 174.641914 
L 268.186706 175.895539 
L 265.603104 177.969486 
L 262.405388 180.50788 
L 261.313564 181.688984 
L 260.312382 183.083737 
L 258.975137 185.295717 
L 257.037546 188.92208 
L 254.348603 194.477097 
L 251.583815 200.646937 
L 249.259303 206.549933 
L 248.81006 208.148628 
L 248.844602 209.021119 
L 249.183409 209.759557 
L 249.950243 210.685964 
L 252.173039 212.959787 
L 253.710481 214.270772 
L 255.221367 215.324633 
L 256.501286 216.043667 
L 258.413938 216.854728 
L 261.180148 217.605113 
L 264.159146 218.056541 
L 269.48593 218.385803 
L 276.940114 218.479372 
L 286.320473 218.46957 
L 301.449666 218.466499 
L 329.143657 218.319253 
L 342.978477 217.742831 
L 353.95522 216.953239 
L 353.970409 216.818384 
L 353.679961 216.249355 
L 352.877017 215.359401 
L 351.88191 214.377828 
L 351.075291 213.080716 
L 350.140401 211.044205 
L 349.11624 208.137653 
L 348.451562 206.408729 
L 345.998289 200.932538 
L 345.012051 197.828898 
L 343.852171 194.182707 
L 341.451471 187.539603 
L 339.963025 183.309273 
L 336.025961 174.782634 
L 333.34814 170.631799 
L 332.359502 169.122609 
L 331.268706 168.008963 
L 327.741493 164.329525 
L 325.387731 162.637307 
L 323.742694 161.418874 
L 320.568937 159.816293 
L 319.537231 159.324794 
L 314.675565 158.054378 
L 312.755123 157.867122 
L 310.670691 157.666837 
L 308.313058 157.801926 
L 307.092865 157.739609 
L 303.053154 158.375744 
L 302.19651 158.588062 
L 300.660833 159.098535 
L 297.956848 159.714018 
L 296.421023 160.357381 
L 295.172216 160.724294 
L 294.367459 160.908536 
L 288.334302 163.753654 
L 287.059625 164.365516 
L 285.636099 164.933908 
L 282.400705 166.794812 
L 281.383109 167.273065 
L 275.145591 171.264886 
L 273.709668 172.082748 
L 272.439891 172.929409 
L 270.254822 174.536003 
L 267.958483 176.080251 
L 265.186737 178.294304 
L 262.584468 180.328549 
L 261.479954 181.502654 
L 260.487297 182.838872 
L 259.166907 184.96476 
L 256.995165 188.987663 
L 254.579913 193.954584 
L 251.811499 200.09044 
L 249.436423 206.06804 
L 248.877674 207.797278 
L 248.797958 208.751067 
L 248.927454 209.277432 
L 249.357442 209.985683 
L 250.17533 210.91848 
L 252.611062 213.369165 
L 254.573102 214.905068 
L 255.855668 215.707776 
L 257.989291 216.696922 
L 259.90062 217.308644 
L 262.672513 217.861809 
L 265.010646 218.139127 
L 270.549973 218.414134 
L 280.137536 218.479247 
L 305.926126 218.472137 
L 331.27537 218.254171 
L 339.791687 217.906987 
L 353.889565 217.179528 
L 353.95571 217.225164 
L 353.95571 217.225164 
" clip-path="url(#p2b486efd22)" style="fill: none; stroke-dasharray: 3.7,1.6; stroke-dashoffset: 0; stroke: #ff7f0e"/>
   </g>
   <g id="patch_22">
    <path d="M 245.493609 220.064207 
L 245.493609 147.052416 
" style="fill: none; stroke: #000000; stroke-width: 0.8; stroke-linejoin: miter; stroke-linecap: square"/>
   </g>
   <g id="patch_23">
    <path d="M 245.493609 220.064207 
L 353.99952 220.064207 
" style="fill: none; stroke: #000000; stroke-width: 0.8; stroke-linejoin: miter; stroke-linecap: square"/>
   </g>
  </g>
 </g>
 <defs>
  <clipPath id="pf0ad1b3ed8">
   <rect x="37.744375" y="7.993828" width="108.505911" height="14.149572"/>
  </clipPath>
  <clipPath id="p679388c6c9">
   <rect x="245.493609" y="7.993828" width="108.505911" height="14.149572"/>
  </clipPath>
  <clipPath id="p85979852cd">
   <rect x="37.744375" y="28.14388" width="108.505911" height="2.920472"/>
  </clipPath>
  <clipPath id="pc5f5c65269">
   <rect x="245.493609" y="28.14388" width="108.505911" height="2.920472"/>
  </clipPath>
  <clipPath id="pe5eb8268fc">
   <rect x="37.744375" y="37.064832" width="108.505911" height="73.011792"/>
  </clipPath>
  <clipPath id="pc6da5cd3f3">
   <rect x="245.493609" y="37.064832" width="108.505911" height="73.011792"/>
  </clipPath>
  <clipPath id="p3da8ac7365">
   <rect x="37.744375" y="147.052416" width="108.505911" height="73.011792"/>
  </clipPath>
  <clipPath id="p2b486efd22">
   <rect x="245.493609" y="147.052416" width="108.505911" height="73.011792"/>
  </clipPath>
 </defs>
</svg>
