<?xml version="1.0" encoding="utf-8" standalone="no"?>
<!DOCTYPE svg PUBLIC "-//W3C//DTD SVG 1.1//EN"
  "http://www.w3.org/Graphics/SVG/1.1/DTD/svg11.dtd">
<svg xmlns:xlink="http://www.w3.org/1999/xlink" width="451.323111pt" height="88.676685pt" viewBox="0 0 451.323111 88.676685" xmlns="http://www.w3.org/2000/svg" version="1.1">
 <metadata>
  <rdf:RDF xmlns:dc="http://purl.org/dc/elements/1.1/" xmlns:cc="http://creativecommons.org/ns#" xmlns:rdf="http://www.w3.org/1999/02/22-rdf-syntax-ns#">
   <cc:Work>
    <dc:type rdf:resource="http://purl.org/dc/dcmitype/StillImage"/>
    <dc:date>2026-06-04T11:30:08.329285</dc:date>
    <dc:format>image/svg+xml</dc:format>
    <dc:creator>
     <cc:Agent>
      <dc:title>Matplotlib v3.10.6, https://matplotlib.org/</dc:title>
     </cc:Agent>
    </dc:creator>
   </cc:Work>
  </rdf:RDF>
 </metadata>
 <defs>
  <style type="text/css">*{stroke-linejoin: round; stroke-linecap: butt}</style>
 </defs>
 <g id="figure_1">
  <g id="patch_1">
   <path d="M 0 88.676685 
L 451.323111 88.676685 
L 451.323111 0 
L 0 0 
z
" style="fill: #ffffff"/>
  </g>
  <g id="axes_1">
   <g id="patch_2">
    <path d="M 23.130313 74.566998 
L 155.464363 74.566998 
L 155.464363 7.993828 
L 23.130313 7.993828 
z
" style="fill: #ffffff"/>
   </g>
   <g id="matplotlib.axis_1">
    <g id="text_1">
     <!-- MTC length -->
     <g transform="translate(62.732338 86.376998) scale(0.11 -0.11)">
      <defs>
       <path id="MyriadPro-Regular-4d" d="M 4224 0 
L 4774 0 
L 4506 4314 
L 3795 4314 
L 3027 2227 
C 2835 1683 2682 1210 2566 774 
L 2554 774 
C 2438 1222 2298 1696 2118 2227 
L 1382 4314 
L 672 4314 
L 371 0 
L 902 0 
L 1018 1850 
C 1056 2502 1088 3219 1101 3757 
L 1114 3757 
C 1235 3245 1402 2694 1606 2080 
L 2310 26 
L 2733 26 
L 3494 2118 
C 3712 2714 3885 3258 4038 3757 
L 4051 3757 
C 4051 3226 4090 2496 4122 1894 
L 4224 0 
z
" transform="scale(0.015625)"/>
       <path id="MyriadPro-Regular-54" d="M 1306 0 
L 1869 0 
L 1869 3840 
L 3187 3840 
L 3187 4314 
L -6 4314 
L -6 3840 
L 1306 3840 
L 1306 0 
z
" transform="scale(0.015625)"/>
       <path id="MyriadPro-Regular-43" d="M 3386 582 
C 3162 474 2816 403 2470 403 
C 1427 403 819 1075 819 2138 
C 819 3270 1491 3917 2502 3917 
C 2861 3917 3162 3840 3366 3738 
L 3507 4192 
C 3360 4269 3014 4384 2483 4384 
C 1146 4384 230 3475 230 2118 
C 230 698 1139 -70 2355 -70 
C 2880 -70 3296 32 3494 134 
L 3386 582 
z
" transform="scale(0.015625)"/>
       <path id="MyriadPro-Regular-20" transform="scale(0.015625)"/>
       <path id="MyriadPro-Regular-6c" d="M 467 0 
L 1030 0 
L 1030 4544 
L 467 4544 
L 467 0 
z
" transform="scale(0.015625)"/>
       <path id="MyriadPro-Regular-65" d="M 2957 1446 
C 2970 1510 2976 1594 2976 1709 
C 2976 2278 2714 3162 1696 3162 
C 794 3162 243 2432 243 1498 
C 243 563 813 -70 1766 -70 
C 2259 -70 2605 38 2803 128 
L 2701 531 
C 2496 442 2246 371 1843 371 
C 1274 371 794 685 781 1446 
L 2957 1446 
z
M 787 1850 
C 832 2240 1075 2758 1651 2758 
C 2285 2758 2438 2202 2432 1850 
L 787 1850 
z
" transform="scale(0.015625)"/>
       <path id="MyriadPro-Regular-6e" d="M 467 0 
L 1030 0 
L 1030 1862 
C 1030 1958 1043 2054 1069 2125 
C 1171 2438 1459 2701 1824 2701 
C 2355 2701 2541 2285 2541 1786 
L 2541 0 
L 3104 0 
L 3104 1843 
C 3104 2906 2438 3162 2010 3162 
C 1498 3162 1139 2874 986 2586 
L 973 2586 
L 941 3098 
L 442 3098 
C 461 2842 467 2586 467 2259 
L 467 0 
z
" transform="scale(0.015625)"/>
       <path id="MyriadPro-Regular-67" d="M 3117 2253 
C 3117 2624 3123 2880 3142 3098 
L 2643 3098 
L 2624 2630 
L 2611 2630 
C 2470 2886 2182 3162 1645 3162 
C 928 3162 243 2573 243 1523 
C 243 666 794 13 1562 13 
C 2042 13 2381 243 2547 531 
L 2560 531 
L 2560 192 
C 2560 -595 2138 -896 1562 -896 
C 1178 -896 858 -781 653 -646 
L 512 -1082 
C 762 -1248 1171 -1338 1542 -1338 
C 1933 -1338 2368 -1242 2675 -966 
C 2970 -691 3117 -262 3117 454 
L 3117 2253 
z
M 2554 1318 
C 2554 1222 2541 1114 2509 1018 
C 2394 659 2080 442 1728 442 
C 1126 442 813 947 813 1555 
C 813 2272 1197 2726 1734 2726 
C 2150 2726 2419 2458 2522 2125 
C 2547 2054 2554 1971 2554 1875 
L 2554 1318 
z
" transform="scale(0.015625)"/>
       <path id="MyriadPro-Regular-74" d="M 595 3674 
L 595 3098 
L 115 3098 
L 115 2669 
L 595 2669 
L 595 979 
C 595 614 659 339 813 166 
C 947 19 1158 -70 1421 -70 
C 1638 -70 1811 -32 1920 6 
L 1894 435 
C 1811 410 1722 397 1568 397 
C 1254 397 1146 614 1146 998 
L 1146 2669 
L 1952 2669 
L 1952 3098 
L 1146 3098 
L 1146 3840 
L 595 3674 
z
" transform="scale(0.015625)"/>
       <path id="MyriadPro-Regular-68" d="M 467 0 
L 1030 0 
L 1030 1869 
C 1030 1971 1037 2054 1069 2138 
C 1178 2438 1459 2694 1824 2694 
C 2355 2694 2541 2278 2541 1779 
L 2541 0 
L 3104 0 
L 3104 1843 
C 3104 2906 2438 3162 2022 3162 
C 1811 3162 1613 3104 1446 3008 
C 1274 2912 1133 2765 1043 2605 
L 1030 2605 
L 1030 4544 
L 467 4544 
L 467 0 
z
" transform="scale(0.015625)"/>
      </defs>
      <use xlink:href="#MyriadPro-Regular-4d"/>
      <use xlink:href="#MyriadPro-Regular-54" transform="translate(80.399994 0)"/>
      <use xlink:href="#MyriadPro-Regular-43" transform="translate(130.099991 0)"/>
      <use xlink:href="#MyriadPro-Regular-20" transform="translate(188.099976 0)"/>
      <use xlink:href="#MyriadPro-Regular-6c" transform="translate(209.299973 0)"/>
      <use xlink:href="#MyriadPro-Regular-65" transform="translate(232.899963 0)"/>
      <use xlink:href="#MyriadPro-Regular-6e" transform="translate(282.999954 0)"/>
      <use xlink:href="#MyriadPro-Regular-67" transform="translate(338.499939 0)"/>
      <use xlink:href="#MyriadPro-Regular-74" transform="translate(394.399933 0)"/>
      <use xlink:href="#MyriadPro-Regular-68" transform="translate(427.499924 0)"/>
     </g>
    </g>
   </g>
   <g id="matplotlib.axis_2">
    <g id="ytick_1">
     <g id="line2d_1">
      <path d="M 23.130313 74.566998 
L 155.464363 74.566998 
" clip-path="url(#p0bc37d1da3)" style="fill: none; stroke-dasharray: 3.7,1.6; stroke-dashoffset: 0; stroke: #cccccc"/>
     </g>
     <g id="line2d_2"/>
     <g id="text_2">
      <!-- 0 -->
      <g transform="translate(13.987656 78.471998) scale(0.11 -0.11)">
       <defs>
        <path id="MyriadPro-Regular-30" d="M 1683 4230 
C 838 4230 230 3469 230 2067 
C 243 691 800 -70 1613 -70 
C 2528 -70 3059 710 3059 2125 
C 3059 3450 2554 4230 1683 4230 
z
M 1645 3795 
C 2234 3795 2490 3123 2490 2099 
C 2490 1037 2214 365 1645 365 
C 1133 365 800 979 800 2061 
C 800 3194 1158 3795 1645 3795 
z
" transform="scale(0.015625)"/>
       </defs>
       <use xlink:href="#MyriadPro-Regular-30"/>
      </g>
     </g>
    </g>
    <g id="text_3">
     <!-- MTC force -->
     <g transform="translate(7.81 64.436272) rotate(-90) scale(0.11 -0.11)">
      <defs>
       <path id="MyriadPro-Regular-66" d="M 1082 0 
L 1082 2669 
L 1830 2669 
L 1830 3098 
L 1082 3098 
L 1082 3264 
C 1082 3744 1203 4160 1683 4160 
C 1850 4160 1958 4128 2042 4090 
L 2118 4525 
C 2010 4570 1843 4614 1638 4614 
C 1376 4614 1094 4531 883 4326 
C 627 4077 525 3680 525 3245 
L 525 3098 
L 96 3098 
L 96 2669 
L 525 2669 
L 525 0 
L 1082 0 
z
" transform="scale(0.015625)"/>
       <path id="MyriadPro-Regular-6f" d="M 1779 3162 
C 928 3162 243 2554 243 1523 
C 243 544 896 -70 1728 -70 
C 2470 -70 3270 429 3270 1574 
C 3270 2515 2669 3162 1779 3162 
z
M 1766 2739 
C 2432 2739 2694 2080 2694 1555 
C 2694 858 2291 352 1754 352 
C 1203 352 819 864 819 1542 
C 819 2125 1107 2739 1766 2739 
z
" transform="scale(0.015625)"/>
       <path id="MyriadPro-Regular-72" d="M 467 0 
L 1030 0 
L 1030 1651 
C 1030 1741 1037 1837 1050 1914 
C 1126 2336 1408 2630 1805 2630 
C 1882 2630 1939 2630 1997 2618 
L 1997 3149 
C 1946 3155 1901 3162 1843 3162 
C 1466 3162 1120 2899 979 2483 
L 960 2483 
L 934 3098 
L 442 3098 
C 461 2810 467 2496 467 2131 
L 467 0 
z
" transform="scale(0.015625)"/>
       <path id="MyriadPro-Regular-63" d="M 2579 531 
C 2419 461 2208 384 1888 384 
C 1274 384 813 826 813 1542 
C 813 2182 1197 2714 1907 2714 
C 2214 2714 2426 2637 2560 2566 
L 2688 2995 
C 2534 3078 2240 3162 1907 3162 
C 896 3162 243 2464 243 1510 
C 243 563 851 -70 1786 -70 
C 2202 -70 2528 38 2675 109 
L 2579 531 
z
" transform="scale(0.015625)"/>
      </defs>
      <use xlink:href="#MyriadPro-Regular-4d"/>
      <use xlink:href="#MyriadPro-Regular-54" transform="translate(80.399994 0)"/>
      <use xlink:href="#MyriadPro-Regular-43" transform="translate(130.099991 0)"/>
      <use xlink:href="#MyriadPro-Regular-20" transform="translate(188.099976 0)"/>
      <use xlink:href="#MyriadPro-Regular-66" transform="translate(209.299973 0)"/>
      <use xlink:href="#MyriadPro-Regular-6f" transform="translate(238.499969 0)"/>
      <use xlink:href="#MyriadPro-Regular-72" transform="translate(293.399963 0)"/>
      <use xlink:href="#MyriadPro-Regular-63" transform="translate(326.09996 0)"/>
      <use xlink:href="#MyriadPro-Regular-65" transform="translate(370.899948 0)"/>
     </g>
    </g>
   </g>
   <g id="patch_3">
    <path d="M 146.833788 74.566998 
L 146.833788 56.322203 
L 146.816719 56.409656 
L 146.742772 56.137694 
L 146.61202 55.198455 
L 146.424592 53.843268 
L 146.180675 52.379797 
L 145.880508 50.86664 
L 145.524389 49.328721 
L 145.11267 47.787443 
L 144.645758 46.268711 
L 144.124115 44.78591 
L 143.548257 43.348844 
L 142.918752 41.965074 
L 142.236225 40.640106 
L 141.501348 39.377581 
L 140.71485 38.179442 
L 139.877508 37.04682 
L 138.99015 35.982797 
L 138.053653 34.973946 
L 137.068944 34.021306 
L 136.036996 33.125297 
L 134.958829 32.285762 
L 133.83551 31.502012 
L 132.66815 30.772871 
L 131.457903 30.096711 
L 130.205965 29.471497 
L 128.913576 28.894823 
L 127.582012 28.363944 
L 126.21259 27.875814 
L 124.806665 27.427116 
L 123.365626 27.014287 
L 121.8909 26.633551 
L 120.383943 26.28911 
L 118.846247 25.974246 
L 117.279331 25.68063 
L 115.684746 25.40705 
L 114.064068 25.152219 
L 112.4189 24.914784 
L 110.750868 24.69333 
L 109.061622 24.486384 
L 107.352833 24.292424 
L 105.626189 24.109877 
L 103.883399 23.93713 
L 102.126186 23.772531 
L 100.356288 23.614393 
L 98.575454 23.460998 
L 96.785447 23.3106 
L 94.988034 23.161429 
L 93.184995 23.011691 
L 91.378112 22.859573 
L 89.569172 22.703242 
L 87.759964 22.540848 
L 85.952276 22.370523 
L 84.147896 22.190763 
L 82.348609 22.002588 
L 80.556194 21.804031 
L 78.772422 21.594065 
L 76.999059 21.371656 
L 75.237858 21.135769 
L 73.490559 20.885382 
L 71.758892 20.619587 
L 70.044568 20.33878 
L 68.349283 20.047076 
L 66.674712 19.740224 
L 65.022513 19.418442 
L 63.394319 19.083297 
L 61.791739 18.736404 
L 60.216358 18.379434 
L 58.669735 18.014118 
L 57.153399 17.642251 
L 55.668849 17.265695 
L 54.217553 16.892581 
L 52.800946 16.527386 
L 51.42043 16.157733 
L 50.077368 15.794403 
L 48.77309 15.448399 
L 47.508885 15.130925 
L 46.286003 14.853366 
L 45.105654 14.627243 
L 43.969004 14.464162 
L 42.877178 14.375746 
L 41.831255 14.373555 
L 40.832269 14.468986 
L 39.881209 14.673167 
L 38.979015 14.983926 
L 38.126579 15.450444 
L 37.324744 16.060568 
L 36.574302 16.800431 
L 35.875997 17.655955 
L 35.230518 18.614545 
L 34.638503 19.755622 
L 34.100539 21.376772 
L 33.617157 23.863743 
L 33.188835 27.10791 
L 32.815996 30.503412 
L 32.49901 33.704656 
L 32.23819 36.665121 
L 32.033793 39.362902 
L 31.886023 41.79194 
L 31.795024 43.981495 
L 31.760887 74.566998 
z
" clip-path="url(#p0bc37d1da3)" style="fill: #bfbfbf"/>
   </g>
   <g id="line2d_3">
    <path d="M 146.833788 56.322203 
L 146.816719 56.409656 
L 146.742772 56.137694 
L 146.61202 55.198455 
L 146.424592 53.843268 
L 146.180675 52.379797 
L 145.880508 50.86664 
L 145.524389 49.328721 
L 145.11267 47.787443 
L 144.645758 46.268711 
L 144.124115 44.78591 
L 143.548257 43.348844 
L 142.918752 41.965074 
L 142.236225 40.640106 
L 141.501348 39.377581 
L 140.71485 38.179442 
L 139.877508 37.04682 
L 138.99015 35.982797 
L 138.053653 34.973946 
L 137.068944 34.021306 
L 136.036996 33.125297 
L 134.958829 32.285762 
L 133.83551 31.502012 
L 132.66815 30.772871 
L 131.457903 30.096711 
L 130.205965 29.471497 
L 128.913576 28.894823 
L 127.582012 28.363944 
L 126.21259 27.875814 
L 124.806665 27.427116 
L 123.365626 27.014287 
L 121.8909 26.633551 
L 120.383943 26.28911 
L 118.846247 25.974246 
L 117.279331 25.68063 
L 115.684746 25.40705 
L 114.064068 25.152219 
L 112.4189 24.914784 
L 110.750868 24.69333 
L 109.061622 24.486384 
L 107.352833 24.292424 
L 105.626189 24.109877 
L 103.883399 23.93713 
L 102.126186 23.772531 
L 100.356288 23.614393 
L 98.575454 23.460998 
L 96.785447 23.3106 
L 94.988034 23.161429 
L 93.184995 23.011691 
L 91.378112 22.859573 
L 89.569172 22.703242 
L 87.759964 22.540848 
L 85.952276 22.370523 
L 84.147896 22.190763 
L 82.348609 22.002588 
L 80.556194 21.804031 
L 78.772422 21.594065 
L 76.999059 21.371656 
L 75.237858 21.135769 
L 73.490559 20.885382 
L 71.758892 20.619587 
L 70.044568 20.33878 
L 68.349283 20.047076 
L 66.674712 19.740224 
L 65.022513 19.418442 
L 63.394319 19.083297 
L 61.791739 18.736404 
L 60.216358 18.379434 
L 58.669735 18.014118 
L 57.153399 17.642251 
L 55.668849 17.265695 
L 54.217553 16.892581 
L 52.800946 16.527386 
L 51.42043 16.157733 
L 50.077368 15.794403 
L 48.77309 15.448399 
L 47.508885 15.130925 
L 46.286003 14.853366 
L 45.105654 14.627243 
L 43.969004 14.464162 
L 42.877178 14.375746 
L 41.831255 14.373555 
L 40.832269 14.468986 
L 39.881209 14.673167 
L 38.979015 14.983926 
L 38.126579 15.450444 
L 37.324744 16.060568 
L 36.574302 16.800431 
L 35.875997 17.655955 
L 35.230518 18.614545 
L 34.638503 19.755622 
L 34.100539 21.376772 
L 33.617157 23.863743 
L 33.188835 27.10791 
L 32.815996 30.503412 
L 32.49901 33.704656 
L 32.23819 36.665121 
L 32.033793 39.362902 
L 31.886023 41.79194 
L 31.795024 43.981495 
" clip-path="url(#p0bc37d1da3)" style="fill: none; stroke: #000000; stroke-linecap: square"/>
   </g>
   <g id="patch_4">
    <path d="M 23.130313 74.566998 
L 23.130313 7.993828 
" style="fill: none; stroke: #000000; stroke-width: 0.8; stroke-linejoin: miter; stroke-linecap: square"/>
   </g>
   <g id="patch_5">
    <path d="M 23.130312 74.566998 
L 155.464363 74.566998 
" style="fill: none; stroke: #000000; stroke-width: 0.8; stroke-linejoin: miter; stroke-linecap: square"/>
   </g>
   <g id="text_4">
    <!-- Positive work -->
    <g transform="translate(58.857218 51.451292) scale(0.11 -0.11)">
     <defs>
      <path id="MyriadPro-Regular-50" d="M 486 0 
L 1043 0 
L 1043 1728 
C 1171 1696 1325 1690 1491 1690 
C 2035 1690 2509 1850 2810 2163 
C 3027 2387 3142 2694 3142 3085 
C 3142 3469 2995 3782 2765 3987 
C 2509 4218 2106 4346 1555 4346 
C 1107 4346 755 4307 486 4262 
L 486 0 
z
M 1043 3859 
C 1139 3885 1325 3904 1568 3904 
C 2176 3904 2586 3629 2586 3053 
C 2586 2470 2176 2138 1504 2138 
C 1318 2138 1165 2150 1043 2182 
L 1043 3859 
z
" transform="scale(0.015625)"/>
      <path id="MyriadPro-Regular-73" d="M 256 147 
C 474 19 787 -70 1126 -70 
C 1850 -70 2278 314 2278 864 
C 2278 1325 1997 1594 1466 1792 
C 1062 1952 883 2067 883 2323 
C 883 2554 1062 2746 1395 2746 
C 1683 2746 1907 2637 2029 2560 
L 2163 2970 
C 1997 3078 1722 3162 1408 3162 
C 749 3162 339 2752 339 2253 
C 339 1882 602 1581 1165 1376 
C 1574 1222 1734 1082 1734 813 
C 1734 550 1542 352 1139 352 
C 858 352 563 467 390 570 
L 256 147 
z
" transform="scale(0.015625)"/>
      <path id="MyriadPro-Regular-69" d="M 1030 0 
L 1030 3098 
L 467 3098 
L 467 0 
L 1030 0 
z
M 749 4320 
C 538 4320 397 4160 397 3968 
C 397 3776 531 3622 736 3622 
C 960 3622 1094 3776 1094 3968 
C 1094 4166 954 4320 749 4320 
z
" transform="scale(0.015625)"/>
      <path id="MyriadPro-Regular-76" d="M 83 3098 
L 1261 0 
L 1798 0 
L 3014 3098 
L 2426 3098 
L 1824 1363 
C 1722 1075 1632 819 1562 563 
L 1542 563 
C 1478 819 1395 1075 1293 1363 
L 685 3098 
L 83 3098 
z
" transform="scale(0.015625)"/>
      <path id="MyriadPro-Regular-77" d="M 115 3098 
L 1050 0 
L 1562 0 
L 2061 1472 
C 2170 1805 2266 2125 2342 2496 
L 2355 2496 
C 2432 2131 2522 1824 2630 1478 
L 3104 0 
L 3616 0 
L 4614 3098 
L 4058 3098 
L 3616 1542 
C 3514 1178 3430 851 3379 538 
L 3360 538 
C 3290 851 3200 1178 3085 1549 
L 2605 3098 
L 2131 3098 
L 1626 1517 
C 1523 1184 1421 851 1350 538 
L 1331 538 
C 1274 858 1190 1178 1107 1523 
L 691 3098 
L 115 3098 
z
" transform="scale(0.015625)"/>
      <path id="MyriadPro-Regular-6b" d="M 1024 4544 
L 467 4544 
L 467 0 
L 1024 0 
L 1024 1165 
L 1312 1485 
L 2374 0 
L 3066 0 
L 1702 1824 
L 2893 3098 
L 2221 3098 
L 1306 2029 
C 1216 1920 1114 1786 1037 1677 
L 1024 1677 
L 1024 4544 
z
" transform="scale(0.015625)"/>
     </defs>
     <use xlink:href="#MyriadPro-Regular-50"/>
     <use xlink:href="#MyriadPro-Regular-6f" transform="translate(53.199997 0)"/>
     <use xlink:href="#MyriadPro-Regular-73" transform="translate(108.099991 0)"/>
     <use xlink:href="#MyriadPro-Regular-69" transform="translate(147.699982 0)"/>
     <use xlink:href="#MyriadPro-Regular-74" transform="translate(171.099976 0)"/>
     <use xlink:href="#MyriadPro-Regular-69" transform="translate(204.199966 0)"/>
     <use xlink:href="#MyriadPro-Regular-76" transform="translate(227.59996 0)"/>
     <use xlink:href="#MyriadPro-Regular-65" transform="translate(275.699951 0)"/>
     <use xlink:href="#MyriadPro-Regular-20" transform="translate(325.799942 0)"/>
     <use xlink:href="#MyriadPro-Regular-77" transform="translate(346.999939 0)"/>
     <use xlink:href="#MyriadPro-Regular-6f" transform="translate(420.59993 0)"/>
     <use xlink:href="#MyriadPro-Regular-72" transform="translate(475.499924 0)"/>
     <use xlink:href="#MyriadPro-Regular-6b" transform="translate(508.199921 0)"/>
    </g>
   </g>
   <g id="patch_6">
    <path d="M 129.934579 29.350402 
Q 129.559771 29.18316 130.205965 29.471497 
" style="fill: none; stroke: #000000; stroke-linecap: round"/>
    <path d="M 133.056254 33.152394 
L 129.934579 29.350402 
L 134.849178 29.134257 
" style="fill: none; stroke: #000000; stroke-linecap: round"/>
   </g>
   <g id="patch_7">
    <path d="M 88.873521 22.640801 
Q 88.664568 22.622045 89.569172 22.703242 
" style="fill: none; stroke: #000000; stroke-linecap: round"/>
    <path d="M 93.059221 25.225353 
L 88.873521 22.640801 
L 93.452583 20.842972 
" style="fill: none; stroke: #000000; stroke-linecap: round"/>
   </g>
   <g id="patch_8">
    <path d="M 48.59325 15.403236 
Q 48.140988 15.289662 48.77309 15.448399 
" style="fill: none; stroke: #000000; stroke-linecap: round"/>
    <path d="M 52.324907 18.608659 
L 48.59325 15.403236 
L 53.396582 14.341164 
" style="fill: none; stroke: #000000; stroke-linecap: round"/>
   </g>
   <g id="text_5">
    <!-- A -->
    <g transform="translate(12.915 7.81) scale(0.11 -0.11)">
     <defs>
      <path id="MyriadPro-Bold-41" d="M 2662 1107 
L 2995 0 
L 4051 0 
L 2707 4314 
L 1427 4314 
L 115 0 
L 1120 0 
L 1427 1107 
L 2662 1107 
z
M 1568 1837 
L 1824 2752 
C 1894 3002 1958 3328 2022 3584 
L 2035 3584 
C 2099 3328 2176 3008 2253 2752 
L 2522 1837 
L 1568 1837 
z
" transform="scale(0.015625)"/>
     </defs>
     <use xlink:href="#MyriadPro-Bold-41"/>
    </g>
   </g>
  </g>
  <g id="axes_2">
   <g id="patch_9">
    <path d="M 171.10953 74.566998 
L 303.44358 74.566998 
L 303.44358 7.993828 
L 171.10953 7.993828 
z
" style="fill: #ffffff"/>
   </g>
   <g id="matplotlib.axis_3">
    <g id="text_6">
     <!-- MTC length -->
     <g transform="translate(210.711555 86.376998) scale(0.11 -0.11)">
      <use xlink:href="#MyriadPro-Regular-4d"/>
      <use xlink:href="#MyriadPro-Regular-54" transform="translate(80.399994 0)"/>
      <use xlink:href="#MyriadPro-Regular-43" transform="translate(130.099991 0)"/>
      <use xlink:href="#MyriadPro-Regular-20" transform="translate(188.099976 0)"/>
      <use xlink:href="#MyriadPro-Regular-6c" transform="translate(209.299973 0)"/>
      <use xlink:href="#MyriadPro-Regular-65" transform="translate(232.899963 0)"/>
      <use xlink:href="#MyriadPro-Regular-6e" transform="translate(282.999954 0)"/>
      <use xlink:href="#MyriadPro-Regular-67" transform="translate(338.499939 0)"/>
      <use xlink:href="#MyriadPro-Regular-74" transform="translate(394.399933 0)"/>
      <use xlink:href="#MyriadPro-Regular-68" transform="translate(427.499924 0)"/>
     </g>
    </g>
   </g>
   <g id="matplotlib.axis_4">
    <g id="ytick_2">
     <g id="line2d_4">
      <path d="M 171.10953 74.566998 
L 303.44358 74.566998 
" clip-path="url(#p5d1f4a5f5a)" style="fill: none; stroke-dasharray: 3.7,1.6; stroke-dashoffset: 0; stroke: #cccccc"/>
     </g>
     <g id="line2d_5"/>
     <g id="text_7">
      <!-- 0 -->
      <g transform="translate(161.966874 78.471998) scale(0.11 -0.11)">
       <use xlink:href="#MyriadPro-Regular-30"/>
      </g>
     </g>
    </g>
   </g>
   <g id="patch_10">
    <path d="M 179.740104 74.566998 
L 179.740104 45.947029 
L 179.762863 47.702347 
L 179.842495 49.261307 
L 179.978921 50.637679 
L 180.172007 51.845009 
L 180.421562 52.913546 
L 180.727338 53.858996 
L 181.089034 54.679014 
L 181.506291 55.388496 
L 181.978698 56.000769 
L 182.505786 56.52771 
L 183.087036 56.979865 
L 183.721871 57.366558 
L 184.409665 57.696004 
L 185.149737 57.975414 
L 185.941355 58.211098 
L 186.783737 58.408561 
L 187.67605 58.573508 
L 188.61741 58.711878 
L 189.606888 58.825599 
L 190.643505 58.917592 
L 191.726235 58.990429 
L 192.854009 59.046389 
L 194.02571 59.087513 
L 195.240181 59.115647 
L 196.49622 59.132492 
L 197.792586 59.13964 
L 199.127996 59.13861 
L 200.501129 59.130868 
L 201.910629 59.117299 
L 203.355101 59.098336 
L 204.833116 59.074404 
L 206.343214 59.045926 
L 207.883902 59.013337 
L 209.453654 58.977082 
L 211.05092 58.937623 
L 212.67412 58.895441 
L 214.321648 58.851041 
L 215.991876 58.804906 
L 217.683152 58.756936 
L 219.393803 58.70728 
L 221.122138 58.656036 
L 222.866448 58.603309 
L 224.625008 58.549215 
L 226.396079 58.493879 
L 228.177909 58.437435 
L 229.968737 58.380029 
L 231.766792 58.321814 
L 233.570296 58.262951 
L 235.377465 58.203612 
L 237.186512 58.143975 
L 238.995649 58.083101 
L 240.803087 58.020245 
L 242.607037 57.957198 
L 244.405717 57.894056 
L 246.197348 57.830911 
L 247.980158 57.767861 
L 249.752383 57.705 
L 251.512273 57.642422 
L 253.258086 57.580218 
L 254.988095 57.518478 
L 256.700592 57.457286 
L 258.39388 57.396723 
L 260.066288 57.336864 
L 261.71616 57.274663 
L 263.341865 57.211798 
L 264.941796 57.150434 
L 266.51437 57.090637 
L 268.058032 57.032464 
L 269.571257 56.975959 
L 271.052547 56.921153 
L 272.500439 56.868063 
L 273.913499 56.816691 
L 275.290331 56.767025 
L 276.629573 56.719034 
L 277.929901 56.672671 
L 279.190029 56.627873 
L 280.408712 56.582637 
L 281.584743 56.539456 
L 282.71696 56.498851 
L 283.804244 56.46088 
L 284.845519 56.425576 
L 285.839756 56.392955 
L 286.78597 56.363009 
L 287.683228 56.335709 
L 288.530641 56.311003 
L 289.327372 56.288816 
L 290.072632 56.269049 
L 290.765686 56.251579 
L 291.405846 56.236783 
L 291.992481 56.231382 
L 292.52501 56.228148 
L 293.002907 56.227359 
L 293.425699 56.229274 
L 293.792967 56.234123 
L 294.10435 56.242111 
L 294.359539 56.253419 
L 294.558281 56.2682 
L 294.70038 56.286578 
L 294.785696 56.308652 
L 294.785696 74.566998 
z
" clip-path="url(#p5d1f4a5f5a)" style="fill: #bfbfbf"/>
   </g>
   <g id="line2d_6">
    <path d="M 179.740104 45.947029 
L 179.762863 47.702347 
L 179.842495 49.261307 
L 179.978921 50.637679 
L 180.172007 51.845009 
L 180.421562 52.913546 
L 180.727338 53.858996 
L 181.089034 54.679014 
L 181.506291 55.388496 
L 181.978698 56.000769 
L 182.505786 56.52771 
L 183.087036 56.979865 
L 183.721871 57.366558 
L 184.409665 57.696004 
L 185.149737 57.975414 
L 185.941355 58.211098 
L 186.783737 58.408561 
L 187.67605 58.573508 
L 188.61741 58.711878 
L 189.606888 58.825599 
L 190.643505 58.917592 
L 191.726235 58.990429 
L 192.854009 59.046389 
L 194.02571 59.087513 
L 195.240181 59.115647 
L 196.49622 59.132492 
L 197.792586 59.13964 
L 199.127996 59.13861 
L 200.501129 59.130868 
L 201.910629 59.117299 
L 203.355101 59.098336 
L 204.833116 59.074404 
L 206.343214 59.045926 
L 207.883902 59.013337 
L 209.453654 58.977082 
L 211.05092 58.937623 
L 212.67412 58.895441 
L 214.321648 58.851041 
L 215.991876 58.804906 
L 217.683152 58.756936 
L 219.393803 58.70728 
L 221.122138 58.656036 
L 222.866448 58.603309 
L 224.625008 58.549215 
L 226.396079 58.493879 
L 228.177909 58.437435 
L 229.968737 58.380029 
L 231.766792 58.321814 
L 233.570296 58.262951 
L 235.377465 58.203612 
L 237.186512 58.143975 
L 238.995649 58.083101 
L 240.803087 58.020245 
L 242.607037 57.957198 
L 244.405717 57.894056 
L 246.197348 57.830911 
L 247.980158 57.767861 
L 249.752383 57.705 
L 251.512273 57.642422 
L 253.258086 57.580218 
L 254.988095 57.518478 
L 256.700592 57.457286 
L 258.39388 57.396723 
L 260.066288 57.336864 
L 261.71616 57.274663 
L 263.341865 57.211798 
L 264.941796 57.150434 
L 266.51437 57.090637 
L 268.058032 57.032464 
L 269.571257 56.975959 
L 271.052547 56.921153 
L 272.500439 56.868063 
L 273.913499 56.816691 
L 275.290331 56.767025 
L 276.629573 56.719034 
L 277.929901 56.672671 
L 279.190029 56.627873 
L 280.408712 56.582637 
L 281.584743 56.539456 
L 282.71696 56.498851 
L 283.804244 56.46088 
L 284.845519 56.425576 
L 285.839756 56.392955 
L 286.78597 56.363009 
L 287.683228 56.335709 
L 288.530641 56.311003 
L 289.327372 56.288816 
L 290.072632 56.269049 
L 290.765686 56.251579 
L 291.405846 56.236783 
L 291.992481 56.231382 
L 292.52501 56.228148 
L 293.002907 56.227359 
L 293.425699 56.229274 
L 293.792967 56.234123 
L 294.10435 56.242111 
L 294.359539 56.253419 
L 294.558281 56.2682 
L 294.70038 56.286578 
L 294.785696 56.308652 
" clip-path="url(#p5d1f4a5f5a)" style="fill: none; stroke: #000000; stroke-linecap: square"/>
   </g>
   <g id="patch_11">
    <path d="M 171.10953 74.566998 
L 171.10953 7.993828 
" style="fill: none; stroke: #000000; stroke-width: 0.8; stroke-linejoin: miter; stroke-linecap: square"/>
   </g>
   <g id="patch_12">
    <path d="M 171.10953 74.566998 
L 303.44358 74.566998 
" style="fill: none; stroke: #000000; stroke-width: 0.8; stroke-linejoin: miter; stroke-linecap: square"/>
   </g>
   <g id="text_8">
    <!-- Negative work -->
    <g transform="translate(204.147451 70.508679) scale(0.11 -0.11)">
     <defs>
      <path id="MyriadPro-Regular-4e" d="M 1011 0 
L 1011 1843 
C 1011 2560 1005 3078 973 3622 
L 992 3629 
C 1203 3162 1491 2669 1792 2189 
L 3162 0 
L 3725 0 
L 3725 4314 
L 3200 4314 
L 3200 2509 
C 3200 1837 3213 1312 3264 736 
L 3245 730 
C 3046 1171 2790 1626 2477 2131 
L 1101 4314 
L 486 4314 
L 486 0 
L 1011 0 
z
" transform="scale(0.015625)"/>
      <path id="MyriadPro-Regular-61" d="M 2643 1901 
C 2643 2515 2413 3162 1466 3162 
C 1075 3162 698 3053 442 2893 
L 570 2515 
C 787 2662 1088 2746 1382 2746 
C 2016 2752 2086 2285 2086 2035 
L 2086 1971 
C 890 1978 224 1568 224 819 
C 224 371 544 -70 1171 -70 
C 1613 -70 1946 147 2118 390 
L 2138 390 
L 2182 0 
L 2688 0 
C 2656 211 2643 474 2643 742 
L 2643 1901 
z
M 2099 1043 
C 2099 992 2093 928 2074 864 
C 1984 602 1722 346 1312 346 
C 1030 346 787 512 787 883 
C 787 1485 1485 1594 2099 1581 
L 2099 1043 
z
" transform="scale(0.015625)"/>
     </defs>
     <use xlink:href="#MyriadPro-Regular-4e"/>
     <use xlink:href="#MyriadPro-Regular-65" transform="translate(65.799988 0)"/>
     <use xlink:href="#MyriadPro-Regular-67" transform="translate(115.899979 0)"/>
     <use xlink:href="#MyriadPro-Regular-61" transform="translate(171.799973 0)"/>
     <use xlink:href="#MyriadPro-Regular-74" transform="translate(219.999969 0)"/>
     <use xlink:href="#MyriadPro-Regular-69" transform="translate(253.09996 0)"/>
     <use xlink:href="#MyriadPro-Regular-76" transform="translate(276.499954 0)"/>
     <use xlink:href="#MyriadPro-Regular-65" transform="translate(324.599945 0)"/>
     <use xlink:href="#MyriadPro-Regular-20" transform="translate(374.699936 0)"/>
     <use xlink:href="#MyriadPro-Regular-77" transform="translate(395.899933 0)"/>
     <use xlink:href="#MyriadPro-Regular-6f" transform="translate(469.499924 0)"/>
     <use xlink:href="#MyriadPro-Regular-72" transform="translate(524.399918 0)"/>
     <use xlink:href="#MyriadPro-Regular-6b" transform="translate(557.099915 0)"/>
    </g>
   </g>
   <g id="patch_13">
    <path d="M 196.674569 59.133476 
Q 197.144403 59.136066 196.49622 59.132492 
" style="fill: none; stroke: #000000; stroke-linecap: round"/>
    <path d="M 192.286765 56.90925 
L 196.674569 59.133476 
L 192.262506 61.309183 
" style="fill: none; stroke: #000000; stroke-linecap: round"/>
   </g>
   <g id="patch_14">
    <path d="M 237.878248 58.120699 
Q 238.091081 58.113538 237.186512 58.143975 
" style="fill: none; stroke: #000000; stroke-linecap: round"/>
    <path d="M 233.406753 56.06991 
L 237.878248 58.120699 
L 233.55472 60.467422 
" style="fill: none; stroke: #000000; stroke-linecap: round"/>
   </g>
   <g id="patch_15">
    <path d="M 278.072701 56.667595 
Q 278.559965 56.650272 277.929901 56.672671 
" style="fill: none; stroke: #000000; stroke-linecap: round"/>
    <path d="M 273.597316 54.62531 
L 278.072701 56.667595 
L 273.753642 59.022532 
" style="fill: none; stroke: #000000; stroke-linecap: round"/>
   </g>
   <g id="text_9">
    <!-- B -->
    <g transform="translate(161.464843 7.81) scale(0.11 -0.11)">
     <defs>
      <path id="MyriadPro-Bold-42" d="M 422 19 
C 640 -13 998 -45 1478 -45 
C 2336 -45 2861 96 3174 346 
C 3443 563 3622 870 3622 1267 
C 3622 1818 3258 2195 2765 2323 
L 2765 2336 
C 3251 2522 3475 2874 3475 3251 
C 3475 3648 3264 3942 2963 4102 
C 2643 4288 2278 4346 1683 4346 
C 1190 4346 678 4301 422 4256 
L 422 19 
z
M 1389 3610 
C 1466 3622 1587 3635 1805 3635 
C 2246 3635 2496 3462 2496 3136 
C 2496 2816 2227 2605 1709 2605 
L 1389 2605 
L 1389 3610 
z
M 1389 1907 
L 1722 1907 
C 2208 1907 2598 1734 2598 1306 
C 2598 851 2208 678 1766 678 
C 1600 678 1485 678 1389 691 
L 1389 1907 
z
" transform="scale(0.015625)"/>
     </defs>
     <use xlink:href="#MyriadPro-Bold-42"/>
    </g>
   </g>
  </g>
  <g id="axes_3">
   <g id="patch_16">
    <path d="M 318.98906 74.566998 
L 451.323111 74.566998 
L 451.323111 7.993828 
L 318.98906 7.993828 
z
" style="fill: #ffffff"/>
   </g>
   <g id="matplotlib.axis_5">
    <g id="text_10">
     <!-- MTC length -->
     <g transform="translate(358.591085 86.376998) scale(0.11 -0.11)">
      <use xlink:href="#MyriadPro-Regular-4d"/>
      <use xlink:href="#MyriadPro-Regular-54" transform="translate(80.399994 0)"/>
      <use xlink:href="#MyriadPro-Regular-43" transform="translate(130.099991 0)"/>
      <use xlink:href="#MyriadPro-Regular-20" transform="translate(188.099976 0)"/>
      <use xlink:href="#MyriadPro-Regular-6c" transform="translate(209.299973 0)"/>
      <use xlink:href="#MyriadPro-Regular-65" transform="translate(232.899963 0)"/>
      <use xlink:href="#MyriadPro-Regular-6e" transform="translate(282.999954 0)"/>
      <use xlink:href="#MyriadPro-Regular-67" transform="translate(338.499939 0)"/>
      <use xlink:href="#MyriadPro-Regular-74" transform="translate(394.399933 0)"/>
      <use xlink:href="#MyriadPro-Regular-68" transform="translate(427.499924 0)"/>
     </g>
    </g>
   </g>
   <g id="matplotlib.axis_6">
    <g id="ytick_3">
     <g id="line2d_7">
      <path d="M 318.98906 74.566998 
L 451.323111 74.566998 
" clip-path="url(#pa74b62b544)" style="fill: none; stroke-dasharray: 3.7,1.6; stroke-dashoffset: 0; stroke: #cccccc"/>
     </g>
     <g id="line2d_8"/>
     <g id="text_11">
      <!-- 0 -->
      <g transform="translate(309.846404 78.471998) scale(0.11 -0.11)">
       <use xlink:href="#MyriadPro-Regular-30"/>
      </g>
     </g>
    </g>
   </g>
   <g id="patch_17">
    <path d="M 442.692536 56.322203 
L 442.675467 56.409656 
L 442.60152 56.137694 
L 442.470768 55.198455 
L 442.28334 53.843268 
L 442.039422 52.379797 
L 441.739256 50.86664 
L 441.383137 49.328721 
L 440.971418 47.787443 
L 440.504506 46.268711 
L 439.982863 44.78591 
L 439.407005 43.348844 
L 438.7775 41.965074 
L 438.094973 40.640106 
L 437.360096 39.377581 
L 436.573598 38.179442 
L 435.736256 37.04682 
L 434.848898 35.982797 
L 433.912401 34.973946 
L 432.927692 34.021306 
L 431.895744 33.125297 
L 430.817577 32.285762 
L 429.694258 31.502012 
L 428.526898 30.772871 
L 427.316651 30.096711 
L 426.064713 29.471497 
L 424.772324 28.894823 
L 423.440759 28.363944 
L 422.071338 27.875814 
L 420.665412 27.427116 
L 419.224374 27.014287 
L 417.749647 26.633551 
L 416.242691 26.28911 
L 414.704995 25.974246 
L 413.138079 25.68063 
L 411.543494 25.40705 
L 409.922816 25.152219 
L 408.277648 24.914784 
L 406.609616 24.69333 
L 404.92037 24.486384 
L 403.21158 24.292424 
L 401.484937 24.109877 
L 399.742147 23.93713 
L 397.984934 23.772531 
L 396.215036 23.614393 
L 394.434202 23.460998 
L 392.644194 23.3106 
L 390.846782 23.161429 
L 389.043743 23.011691 
L 387.23686 22.859573 
L 385.42792 22.703242 
L 383.618712 22.540848 
L 381.811024 22.370523 
L 380.006644 22.190763 
L 378.207357 22.002588 
L 376.414942 21.804031 
L 374.63117 21.594065 
L 372.857807 21.371656 
L 371.096605 21.135769 
L 369.349307 20.885382 
L 367.61764 20.619587 
L 365.903316 20.33878 
L 364.208031 20.047076 
L 362.53346 19.740224 
L 360.881261 19.418442 
L 359.253066 19.083297 
L 357.650487 18.736404 
L 356.075106 18.379434 
L 354.528483 18.014118 
L 353.012147 17.642251 
L 351.527597 17.265695 
L 350.076301 16.892581 
L 348.659694 16.527386 
L 347.279177 16.157733 
L 345.936116 15.794403 
L 344.631838 15.448399 
L 343.367633 15.130925 
L 342.144751 14.853366 
L 340.964402 14.627243 
L 339.827752 14.464162 
L 338.735926 14.375746 
L 337.690003 14.373555 
L 336.691017 14.468986 
L 335.739957 14.673167 
L 334.837763 14.983926 
L 333.985327 15.450444 
L 333.183492 16.060568 
L 332.43305 16.800431 
L 331.734745 17.655955 
L 331.089266 18.614545 
L 330.497251 19.755622 
L 329.959287 21.376772 
L 329.475905 23.863743 
L 329.047583 27.10791 
L 328.674744 30.503412 
L 328.357758 33.704656 
L 328.096938 36.665121 
L 327.892541 39.362902 
L 327.744771 41.79194 
L 327.653772 43.981495 
L 327.619635 45.947029 
L 327.642393 47.702347 
L 327.722025 49.261307 
L 327.858452 50.637679 
L 328.051537 51.845009 
L 328.301092 52.913546 
L 328.606868 53.858996 
L 328.968564 54.679014 
L 329.385821 55.388496 
L 329.858228 56.000769 
L 330.385317 56.52771 
L 330.966566 56.979865 
L 331.601402 57.366558 
L 332.289195 57.696004 
L 333.029267 57.975414 
L 333.820886 58.211098 
L 334.663268 58.408561 
L 335.55558 58.573508 
L 336.49694 58.711878 
L 337.486418 58.825599 
L 338.523035 58.917592 
L 339.605765 58.990429 
L 340.733539 59.046389 
L 341.905241 59.087513 
L 343.119711 59.115647 
L 344.37575 59.132492 
L 345.672116 59.13964 
L 347.007526 59.13861 
L 348.380659 59.130868 
L 349.790159 59.117299 
L 351.234631 59.098336 
L 352.712647 59.074404 
L 354.222745 59.045926 
L 355.763432 59.013337 
L 357.333184 58.977082 
L 358.93045 58.937623 
L 360.55365 58.895441 
L 362.201178 58.851041 
L 363.871406 58.804906 
L 365.562682 58.756936 
L 367.273333 58.70728 
L 369.001668 58.656036 
L 370.745978 58.603309 
L 372.504538 58.549215 
L 374.275609 58.493879 
L 376.057439 58.437435 
L 377.848267 58.380029 
L 379.646322 58.321814 
L 381.449826 58.262951 
L 383.256995 58.203612 
L 385.066043 58.143975 
L 386.87518 58.083101 
L 388.682617 58.020245 
L 390.486568 57.957198 
L 392.285248 57.894056 
L 394.076878 57.830911 
L 395.859688 57.767861 
L 397.631914 57.705 
L 399.391803 57.642422 
L 401.137616 57.580218 
L 402.867626 57.518478 
L 404.580122 57.457286 
L 406.273411 57.396723 
L 407.945818 57.336864 
L 409.59569 57.274663 
L 411.221395 57.211798 
L 412.821326 57.150434 
L 414.3939 57.090637 
L 415.937563 57.032464 
L 417.450787 56.975959 
L 418.932078 56.921153 
L 420.379969 56.868063 
L 421.793029 56.816691 
L 423.169861 56.767025 
L 424.509103 56.719034 
L 425.809431 56.672671 
L 427.06956 56.627873 
L 428.288242 56.582637 
L 429.464273 56.539456 
L 430.596491 56.498851 
L 431.683774 56.46088 
L 432.725049 56.425576 
L 433.719286 56.392955 
L 434.665501 56.363009 
L 435.562758 56.335709 
L 436.410172 56.311003 
L 437.206902 56.288816 
L 437.952163 56.269049 
L 438.645216 56.251579 
L 439.285376 56.236783 
L 439.872011 56.231382 
L 440.40454 56.228148 
L 440.882437 56.227359 
L 441.305229 56.229274 
L 441.672498 56.234123 
L 441.98388 56.242111 
L 442.239069 56.253419 
L 442.437811 56.2682 
L 442.57991 56.286578 
L 442.665226 56.308652 
z
" clip-path="url(#pa74b62b544)" style="fill: #bfbfbf"/>
   </g>
   <g id="line2d_9">
    <path d="M 442.692536 56.322203 
L 442.675467 56.409656 
L 442.60152 56.137694 
L 442.039422 52.379797 
L 441.383137 49.328721 
L 440.504506 46.268711 
L 439.407005 43.348844 
L 438.094973 40.640106 
L 436.573598 38.179442 
L 434.848898 35.982797 
L 432.927692 34.021306 
L 430.817577 32.285762 
L 428.526898 30.772871 
L 426.064713 29.471497 
L 423.440759 28.363944 
L 420.665412 27.427116 
L 417.749647 26.633551 
L 413.138079 25.68063 
L 408.277648 24.914784 
L 401.484937 24.109877 
L 390.846782 23.161429 
L 378.207357 22.002588 
L 371.096605 21.135769 
L 364.208031 20.047076 
L 357.650487 18.736404 
L 351.527597 17.265695 
L 340.964402 14.627243 
L 338.735926 14.375746 
L 336.691017 14.468986 
L 335.739957 14.673167 
L 334.837763 14.983926 
L 333.985327 15.450444 
L 333.183492 16.060568 
L 332.43305 16.800431 
L 331.089266 18.614545 
L 330.497251 19.755622 
L 329.959287 21.376772 
L 329.475905 23.863743 
L 328.674744 30.503412 
L 327.892541 39.362902 
L 327.653772 43.981495 
L 327.642393 47.702347 
L 327.858452 50.637679 
L 328.301092 52.913546 
L 328.968564 54.679014 
L 329.858228 56.000769 
L 330.966566 56.979865 
L 332.289195 57.696004 
L 333.820886 58.211098 
L 335.55558 58.573508 
L 338.523035 58.917592 
L 343.119711 59.115647 
L 349.790159 59.117299 
L 362.201178 58.851041 
L 388.682617 58.020245 
L 442.239069 56.253419 
L 442.665226 56.308652 
L 442.665226 56.308652 
" clip-path="url(#pa74b62b544)" style="fill: none; stroke: #000000; stroke-linecap: square"/>
   </g>
   <g id="patch_18">
    <path d="M 318.98906 74.566998 
L 318.98906 7.993828 
" style="fill: none; stroke: #000000; stroke-width: 0.8; stroke-linejoin: miter; stroke-linecap: square"/>
   </g>
   <g id="patch_19">
    <path d="M 318.98906 74.566998 
L 451.323111 74.566998 
" style="fill: none; stroke: #000000; stroke-width: 0.8; stroke-linejoin: miter; stroke-linecap: square"/>
   </g>
   <g id="text_12">
    <!-- Net work -->
    <g transform="translate(364.440653 43.23978) scale(0.11 -0.11)">
     <use xlink:href="#MyriadPro-Regular-4e"/>
     <use xlink:href="#MyriadPro-Regular-65" transform="translate(65.799988 0)"/>
     <use xlink:href="#MyriadPro-Regular-74" transform="translate(115.899979 0)"/>
     <use xlink:href="#MyriadPro-Regular-20" transform="translate(148.999969 0)"/>
     <use xlink:href="#MyriadPro-Regular-77" transform="translate(170.199966 0)"/>
     <use xlink:href="#MyriadPro-Regular-6f" transform="translate(243.799957 0)"/>
     <use xlink:href="#MyriadPro-Regular-72" transform="translate(298.699951 0)"/>
     <use xlink:href="#MyriadPro-Regular-6b" transform="translate(331.399948 0)"/>
    </g>
   </g>
   <g id="patch_20">
    <path d="M 425.793327 29.350402 
Q 425.418518 29.18316 426.064713 29.471497 
" style="fill: none; stroke: #000000; stroke-linecap: round"/>
    <path d="M 428.915002 33.152394 
L 425.793327 29.350402 
L 430.707925 29.134257 
" style="fill: none; stroke: #000000; stroke-linecap: round"/>
   </g>
   <g id="patch_21">
    <path d="M 384.732269 22.640801 
Q 384.523316 22.622045 385.42792 22.703242 
" style="fill: none; stroke: #000000; stroke-linecap: round"/>
    <path d="M 388.917969 25.225353 
L 384.732269 22.640801 
L 389.311331 20.842972 
" style="fill: none; stroke: #000000; stroke-linecap: round"/>
   </g>
   <g id="patch_22">
    <path d="M 344.451997 15.403236 
Q 343.999735 15.289662 344.631838 15.448399 
" style="fill: none; stroke: #000000; stroke-linecap: round"/>
    <path d="M 348.183655 18.608659 
L 344.451997 15.403236 
L 349.25533 14.341164 
" style="fill: none; stroke: #000000; stroke-linecap: round"/>
   </g>
   <g id="patch_23">
    <path d="M 344.554099 59.133476 
Q 345.023933 59.136066 344.37575 59.132492 
" style="fill: none; stroke: #000000; stroke-linecap: round"/>
    <path d="M 340.166295 56.90925 
L 344.554099 59.133476 
L 340.142036 61.309183 
" style="fill: none; stroke: #000000; stroke-linecap: round"/>
   </g>
   <g id="patch_24">
    <path d="M 385.757778 58.120699 
Q 385.970611 58.113538 385.066043 58.143975 
" style="fill: none; stroke: #000000; stroke-linecap: round"/>
    <path d="M 381.286283 56.06991 
L 385.757778 58.120699 
L 381.43425 60.467422 
" style="fill: none; stroke: #000000; stroke-linecap: round"/>
   </g>
   <g id="patch_25">
    <path d="M 425.952231 56.667595 
Q 426.439495 56.650272 425.809431 56.672671 
" style="fill: none; stroke: #000000; stroke-linecap: round"/>
    <path d="M 421.476846 54.62531 
L 425.952231 56.667595 
L 421.633172 59.022532 
" style="fill: none; stroke: #000000; stroke-linecap: round"/>
   </g>
   <g id="text_13">
    <!-- C -->
    <g transform="translate(309.44406 7.81) scale(0.11 -0.11)">
     <defs>
      <path id="MyriadPro-Bold-43" d="M 3443 883 
C 3245 800 2925 742 2624 742 
C 1760 742 1248 1286 1248 2150 
C 1248 3110 1850 3578 2618 3578 
C 2970 3578 3245 3501 3437 3418 
L 3642 4186 
C 3469 4282 3085 4378 2579 4378 
C 1274 4378 224 3565 224 2093 
C 224 864 992 -70 2483 -70 
C 3002 -70 3411 32 3584 115 
L 3443 883 
z
" transform="scale(0.015625)"/>
     </defs>
     <use xlink:href="#MyriadPro-Bold-43"/>
    </g>
   </g>
  </g>
 </g>
 <defs>
  <clipPath id="p0bc37d1da3">
   <rect x="23.130313" y="7.993828" width="132.33405" height="66.57317"/>
  </clipPath>
  <clipPath id="p5d1f4a5f5a">
   <rect x="171.10953" y="7.993828" width="132.33405" height="66.57317"/>
  </clipPath>
  <clipPath id="pa74b62b544">
   <rect x="318.98906" y="7.993828" width="132.33405" height="66.57317"/>
  </clipPath>
 </defs>
</svg>
