<?xml version="1.0" encoding="utf-8" standalone="no"?>
<!DOCTYPE svg PUBLIC "-//W3C//DTD SVG 1.1//EN"
  "http://www.w3.org/Graphics/SVG/1.1/DTD/svg11.dtd">
<svg xmlns:xlink="http://www.w3.org/1999/xlink" width="225.757315pt" height="206.314481pt" viewBox="0 0 225.757315 206.314481" xmlns="http://www.w3.org/2000/svg" version="1.1">
 <metadata>
  <rdf:RDF xmlns:dc="http://purl.org/dc/elements/1.1/" xmlns:cc="http://creativecommons.org/ns#" xmlns:rdf="http://www.w3.org/1999/02/22-rdf-syntax-ns#">
   <cc:Work>
    <dc:type rdf:resource="http://purl.org/dc/dcmitype/StillImage"/>
    <dc:date>2026-02-25T13:38:24.793374</dc:date>
    <dc:format>image/svg+xml</dc:format>
    <dc:creator>
     <cc:Agent>
      <dc:title>Matplotlib v3.10.6, https://matplotlib.org/</dc:title>
     </cc:Agent>
    </dc:creator>
   </cc:Work>
  </rdf:RDF>
 </metadata>
 <defs>
  <style type="text/css">*{stroke-linejoin: round; stroke-linecap: butt}</style>
 </defs>
 <g id="figure_1">
  <g id="patch_1">
   <path d="M 0 206.314481 
L 225.757315 206.314481 
L 225.757315 0 
L 0 0 
z
" style="fill: #ffffff"/>
  </g>
  <g id="axes_1">
   <g id="patch_2">
    <path d="M 46.877938 178.718856 
L 225.757315 178.718856 
L 225.757315 0 
L 46.877938 0 
z
" style="fill: #ffffff"/>
   </g>
   <g id="matplotlib.axis_1">
    <g id="xtick_1">
     <g id="line2d_1">
      <path d="M 89.244106 178.718856 
L 89.244106 0 
" clip-path="url(#pb4055ddda8)" style="fill: none; stroke-dasharray: 3.7,1.6; stroke-dashoffset: 0; stroke: #eeeeee"/>
     </g>
     <g id="line2d_2"/>
     <g id="text_1">
      <!-- 5 -->
      <g transform="translate(86.422778 190.028856) scale(0.11 -0.11)">
       <defs>
        <path id="MyriadPro-Regular-35" d="M 2771 4160 
L 781 4160 
L 512 2163 
C 666 2182 851 2202 1094 2202 
C 1920 2202 2285 1824 2285 1286 
C 2291 730 1830 384 1306 384 
C 922 384 582 512 410 614 
L 269 186 
C 474 58 851 -70 1306 -70 
C 2208 -70 2854 538 2854 1350 
C 2854 1869 2586 2234 2259 2413 
C 2003 2573 1690 2637 1363 2637 
C 1210 2637 1120 2630 1024 2618 
L 1184 3686 
L 2771 3686 
L 2771 4160 
z
" transform="scale(0.015625)"/>
       </defs>
       <use xlink:href="#MyriadPro-Regular-35"/>
      </g>
     </g>
    </g>
    <g id="xtick_2">
     <g id="line2d_3">
      <path d="M 132.038215 178.718856 
L 132.038215 0 
" clip-path="url(#pb4055ddda8)" style="fill: none; stroke-dasharray: 3.7,1.6; stroke-dashoffset: 0; stroke: #eeeeee"/>
     </g>
     <g id="line2d_4"/>
     <g id="text_2">
      <!-- 10 -->
      <g transform="translate(126.395559 190.028856) scale(0.11 -0.11)">
       <defs>
        <path id="MyriadPro-Regular-31" d="M 1510 0 
L 2054 0 
L 2054 4160 
L 1574 4160 
L 666 3674 
L 774 3245 
L 1498 3635 
L 1510 3635 
L 1510 0 
z
" transform="scale(0.015625)"/>
        <path id="MyriadPro-Regular-30" d="M 1683 4230 
C 838 4230 230 3469 230 2067 
C 243 691 800 -70 1613 -70 
C 2528 -70 3059 710 3059 2125 
C 3059 3450 2554 4230 1683 4230 
z
M 1645 3795 
C 2234 3795 2490 3123 2490 2099 
C 2490 1037 2214 365 1645 365 
C 1133 365 800 979 800 2061 
C 800 3194 1158 3795 1645 3795 
z
" transform="scale(0.015625)"/>
       </defs>
       <use xlink:href="#MyriadPro-Regular-31"/>
       <use xlink:href="#MyriadPro-Regular-30" transform="translate(51.299988 0)"/>
      </g>
     </g>
    </g>
    <g id="xtick_3">
     <g id="line2d_5">
      <path d="M 174.832325 178.718856 
L 174.832325 0 
" clip-path="url(#pb4055ddda8)" style="fill: none; stroke-dasharray: 3.7,1.6; stroke-dashoffset: 0; stroke: #eeeeee"/>
     </g>
     <g id="line2d_6"/>
     <g id="text_3">
      <!-- 15 -->
      <g transform="translate(169.189669 190.028856) scale(0.11 -0.11)">
       <use xlink:href="#MyriadPro-Regular-31"/>
       <use xlink:href="#MyriadPro-Regular-35" transform="translate(51.299988 0)"/>
      </g>
     </g>
    </g>
    <g id="xtick_4">
     <g id="line2d_7">
      <path d="M 217.626434 178.718856 
L 217.626434 0 
" clip-path="url(#pb4055ddda8)" style="fill: none; stroke-dasharray: 3.7,1.6; stroke-dashoffset: 0; stroke: #eeeeee"/>
     </g>
     <g id="line2d_8"/>
     <g id="text_4">
      <!-- 20 -->
      <g transform="translate(211.983778 190.028856) scale(0.11 -0.11)">
       <defs>
        <path id="MyriadPro-Regular-32" d="M 2944 0 
L 2944 467 
L 1082 467 
L 1082 480 
L 1408 787 
C 2285 1632 2842 2253 2842 3021 
C 2842 3616 2464 4230 1568 4230 
C 1094 4230 678 4045 397 3808 
L 576 3411 
C 768 3571 1082 3763 1459 3763 
C 2080 3763 2278 3373 2278 2950 
C 2278 2323 1792 1786 730 774 
L 288 346 
L 288 0 
L 2944 0 
z
" transform="scale(0.015625)"/>
       </defs>
       <use xlink:href="#MyriadPro-Regular-32"/>
       <use xlink:href="#MyriadPro-Regular-30" transform="translate(51.299988 0)"/>
      </g>
     </g>
    </g>
    <g id="text_5">
     <!-- Duration of quick-release [ms] -->
     <g transform="translate(67.644111 204.136824) scale(0.11 -0.11)">
      <defs>
       <path id="MyriadPro-Regular-44" d="M 486 13 
C 768 -19 1094 -38 1498 -38 
C 2336 -38 3002 179 3411 582 
C 3808 979 4032 1555 4032 2259 
C 4032 2957 3808 3456 3418 3808 
C 3040 4154 2470 4346 1670 4346 
C 1229 4346 826 4307 486 4250 
L 486 13 
z
M 1043 3846 
C 1190 3878 1408 3904 1696 3904 
C 2874 3904 3450 3258 3443 2240 
C 3443 1075 2803 410 1606 410 
C 1389 410 1184 416 1043 435 
L 1043 3846 
z
" transform="scale(0.015625)"/>
       <path id="MyriadPro-Regular-75" d="M 3059 3098 
L 2496 3098 
L 2496 1203 
C 2496 1094 2477 992 2445 915 
C 2342 659 2080 397 1702 397 
C 1197 397 1011 800 1011 1389 
L 1011 3098 
L 448 3098 
L 448 1286 
C 448 205 1030 -70 1517 -70 
C 2067 -70 2400 256 2541 506 
L 2554 506 
L 2586 0 
L 3085 0 
C 3066 243 3059 525 3059 851 
L 3059 3098 
z
" transform="scale(0.015625)"/>
       <path id="MyriadPro-Regular-72" d="M 467 0 
L 1030 0 
L 1030 1651 
C 1030 1741 1037 1837 1050 1914 
C 1126 2336 1408 2630 1805 2630 
C 1882 2630 1939 2630 1997 2618 
L 1997 3149 
C 1946 3155 1901 3162 1843 3162 
C 1466 3162 1120 2899 979 2483 
L 960 2483 
L 934 3098 
L 442 3098 
C 461 2810 467 2496 467 2131 
L 467 0 
z
" transform="scale(0.015625)"/>
       <path id="MyriadPro-Regular-61" d="M 2643 1901 
C 2643 2515 2413 3162 1466 3162 
C 1075 3162 698 3053 442 2893 
L 570 2515 
C 787 2662 1088 2746 1382 2746 
C 2016 2752 2086 2285 2086 2035 
L 2086 1971 
C 890 1978 224 1568 224 819 
C 224 371 544 -70 1171 -70 
C 1613 -70 1946 147 2118 390 
L 2138 390 
L 2182 0 
L 2688 0 
C 2656 211 2643 474 2643 742 
L 2643 1901 
z
M 2099 1043 
C 2099 992 2093 928 2074 864 
C 1984 602 1722 346 1312 346 
C 1030 346 787 512 787 883 
C 787 1485 1485 1594 2099 1581 
L 2099 1043 
z
" transform="scale(0.015625)"/>
       <path id="MyriadPro-Regular-74" d="M 595 3674 
L 595 3098 
L 115 3098 
L 115 2669 
L 595 2669 
L 595 979 
C 595 614 659 339 813 166 
C 947 19 1158 -70 1421 -70 
C 1638 -70 1811 -32 1920 6 
L 1894 435 
C 1811 410 1722 397 1568 397 
C 1254 397 1146 614 1146 998 
L 1146 2669 
L 1952 2669 
L 1952 3098 
L 1146 3098 
L 1146 3840 
L 595 3674 
z
" transform="scale(0.015625)"/>
       <path id="MyriadPro-Regular-69" d="M 1030 0 
L 1030 3098 
L 467 3098 
L 467 0 
L 1030 0 
z
M 749 4320 
C 538 4320 397 4160 397 3968 
C 397 3776 531 3622 736 3622 
C 960 3622 1094 3776 1094 3968 
C 1094 4166 954 4320 749 4320 
z
" transform="scale(0.015625)"/>
       <path id="MyriadPro-Regular-6f" d="M 1779 3162 
C 928 3162 243 2554 243 1523 
C 243 544 896 -70 1728 -70 
C 2470 -70 3270 429 3270 1574 
C 3270 2515 2669 3162 1779 3162 
z
M 1766 2739 
C 2432 2739 2694 2080 2694 1555 
C 2694 858 2291 352 1754 352 
C 1203 352 819 864 819 1542 
C 819 2125 1107 2739 1766 2739 
z
" transform="scale(0.015625)"/>
       <path id="MyriadPro-Regular-6e" d="M 467 0 
L 1030 0 
L 1030 1862 
C 1030 1958 1043 2054 1069 2125 
C 1171 2438 1459 2701 1824 2701 
C 2355 2701 2541 2285 2541 1786 
L 2541 0 
L 3104 0 
L 3104 1843 
C 3104 2906 2438 3162 2010 3162 
C 1498 3162 1139 2874 986 2586 
L 973 2586 
L 941 3098 
L 442 3098 
C 461 2842 467 2586 467 2259 
L 467 0 
z
" transform="scale(0.015625)"/>
       <path id="MyriadPro-Regular-20" transform="scale(0.015625)"/>
       <path id="MyriadPro-Regular-66" d="M 1082 0 
L 1082 2669 
L 1830 2669 
L 1830 3098 
L 1082 3098 
L 1082 3264 
C 1082 3744 1203 4160 1683 4160 
C 1850 4160 1958 4128 2042 4090 
L 2118 4525 
C 2010 4570 1843 4614 1638 4614 
C 1376 4614 1094 4531 883 4326 
C 627 4077 525 3680 525 3245 
L 525 3098 
L 96 3098 
L 96 2669 
L 525 2669 
L 525 0 
L 1082 0 
z
" transform="scale(0.015625)"/>
       <path id="MyriadPro-Regular-71" d="M 2579 -1267 
L 3136 -1267 
L 3136 2246 
C 3136 2566 3149 2842 3162 3098 
L 2630 3098 
L 2611 2630 
L 2598 2630 
C 2445 2925 2125 3162 1645 3162 
C 992 3162 243 2656 243 1491 
C 243 550 832 -70 1555 -70 
C 2054 -70 2394 173 2566 474 
L 2579 474 
L 2579 -1267 
z
M 2579 1261 
C 2579 1178 2560 1069 2534 986 
C 2406 602 2093 378 1728 378 
C 1107 378 813 909 813 1530 
C 813 2221 1165 2714 1747 2714 
C 2170 2714 2464 2419 2554 2074 
C 2573 2003 2579 1920 2579 1843 
L 2579 1261 
z
" transform="scale(0.015625)"/>
       <path id="MyriadPro-Regular-63" d="M 2579 531 
C 2419 461 2208 384 1888 384 
C 1274 384 813 826 813 1542 
C 813 2182 1197 2714 1907 2714 
C 2214 2714 2426 2637 2560 2566 
L 2688 2995 
C 2534 3078 2240 3162 1907 3162 
C 896 3162 243 2464 243 1510 
C 243 563 851 -70 1786 -70 
C 2202 -70 2528 38 2675 109 
L 2579 531 
z
" transform="scale(0.015625)"/>
       <path id="MyriadPro-Regular-6b" d="M 1024 4544 
L 467 4544 
L 467 0 
L 1024 0 
L 1024 1165 
L 1312 1485 
L 2374 0 
L 3066 0 
L 1702 1824 
L 2893 3098 
L 2221 3098 
L 1306 2029 
C 1216 1920 1114 1786 1037 1677 
L 1024 1677 
L 1024 4544 
z
" transform="scale(0.015625)"/>
       <path id="MyriadPro-Regular-2d" d="M 192 1933 
L 192 1523 
L 1773 1523 
L 1773 1933 
L 192 1933 
z
" transform="scale(0.015625)"/>
       <path id="MyriadPro-Regular-65" d="M 2957 1446 
C 2970 1510 2976 1594 2976 1709 
C 2976 2278 2714 3162 1696 3162 
C 794 3162 243 2432 243 1498 
C 243 563 813 -70 1766 -70 
C 2259 -70 2605 38 2803 128 
L 2701 531 
C 2496 442 2246 371 1843 371 
C 1274 371 794 685 781 1446 
L 2957 1446 
z
M 787 1850 
C 832 2240 1075 2758 1651 2758 
C 2285 2758 2438 2202 2432 1850 
L 787 1850 
z
" transform="scale(0.015625)"/>
       <path id="MyriadPro-Regular-6c" d="M 467 0 
L 1030 0 
L 1030 4544 
L 467 4544 
L 467 0 
z
" transform="scale(0.015625)"/>
       <path id="MyriadPro-Regular-73" d="M 256 147 
C 474 19 787 -70 1126 -70 
C 1850 -70 2278 314 2278 864 
C 2278 1325 1997 1594 1466 1792 
C 1062 1952 883 2067 883 2323 
C 883 2554 1062 2746 1395 2746 
C 1683 2746 1907 2637 2029 2560 
L 2163 2970 
C 1997 3078 1722 3162 1408 3162 
C 749 3162 339 2752 339 2253 
C 339 1882 602 1581 1165 1376 
C 1574 1222 1734 1082 1734 813 
C 1734 550 1542 352 1139 352 
C 858 352 563 467 390 570 
L 256 147 
z
" transform="scale(0.015625)"/>
       <path id="MyriadPro-Regular-5b" d="M 1690 -717 
L 1690 -365 
L 960 -365 
L 960 4038 
L 1690 4038 
L 1690 4390 
L 518 4390 
L 518 -717 
L 1690 -717 
z
" transform="scale(0.015625)"/>
       <path id="MyriadPro-Regular-6d" d="M 467 0 
L 1018 0 
L 1018 1862 
C 1018 1958 1030 2061 1062 2138 
C 1152 2419 1414 2701 1760 2701 
C 2189 2701 2406 2349 2406 1856 
L 2406 0 
L 2957 0 
L 2957 1914 
C 2957 2016 2976 2112 3002 2195 
C 3104 2464 3347 2701 3674 2701 
C 4122 2701 4346 2349 4346 1747 
L 4346 0 
L 4896 0 
L 4896 1818 
C 4896 2893 4288 3162 3872 3162 
C 3578 3162 3379 3085 3194 2944 
C 3066 2848 2938 2720 2842 2541 
L 2829 2541 
C 2694 2906 2374 3162 1958 3162 
C 1440 3162 1152 2886 979 2592 
L 960 2592 
L 934 3098 
L 442 3098 
C 454 2842 467 2586 467 2259 
L 467 0 
z
" transform="scale(0.015625)"/>
       <path id="MyriadPro-Regular-5d" d="M 128 4390 
L 128 4038 
L 858 4038 
L 858 -365 
L 128 -365 
L 128 -717 
L 1299 -717 
L 1299 4390 
L 128 4390 
z
" transform="scale(0.015625)"/>
      </defs>
      <use xlink:href="#MyriadPro-Regular-44"/>
      <use xlink:href="#MyriadPro-Regular-75" transform="translate(66.599991 0)"/>
      <use xlink:href="#MyriadPro-Regular-72" transform="translate(121.699982 0)"/>
      <use xlink:href="#MyriadPro-Regular-61" transform="translate(154.399979 0)"/>
      <use xlink:href="#MyriadPro-Regular-74" transform="translate(202.599976 0)"/>
      <use xlink:href="#MyriadPro-Regular-69" transform="translate(235.699966 0)"/>
      <use xlink:href="#MyriadPro-Regular-6f" transform="translate(259.09996 0)"/>
      <use xlink:href="#MyriadPro-Regular-6e" transform="translate(313.999954 0)"/>
      <use xlink:href="#MyriadPro-Regular-20" transform="translate(369.499939 0)"/>
      <use xlink:href="#MyriadPro-Regular-6f" transform="translate(390.699936 0)"/>
      <use xlink:href="#MyriadPro-Regular-66" transform="translate(445.59993 0)"/>
      <use xlink:href="#MyriadPro-Regular-20" transform="translate(474.799927 0)"/>
      <use xlink:href="#MyriadPro-Regular-71" transform="translate(495.999924 0)"/>
      <use xlink:href="#MyriadPro-Regular-75" transform="translate(552.299911 0)"/>
      <use xlink:href="#MyriadPro-Regular-69" transform="translate(607.399902 0)"/>
      <use xlink:href="#MyriadPro-Regular-63" transform="translate(630.799896 0)"/>
      <use xlink:href="#MyriadPro-Regular-6b" transform="translate(675.599884 0)"/>
      <use xlink:href="#MyriadPro-Regular-2d" transform="translate(722.499878 0)"/>
      <use xlink:href="#MyriadPro-Regular-72" transform="translate(753.199875 0)"/>
      <use xlink:href="#MyriadPro-Regular-65" transform="translate(785.899872 0)"/>
      <use xlink:href="#MyriadPro-Regular-6c" transform="translate(835.999863 0)"/>
      <use xlink:href="#MyriadPro-Regular-65" transform="translate(859.599854 0)"/>
      <use xlink:href="#MyriadPro-Regular-61" transform="translate(909.699844 0)"/>
      <use xlink:href="#MyriadPro-Regular-73" transform="translate(957.899841 0)"/>
      <use xlink:href="#MyriadPro-Regular-65" transform="translate(997.499832 0)"/>
      <use xlink:href="#MyriadPro-Regular-20" transform="translate(1047.599823 0)"/>
      <use xlink:href="#MyriadPro-Regular-5b" transform="translate(1068.79982 0)"/>
      <use xlink:href="#MyriadPro-Regular-6d" transform="translate(1097.199814 0)"/>
      <use xlink:href="#MyriadPro-Regular-73" transform="translate(1180.599808 0)"/>
      <use xlink:href="#MyriadPro-Regular-5d" transform="translate(1220.199799 0)"/>
     </g>
    </g>
   </g>
   <g id="matplotlib.axis_2">
    <g id="ytick_1">
     <g id="line2d_9">
      <path d="M 46.877938 146.74413 
L 225.757315 146.74413 
" clip-path="url(#pb4055ddda8)" style="fill: none; stroke-dasharray: 3.7,1.6; stroke-dashoffset: 0; stroke: #eeeeee"/>
     </g>
     <g id="line2d_10"/>
     <g id="text_6">
      <!-- −50 -->
      <g transform="translate(25.537313 150.64913) scale(0.11 -0.11)">
       <defs>
        <path id="MyriadPro-Regular-2212" d="M 256 1901 
L 256 1517 
L 3558 1517 
L 3558 1901 
L 256 1901 
z
" transform="scale(0.015625)"/>
       </defs>
       <use xlink:href="#MyriadPro-Regular-2212"/>
       <use xlink:href="#MyriadPro-Regular-35" transform="translate(59.599991 0)"/>
       <use xlink:href="#MyriadPro-Regular-30" transform="translate(110.899979 0)"/>
      </g>
     </g>
    </g>
    <g id="ytick_2">
     <g id="line2d_11">
      <path d="M 46.877938 111.165362 
L 225.757315 111.165362 
" clip-path="url(#pb4055ddda8)" style="fill: none; stroke-dasharray: 3.7,1.6; stroke-dashoffset: 0; stroke: #eeeeee"/>
     </g>
     <g id="line2d_12"/>
     <g id="text_7">
      <!-- −40 -->
      <g transform="translate(25.537313 115.070362) scale(0.11 -0.11)">
       <defs>
        <path id="MyriadPro-Regular-34" d="M 2560 0 
L 2560 1139 
L 3142 1139 
L 3142 1574 
L 2560 1574 
L 2560 4160 
L 1952 4160 
L 96 1504 
L 96 1139 
L 2029 1139 
L 2029 0 
L 2560 0 
z
M 666 1574 
L 666 1587 
L 1683 3002 
C 1798 3194 1901 3373 2029 3616 
L 2048 3616 
C 2035 3398 2029 3181 2029 2963 
L 2029 1574 
L 666 1574 
z
" transform="scale(0.015625)"/>
       </defs>
       <use xlink:href="#MyriadPro-Regular-2212"/>
       <use xlink:href="#MyriadPro-Regular-34" transform="translate(59.599991 0)"/>
       <use xlink:href="#MyriadPro-Regular-30" transform="translate(110.899979 0)"/>
      </g>
     </g>
    </g>
    <g id="ytick_3">
     <g id="line2d_13">
      <path d="M 46.877938 75.586594 
L 225.757315 75.586594 
" clip-path="url(#pb4055ddda8)" style="fill: none; stroke-dasharray: 3.7,1.6; stroke-dashoffset: 0; stroke: #eeeeee"/>
     </g>
     <g id="line2d_14"/>
     <g id="text_8">
      <!-- −30 -->
      <g transform="translate(25.537313 79.491594) scale(0.11 -0.11)">
       <defs>
        <path id="MyriadPro-Regular-33" d="M 269 211 
C 474 77 883 -70 1350 -70 
C 2342 -70 2867 512 2867 1178 
C 2861 1760 2451 2144 1939 2240 
L 1939 2253 
C 2445 2438 2707 2803 2707 3238 
C 2707 3744 2336 4230 1517 4230 
C 1069 4230 646 4070 422 3910 
L 576 3501 
C 755 3629 1075 3776 1408 3776 
C 1926 3776 2138 3482 2138 3149 
C 2138 2656 1619 2445 1210 2445 
L 896 2445 
L 896 2022 
L 1210 2022 
C 1754 2022 2278 1773 2285 1190 
C 2291 838 2061 384 1344 384 
C 947 384 582 544 422 640 
L 269 211 
z
" transform="scale(0.015625)"/>
       </defs>
       <use xlink:href="#MyriadPro-Regular-2212"/>
       <use xlink:href="#MyriadPro-Regular-33" transform="translate(59.599991 0)"/>
       <use xlink:href="#MyriadPro-Regular-30" transform="translate(110.899979 0)"/>
      </g>
     </g>
    </g>
    <g id="ytick_4">
     <g id="line2d_15">
      <path d="M 46.877938 40.007826 
L 225.757315 40.007826 
" clip-path="url(#pb4055ddda8)" style="fill: none; stroke-dasharray: 3.7,1.6; stroke-dashoffset: 0; stroke: #eeeeee"/>
     </g>
     <g id="line2d_16"/>
     <g id="text_9">
      <!-- −20 -->
      <g transform="translate(25.537313 43.912826) scale(0.11 -0.11)">
       <use xlink:href="#MyriadPro-Regular-2212"/>
       <use xlink:href="#MyriadPro-Regular-32" transform="translate(59.599991 0)"/>
       <use xlink:href="#MyriadPro-Regular-30" transform="translate(110.899979 0)"/>
      </g>
     </g>
    </g>
    <g id="ytick_5">
     <g id="line2d_17">
      <path d="M 46.877938 4.429058 
L 225.757315 4.429058 
" clip-path="url(#pb4055ddda8)" style="fill: none; stroke-dasharray: 3.7,1.6; stroke-dashoffset: 0; stroke: #eeeeee"/>
     </g>
     <g id="line2d_18"/>
     <g id="text_10">
      <!-- −10 -->
      <g transform="translate(25.537313 8.334058) scale(0.11 -0.11)">
       <use xlink:href="#MyriadPro-Regular-2212"/>
       <use xlink:href="#MyriadPro-Regular-31" transform="translate(59.599991 0)"/>
       <use xlink:href="#MyriadPro-Regular-30" transform="translate(110.899979 0)"/>
      </g>
     </g>
    </g>
    <g id="text_11">
     <!-- SEE stiffness  -->
     <g transform="translate(7.81 118.475912) rotate(-90) scale(0.11 -0.11)">
      <defs>
       <path id="MyriadPro-Regular-53" d="M 269 211 
C 499 58 954 -70 1370 -70 
C 2387 -70 2874 512 2874 1178 
C 2874 1811 2509 2163 1779 2445 
C 1184 2675 922 2874 922 3277 
C 922 3571 1146 3923 1734 3923 
C 2125 3923 2413 3802 2547 3718 
L 2701 4173 
C 2515 4282 2189 4384 1754 4384 
C 915 4384 358 3885 358 3213 
C 358 2611 794 2240 1498 1984 
C 2080 1766 2310 1530 2310 1133 
C 2310 698 1978 397 1408 397 
C 1024 397 666 518 416 678 
L 269 211 
z
" transform="scale(0.015625)"/>
       <path id="MyriadPro-Regular-45" d="M 2714 2483 
L 1043 2483 
L 1043 3846 
L 2816 3846 
L 2816 4314 
L 480 4314 
L 480 0 
L 2912 0 
L 2912 467 
L 1043 467 
L 1043 2022 
L 2714 2022 
L 2714 2483 
z
" transform="scale(0.015625)"/>
      </defs>
      <use xlink:href="#MyriadPro-Regular-53"/>
      <use xlink:href="#MyriadPro-Regular-45" transform="translate(49.299988 0)"/>
      <use xlink:href="#MyriadPro-Regular-45" transform="translate(98.499985 0)"/>
      <use xlink:href="#MyriadPro-Regular-20" transform="translate(147.699982 0)"/>
      <use xlink:href="#MyriadPro-Regular-73" transform="translate(168.899979 0)"/>
      <use xlink:href="#MyriadPro-Regular-74" transform="translate(208.499969 0)"/>
      <use xlink:href="#MyriadPro-Regular-69" transform="translate(241.59996 0)"/>
      <use xlink:href="#MyriadPro-Regular-66" transform="translate(264.999954 0)"/>
      <use xlink:href="#MyriadPro-Regular-66" transform="translate(294.199951 0)"/>
      <use xlink:href="#MyriadPro-Regular-6e" transform="translate(323.399948 0)"/>
      <use xlink:href="#MyriadPro-Regular-65" transform="translate(378.899933 0)"/>
      <use xlink:href="#MyriadPro-Regular-73" transform="translate(428.999924 0)"/>
      <use xlink:href="#MyriadPro-Regular-73" transform="translate(468.599915 0)"/>
      <use xlink:href="#MyriadPro-Regular-20" transform="translate(508.199905 0)"/>
     </g>
     <!-- underestimation [%] -->
     <g transform="translate(19.359656 136.203959) rotate(-90) scale(0.11 -0.11)">
      <defs>
       <path id="MyriadPro-Regular-64" d="M 2579 4544 
L 2579 2694 
L 2566 2694 
C 2426 2938 2112 3162 1632 3162 
C 883 3162 237 2534 243 1504 
C 243 563 826 -70 1574 -70 
C 2080 -70 2451 192 2618 538 
L 2637 538 
L 2662 0 
L 3162 0 
C 3149 211 3136 525 3136 800 
L 3136 4544 
L 2579 4544 
z
M 2579 1299 
C 2579 1210 2573 1133 2554 1056 
C 2451 640 2106 384 1728 384 
C 1126 384 813 902 813 1530 
C 813 2208 1158 2720 1741 2720 
C 2163 2720 2470 2426 2554 2074 
C 2573 2003 2579 1907 2579 1837 
L 2579 1299 
z
" transform="scale(0.015625)"/>
       <path id="MyriadPro-Regular-25" d="M 1203 4230 
C 640 4230 192 3763 192 2931 
C 198 2099 640 1683 1165 1683 
C 1702 1683 2157 2118 2157 2995 
C 2157 3782 1779 4230 1203 4230 
z
M 1171 3891 
C 1568 3891 1715 3475 1715 2963 
C 1715 2419 1549 2022 1178 2022 
C 826 2022 621 2426 634 2957 
C 634 3475 826 3891 1171 3891 
z
M 1478 -77 
L 3930 4237 
L 3571 4237 
L 1120 -77 
L 1478 -77 
z
M 3917 2509 
C 3354 2509 2906 2042 2906 1210 
C 2912 371 3354 -45 3878 -45 
C 4416 -45 4870 390 4870 1267 
C 4870 2061 4493 2509 3917 2509 
z
M 3885 2170 
C 4282 2170 4429 1747 4429 1242 
C 4429 691 4262 294 3891 294 
C 3539 294 3334 698 3347 1229 
C 3347 1754 3539 2170 3885 2170 
z
" transform="scale(0.015625)"/>
      </defs>
      <use xlink:href="#MyriadPro-Regular-75"/>
      <use xlink:href="#MyriadPro-Regular-6e" transform="translate(55.099991 0)"/>
      <use xlink:href="#MyriadPro-Regular-64" transform="translate(110.599976 0)"/>
      <use xlink:href="#MyriadPro-Regular-65" transform="translate(166.999969 0)"/>
      <use xlink:href="#MyriadPro-Regular-72" transform="translate(217.09996 0)"/>
      <use xlink:href="#MyriadPro-Regular-65" transform="translate(249.799957 0)"/>
      <use xlink:href="#MyriadPro-Regular-73" transform="translate(299.899948 0)"/>
      <use xlink:href="#MyriadPro-Regular-74" transform="translate(339.499939 0)"/>
      <use xlink:href="#MyriadPro-Regular-69" transform="translate(372.59993 0)"/>
      <use xlink:href="#MyriadPro-Regular-6d" transform="translate(395.999924 0)"/>
      <use xlink:href="#MyriadPro-Regular-61" transform="translate(479.399918 0)"/>
      <use xlink:href="#MyriadPro-Regular-74" transform="translate(527.599915 0)"/>
      <use xlink:href="#MyriadPro-Regular-69" transform="translate(560.699905 0)"/>
      <use xlink:href="#MyriadPro-Regular-6f" transform="translate(584.099899 0)"/>
      <use xlink:href="#MyriadPro-Regular-6e" transform="translate(638.999893 0)"/>
      <use xlink:href="#MyriadPro-Regular-20" transform="translate(694.499878 0)"/>
      <use xlink:href="#MyriadPro-Regular-5b" transform="translate(715.699875 0)"/>
      <use xlink:href="#MyriadPro-Regular-25" transform="translate(744.099869 0)"/>
      <use xlink:href="#MyriadPro-Regular-5d" transform="translate(823.29985 0)"/>
     </g>
    </g>
   </g>
   <g id="line2d_19">
    <path d="M 55.008818 8.123584 
L 80.685284 44.621137 
L 106.36175 78.15966 
L 132.038215 106.78595 
L 174.832325 144.75336 
L 217.626434 170.595271 
" clip-path="url(#pb4055ddda8)" style="fill: none; stroke: #000000; stroke-linecap: square"/>
    <defs>
     <path id="m5828573167" d="M 0 1.5 
C 0.397805 1.5 0.77937 1.341951 1.06066 1.06066 
C 1.341951 0.77937 1.5 0.397805 1.5 0 
C 1.5 -0.397805 1.341951 -0.77937 1.06066 -1.06066 
C 0.77937 -1.341951 0.397805 -1.5 0 -1.5 
C -0.397805 -1.5 -0.77937 -1.341951 -1.06066 -1.06066 
C -1.341951 -0.77937 -1.5 -0.397805 -1.5 0 
C -1.5 0.397805 -1.341951 0.77937 -1.06066 1.06066 
C -0.77937 1.341951 -0.397805 1.5 0 1.5 
z
" style="stroke: #000000"/>
    </defs>
    <g clip-path="url(#pb4055ddda8)">
     <use xlink:href="#m5828573167" x="55.008818" y="8.123584" style="stroke: #000000"/>
     <use xlink:href="#m5828573167" x="80.685284" y="44.621137" style="stroke: #000000"/>
     <use xlink:href="#m5828573167" x="106.36175" y="78.15966" style="stroke: #000000"/>
     <use xlink:href="#m5828573167" x="132.038215" y="106.78595" style="stroke: #000000"/>
     <use xlink:href="#m5828573167" x="174.832325" y="144.75336" style="stroke: #000000"/>
     <use xlink:href="#m5828573167" x="217.626434" y="170.595271" style="stroke: #000000"/>
    </g>
   </g>
   <g id="patch_3">
    <path d="M 46.877938 178.718856 
L 46.877938 0 
" style="fill: none; stroke: #000000; stroke-width: 0.8; stroke-linejoin: miter; stroke-linecap: square"/>
   </g>
   <g id="patch_4">
    <path d="M 46.877938 178.718856 
L 225.757315 178.718856 
" style="fill: none; stroke: #000000; stroke-width: 0.8; stroke-linejoin: miter; stroke-linecap: square"/>
   </g>
  </g>
 </g>
 <defs>
  <clipPath id="pb4055ddda8">
   <rect x="46.877938" y="0" width="178.879378" height="178.718856"/>
  </clipPath>
 </defs>
</svg>
